SeanSlab-NormalSemibold.ufo
<glyph name="exclam" format="1">
  <advance width="274"/>
  <unicode hex="0021"/>
  <outline>
    <contour>
      <point x="184" y="229" type="line"/>
      <point x="195" y="722" type="line"/>
      <point x="79" y="722" type="line"/>
      <point x="90" y="229" type="line"/>
    </contour>
    <contour>
      <point x="199" y="45" type="curve"/>
      <point x="199" y="81"/>
      <point x="172" y="99"/>
      <point x="136" y="99" type="curve"/>
      <point x="100" y="99"/>
      <point x="76" y="80"/>
      <point x="76" y="45" type="curve"/>
      <point x="194" y="45"/>
      <point x="81" y="45"/>
      <point x="199" y="45" type="curve"/>
      <point x="199" y="8"/>
      <point x="173" y="-8"/>
      <point x="136" y="-8" type="curve"/>
      <point x="100" y="-8"/>
      <point x="76" y="10"/>
      <point x="76" y="45" type="curve"/>
      <point x="194" y="45"/>
      <point x="81" y="45"/>
    </contour>
  </outline>
</glyph>
<glyph name="quotedbl" format="1">
  <advance width="459"/>
  <unicode hex="0022"/>
  <outline>
    <contour>
      <point x="177" y="612" type="line"/>
      <point x="185" y="825" type="line"/>
      <point x="69" y="825" type="line"/>
      <point x="77" y="612" type="line"/>
    </contour>
    <contour>
      <point x="382" y="612" type="line"/>
      <point x="390" y="825" type="line"/>
      <point x="274" y="825" type="line"/>
      <point x="282" y="612" type="line"/>
    </contour>
  </outline>
</glyph>
<glyph name="numbersign" format="1">
  <advance width="721"/>
  <unicode hex="0023"/>
  <outline>
    <contour>
      <point x="45" y="227" type="curve"/>
      <point x="576" y="227" type="curve"/>
      <point x="603" y="308" type="curve"/>
      <point x="74" y="308" type="curve"/>
    </contour>
    <contour>
      <point x="116" y="450" type="curve"/>
      <point x="649" y="450" type="curve"/>
      <point x="676" y="531" type="curve"/>
      <point x="142" y="531" type="curve"/>
    </contour>
    <contour>
      <point x="446" y="39" type="curve"/>
      <point x="672" y="722" type="curve"/>
      <point x="565" y="722" type="curve"/>
      <point x="339" y="39" type="curve"/>
    </contour>
    <contour>
      <point x="163" y="46" type="curve"/>
      <point x="387" y="722" type="curve"/>
      <point x="280" y="722" type="curve"/>
      <point x="61" y="46" type="curve"/>
    </contour>
  </outline>
</glyph>
<glyph name="percent" format="1">
  <advance width="1150"/>
  <unicode hex="0025"/>
  <outline>
    <contour>
      <point x="411" y="-54" type="line"/>
      <point x="855" y="723" type="line"/>
      <point x="756" y="723" type="line"/>
      <point x="312" y="-54" type="line"/>
    </contour>
    <contour>
      <point x="137" y="510" type="curve"/>
      <point x="137" y="592"/>
      <point x="172" y="649"/>
      <point x="250" y="649" type="curve"/>
      <point x="328" y="650"/>
      <point x="364" y="592"/>
      <point x="364" y="509" type="curve"/>
      <point x="364" y="428"/>
      <point x="332" y="368"/>
      <point x="256" y="368" type="curve"/>
      <point x="175" y="368"/>
      <point x="137" y="426"/>
      <point x="137" y="510" type="curve"/>
      <point x="101" y="510"/>
      <point x="76" y="510"/>
      <point x="40" y="510" type="curve"/>
      <point x="40" y="376"/>
      <point x="118" y="290"/>
      <point x="251" y="290" type="curve"/>
      <point x="386" y="290"/>
      <point x="465" y="376"/>
      <point x="465" y="513" type="curve"/>
      <point x="465" y="646"/>
      <point x="386" y="727"/>
      <point x="254" y="727" type="curve"/>
      <point x="120" y="727"/>
      <point x="40" y="644"/>
      <point x="40" y="510" type="curve"/>
      <point x="76" y="510"/>
      <point x="101" y="510"/>
    </contour>
    <contour>
      <point x="782" y="161" type="curve"/>
      <point x="782" y="242"/>
      <point x="818" y="300"/>
      <point x="895" y="300" type="curve"/>
      <point x="973" y="301"/>
      <point x="1010" y="243"/>
      <point x="1010" y="160" type="curve"/>
      <point x="1010" y="78"/>
      <point x="978" y="18"/>
      <point x="901" y="18" type="curve"/>
      <point x="820" y="18"/>
      <point x="782" y="76"/>
      <point x="782" y="161" type="curve"/>
      <point x="746" y="161"/>
      <point x="722" y="161"/>
      <point x="686" y="161" type="curve"/>
      <point x="686" y="26"/>
      <point x="763" y="-59"/>
      <point x="896" y="-59" type="curve"/>
      <point x="1031" y="-59"/>
      <point x="1111" y="27"/>
      <point x="1111" y="164" type="curve"/>
      <point x="1111" y="296"/>
      <point x="1032" y="377"/>
      <point x="900" y="377" type="curve"/>
      <point x="766" y="377"/>
      <point x="686" y="295"/>
      <point x="686" y="161" type="curve"/>
      <point x="722" y="161"/>
      <point x="746" y="161"/>
    </contour>
  </outline>
</glyph>
<glyph name="ampersand" format="1">
  <advance width="737"/>
  <unicode hex="0026"/>
  <outline>
    <contour>
      <point x="713" y="46" type="line"/>
      <point x="605" y="146"/>
      <point x="485" y="264"/>
      <point x="374" y="368" type="curve"/>
      <point x="313" y="428"/>
      <point x="233" y="470"/>
      <point x="233" y="558" type="curve"/>
      <point x="233" y="610"/>
      <point x="264" y="646"/>
      <point x="315" y="646" type="curve"/>
      <point x="372" y="646"/>
      <point x="411" y="616"/>
      <point x="411" y="560" type="curve"/>
      <point x="411" y="479"/>
      <point x="344" y="447"/>
      <point x="269" y="409" type="curve"/>
      <point x="161" y="353"/>
      <point x="59" y="311"/>
      <point x="59" y="193" type="curve"/>
      <point x="59" y="61"/>
      <point x="168" y="-5"/>
      <point x="309" y="-5" type="curve"/>
      <point x="507" y="-5"/>
      <point x="623" y="124"/>
      <point x="691" y="314" type="curve"/>
      <point x="599" y="334"/>
      <point x="691" y="314"/>
      <point x="599" y="334" type="curve"/>
      <point x="545" y="185"/>
      <point x="465" y="76"/>
      <point x="314" y="76" type="curve"/>
      <point x="229" y="76"/>
      <point x="165" y="113"/>
      <point x="165" y="193" type="curve"/>
      <point x="165" y="277"/>
      <point x="237" y="304"/>
      <point x="314" y="344" type="curve"/>
      <point x="419" y="399"/>
      <point x="516" y="445"/>
      <point x="517" y="560" type="curve"/>
      <point x="517" y="669"/>
      <point x="433" y="727"/>
      <point x="320" y="727" type="curve"/>
      <point x="209" y="727"/>
      <point x="130" y="665"/>
      <point x="130" y="558" type="curve"/>
      <point x="130" y="449"/>
      <point x="220" y="393"/>
      <point x="300" y="320" type="curve"/>
      <point x="408" y="216"/>
      <point x="543" y="87"/>
      <point x="649" y="-13" type="curve"/>
    </contour>
  </outline>
</glyph>
<glyph name="quotesingle" format="1">
  <advance width="254"/>
  <unicode hex="0027"/>
  <outline>
    <contour>
      <point x="177" y="612" type="line"/>
      <point x="185" y="825" type="line"/>
      <point x="69" y="825" type="line"/>
      <point x="77" y="612" type="line"/>
    </contour>
  </outline>
</glyph>
<glyph name="parenleft" format="1">
  <advance width="393"/>
  <unicode hex="0028"/>
  <outline>
    <contour>
      <point x="386" y="-215" type="curve"/>
      <point x="224" y="-57"/>
      <point x="153" y="98"/>
      <point x="153" y="326" type="curve"/>
      <point x="153" y="554"/>
      <point x="224" y="709"/>
      <point x="385" y="870" type="curve"/>
      <point x="321" y="922"/>
      <point x="385" y="870"/>
      <point x="321" y="922" type="curve"/>
      <point x="140" y="746"/>
      <point x="48" y="581"/>
      <point x="48" y="326" type="curve"/>
      <point x="48" y="70"/>
      <point x="140" y="-95"/>
      <point x="322" y="-272" type="curve"/>
      <point x="386" y="-215"/>
      <point x="322" y="-272"/>
    </contour>
  </outline>
</glyph>
<glyph name="hyphen" format="1">
  <advance width="458"/>
  <unicode hex="002D"/>
  <outline>
    <contour>
      <point x="77" y="235" type="curve"/>
      <point x="178" y="235"/>
      <point x="279" y="235"/>
      <point x="380" y="235" type="curve"/>
      <point x="380" y="324"/>
      <point x="380" y="235"/>
      <point x="380" y="324" type="curve"/>
      <point x="279" y="324"/>
      <point x="178" y="324"/>
      <point x="77" y="324" type="curve"/>
      <point x="77" y="235"/>
      <point x="77" y="324"/>
    </contour>
  </outline>
</glyph>
<glyph name="period" format="1">
  <advance width="265"/>
  <unicode hex="002E"/>
  <outline>
    <contour>
      <point x="194" y="45" type="curve"/>
      <point x="194" y="81"/>
      <point x="167" y="99"/>
      <point x="132" y="99" type="curve"/>
      <point x="96" y="99"/>
      <point x="72" y="80"/>
      <point x="72" y="45" type="curve"/>
      <point x="189" y="45"/>
      <point x="76" y="45"/>
      <point x="194" y="45" type="curve"/>
      <point x="194" y="8"/>
      <point x="168" y="-8"/>
      <point x="131" y="-8" type="curve"/>
      <point x="95" y="-8"/>
      <point x="72" y="10"/>
      <point x="72" y="45" type="curve"/>
      <point x="189" y="45"/>
      <point x="76" y="45"/>
    </contour>
  </outline>
</glyph>
<glyph name="slash" format="1">
  <advance width="613"/>
  <unicode hex="002F"/>
  <outline>
    <contour>
      <point x="138" y="-31" type="curve"/>
      <point x="285" y="247"/>
      <point x="434" y="525"/>
      <point x="582" y="802" type="curve"/>
      <point x="475" y="802"/>
      <point x="582" y="802"/>
      <point x="475" y="802" type="curve"/>
      <point x="327" y="525"/>
      <point x="179" y="247"/>
      <point x="31" y="-31" type="curve"/>
      <point x="138" y="-31"/>
      <point x="31" y="-31"/>
    </contour>
  </outline>
</glyph>
<glyph name="zero" format="1">
  <advance width="784"/>
  <unicode hex="0030"/>
  <outline>
    <contour>
      <point x="167" y="360" type="curve"/>
      <point x="167" y="527"/>
      <point x="233" y="642"/>
      <point x="389" y="642" type="curve"/>
      <point x="546" y="642"/>
      <point x="617" y="529"/>
      <point x="617" y="363" type="curve"/>
      <point x="617" y="196"/>
      <point x="551" y="81"/>
      <point x="398" y="81" type="curve"/>
      <point x="241" y="81"/>
      <point x="167" y="193"/>
      <point x="167" y="360" type="curve"/>
      <point x="62" y="360"/>
      <point x="167" y="360"/>
      <point x="61" y="360" type="curve"/>
      <point x="61" y="137"/>
      <point x="176" y="-5"/>
      <point x="393" y="-5" type="curve"/>
      <point x="611" y="-5"/>
      <point x="723" y="139"/>
      <point x="723" y="363" type="curve"/>
      <point x="723" y="584"/>
      <point x="613" y="727"/>
      <point x="399" y="727" type="curve"/>
      <point x="178" y="727"/>
      <point x="61" y="585"/>
      <point x="61" y="360" type="curve"/>
      <point x="167" y="360"/>
      <point x="62" y="360"/>
    </contour>
  </outline>
</glyph>
<glyph name="one" format="1">
  <advance width="484"/>
  <unicode hex="0031"/>
  <outline>
    <contour>
      <point x="288" y="0" type="curve"/>
      <point x="340" y="0"/>
      <point x="393" y="0"/>
      <point x="446" y="0" type="curve"/>
      <point x="446" y="81"/>
      <point x="446" y="0"/>
      <point x="446" y="81" type="curve"/>
      <point x="288" y="81"/>
      <point x="446" y="81"/>
      <point x="288" y="81" type="curve"/>
      <point x="288" y="0"/>
      <point x="288" y="81"/>
    </contour>
    <contour>
      <point x="288" y="81" type="curve"/>
      <point x="127" y="81"/>
      <point x="288" y="81"/>
      <point x="127" y="81" type="curve"/>
      <point x="127" y="0"/>
      <point x="127" y="81"/>
      <point x="127" y="0" type="curve"/>
      <point x="181" y="0"/>
      <point x="234" y="0"/>
      <point x="288" y="0" type="curve"/>
      <point x="288" y="81"/>
      <point x="288" y="0"/>
    </contour>
    <contour>
      <point x="82" y="492" type="curve"/>
      <point x="312" y="668"/>
      <point x="82" y="492"/>
      <point x="312" y="668" type="curve"/>
      <point x="232" y="722"/>
      <point x="312" y="668"/>
      <point x="232" y="722" type="curve"/>
      <point x="28" y="563"/>
      <point x="232" y="722"/>
      <point x="28" y="563" type="curve"/>
      <point x="82" y="492"/>
      <point x="28" y="563"/>
    </contour>
    <contour>
      <point x="339" y="0" type="curve"/>
      <point x="339" y="241"/>
      <point x="339" y="481"/>
      <point x="339" y="722" type="curve"/>
      <point x="232" y="722"/>
      <point x="339" y="722"/>
      <point x="232" y="722" type="curve"/>
      <point x="232" y="481"/>
      <point x="232" y="241"/>
      <point x="232" y="0" type="curve"/>
      <point x="339" y="0"/>
      <point x="232" y="0"/>
    </contour>
  </outline>
</glyph>
<glyph name="two" format="1">
  <advance width="647"/>
  <unicode hex="0032"/>
  <outline>
    <contour>
      <point x="581" y="81" type="curve"/>
      <point x="581" y="194"/>
      <point x="581" y="76"/>
      <point x="581" y="189" type="curve"/>
      <point x="498" y="189"/>
      <point x="581" y="189"/>
      <point x="498" y="189" type="curve"/>
      <point x="498" y="76"/>
      <point x="498" y="194"/>
      <point x="498" y="81" type="curve"/>
      <point x="581" y="81"/>
      <point x="498" y="81"/>
    </contour>
    <contour>
      <point x="51" y="0" type="curve"/>
      <point x="255" y="0"/>
      <point x="426" y="0"/>
      <point x="581" y="0" type="curve"/>
      <point x="581" y="81"/>
      <point x="581" y="0"/>
      <point x="581" y="81" type="curve"/>
      <point x="409" y="81"/>
      <point x="223" y="81"/>
      <point x="51" y="81" type="curve"/>
      <point x="51" y="0"/>
      <point x="51" y="81"/>
    </contour>
    <contour>
      <point x="133" y="529" type="curve"/>
      <point x="185" y="598"/>
      <point x="228" y="642"/>
      <point x="307" y="642" type="curve"/>
      <point x="392" y="642"/>
      <point x="444" y="597"/>
      <point x="444" y="510" type="curve"/>
      <point x="444" y="403"/>
      <point x="366" y="335"/>
      <point x="282" y="270" type="curve"/>
      <point x="205" y="206"/>
      <point x="129" y="145"/>
      <point x="51" y="81" type="curve"/>
      <point x="55" y="0"/>
      <point x="51" y="81"/>
      <point x="55" y="0" type="curve"/>
      <point x="186" y="65"/>
      <point x="266" y="138"/>
      <point x="349" y="207" type="curve"/>
      <point x="457" y="290"/>
      <point x="543" y="370"/>
      <point x="543" y="514" type="curve"/>
      <point x="543" y="655"/>
      <point x="454" y="727"/>
      <point x="312" y="727" type="curve"/>
      <point x="197" y="727"/>
      <point x="116" y="673"/>
      <point x="61" y="575" type="curve"/>
      <point x="133" y="529"/>
      <point x="61" y="575"/>
    </contour>
  </outline>
</glyph>
<glyph name="three" format="1">
  <advance width="588"/>
  <unicode hex="0033"/>
  <outline>
    <contour>
      <point x="50" y="56" type="curve"/>
      <point x="107" y="19"/>
      <point x="172" y="-5"/>
      <point x="255" y="-5" type="curve"/>
      <point x="417" y="-5"/>
      <point x="530" y="54"/>
      <point x="530" y="210" type="curve"/>
      <point x="530" y="349"/>
      <point x="379" y="406"/>
      <point x="169" y="406" type="curve"/>
      <point x="169" y="339"/>
      <point x="169" y="404"/>
      <point x="169" y="337" type="curve"/>
      <point x="303" y="337"/>
      <point x="428" y="300"/>
      <point x="428" y="207" type="curve"/>
      <point x="428" y="110"/>
      <point x="347" y="81"/>
      <point x="259" y="81" type="curve"/>
      <point x="206" y="81"/>
      <point x="156" y="95"/>
      <point x="101" y="123" type="curve"/>
      <point x="50" y="56"/>
      <point x="101" y="123"/>
    </contour>
    <contour>
      <point x="112" y="581" type="curve"/>
      <point x="143" y="611"/>
      <point x="195" y="642"/>
      <point x="252" y="642" type="curve"/>
      <point x="336" y="642"/>
      <point x="393" y="613"/>
      <point x="393" y="534" type="curve"/>
      <point x="393" y="451"/>
      <point x="288" y="417"/>
      <point x="169" y="417" type="curve"/>
      <point x="169" y="350"/>
      <point x="169" y="415"/>
      <point x="169" y="348" type="curve"/>
      <point x="350" y="348"/>
      <point x="495" y="403"/>
      <point x="495" y="537" type="curve"/>
      <point x="495" y="669"/>
      <point x="398" y="727"/>
      <point x="261" y="727" type="curve"/>
      <point x="171" y="727"/>
      <point x="93" y="686"/>
      <point x="52" y="639" type="curve"/>
      <point x="112" y="581"/>
      <point x="52" y="639"/>
    </contour>
  </outline>
</glyph>
<glyph name="four" format="1">
  <advance width="655"/>
  <unicode hex="0034"/>
  <outline>
    <contour>
      <point x="407" y="81" type="line"/>
      <point x="265" y="81" type="line"/>
      <point x="265" y="0" type="line"/>
      <point x="407" y="0" type="line"/>
    </contour>
    <contour>
      <point x="407" y="0" type="line"/>
      <point x="547" y="0" type="line"/>
      <point x="547" y="81" type="line"/>
      <point x="407" y="81" type="line"/>
    </contour>
    <contour>
      <point x="76" y="251" type="line"/>
      <point x="439" y="683" type="line"/>
      <point x="355" y="705" type="line"/>
      <point x="34" y="328" type="line"/>
    </contour>
    <contour>
      <point x="613" y="328" type="line"/>
      <point x="34" y="328" type="line"/>
      <point x="34" y="239" type="line"/>
      <point x="613" y="239" type="line"/>
    </contour>
    <contour>
      <point x="461" y="31" type="line"/>
      <point x="461" y="705" type="line"/>
      <point x="355" y="705" type="line"/>
      <point x="355" y="31" type="line"/>
    </contour>
  </outline>
</glyph>
<glyph name="five" format="1">
  <advance width="581"/>
  <unicode hex="0035"/>
  <outline>
    <contour>
      <point x="86" y="722" type="curve"/>
      <point x="86" y="624"/>
      <point x="86" y="514"/>
      <point x="86" y="384" type="curve"/>
      <point x="188" y="357"/>
      <point x="86" y="384"/>
      <point x="188" y="357" type="curve"/>
      <point x="188" y="448"/>
      <point x="188" y="550"/>
      <point x="188" y="641" type="curve"/>
      <point x="86" y="722"/>
      <point x="188" y="641"/>
    </contour>
    <contour>
      <point x="188" y="357" type="curve"/>
      <point x="208" y="373"/>
      <point x="248" y="385"/>
      <point x="278" y="385" type="curve"/>
      <point x="369" y="385"/>
      <point x="421" y="329"/>
      <point x="421" y="237" type="curve"/>
      <point x="421" y="143"/>
      <point x="352" y="80"/>
      <point x="257" y="80" type="curve"/>
      <point x="199" y="80"/>
      <point x="156" y="91"/>
      <point x="101" y="117" type="curve"/>
      <point x="51" y="43"/>
      <point x="101" y="117"/>
      <point x="51" y="43" type="curve"/>
      <point x="117" y="11"/>
      <point x="177" y="-5"/>
      <point x="252" y="-5" type="curve"/>
      <point x="408" y="-5"/>
      <point x="528" y="86"/>
      <point x="528" y="236" type="curve"/>
      <point x="528" y="380"/>
      <point x="432" y="471"/>
      <point x="287" y="471" type="curve"/>
      <point x="219" y="471"/>
      <point x="141" y="449"/>
      <point x="86" y="386" type="curve"/>
      <point x="188" y="357"/>
      <point x="86" y="386"/>
    </contour>
    <contour>
      <point x="497" y="722" type="curve"/>
      <point x="356" y="722"/>
      <point x="218" y="722"/>
      <point x="86" y="722" type="curve"/>
      <point x="188" y="641"/>
      <point x="86" y="722"/>
      <point x="188" y="641" type="curve"/>
      <point x="286" y="641"/>
      <point x="390" y="641"/>
      <point x="497" y="641" type="curve"/>
      <point x="497" y="722"/>
      <point x="497" y="641"/>
    </contour>
  </outline>
</glyph>
<glyph name="six" format="1">
  <advance width="646"/>
  <unicode hex="0036"/>
  <outline>
    <contour>
      <point x="143" y="221" type="curve"/>
      <point x="180" y="305"/>
      <point x="244" y="352"/>
      <point x="336" y="352" type="curve"/>
      <point x="426" y="352"/>
      <point x="481" y="307"/>
      <point x="481" y="218" type="curve"/>
      <point x="481" y="133"/>
      <point x="424" y="86"/>
      <point x="338" y="86" type="curve"/>
      <point x="227" y="86"/>
      <point x="159" y="146"/>
      <point x="159" y="254" type="curve"/>
      <point x="159" y="486"/>
      <point x="334" y="587"/>
      <point x="569" y="651" type="curve"/>
      <point x="544" y="730"/>
      <point x="569" y="651"/>
      <point x="544" y="730" type="curve"/>
      <point x="274" y="662"/>
      <point x="56" y="532"/>
      <point x="56" y="250" type="curve"/>
      <point x="56" y="84"/>
      <point x="164" y="-10"/>
      <point x="334" y="-10" type="curve"/>
      <point x="487" y="-10"/>
      <point x="588" y="70"/>
      <point x="588" y="218" type="curve"/>
      <point x="588" y="363"/>
      <point x="492" y="437"/>
      <point x="348" y="437" type="curve"/>
      <point x="214" y="437"/>
      <point x="123" y="350"/>
      <point x="79" y="254" type="curve"/>
      <point x="143" y="221"/>
      <point x="80" y="254"/>
    </contour>
  </outline>
</glyph>
<glyph name="seven" format="1">
  <advance width="587"/>
  <unicode hex="0037"/>
  <outline>
    <contour>
      <point x="139" y="536" type="line"/>
      <point x="139" y="645" type="line"/>
      <point x="56" y="645" type="line"/>
      <point x="56" y="536" type="line"/>
    </contour>
    <contour>
      <point x="56" y="641" type="line"/>
      <point x="566" y="641" type="line"/>
      <point x="566" y="722" type="line"/>
      <point x="56" y="722" type="line"/>
    </contour>
    <contour>
      <point x="503" y="722" type="line"/>
      <point x="80" y="0" type="line"/>
      <point x="196" y="0" type="line"/>
      <point x="566" y="641" type="line"/>
    </contour>
  </outline>
</glyph>
<glyph name="nine" format="1">
  <advance width="646"/>
  <unicode hex="0039"/>
  <outline>
    <contour>
      <point x="506" y="489" type="curve"/>
      <point x="466" y="408"/>
      <point x="410" y="370"/>
      <point x="318" y="370" type="curve"/>
      <point x="224" y="370"/>
      <point x="164" y="417"/>
      <point x="164" y="508" type="curve"/>
      <point x="164" y="592"/>
      <point x="222" y="636"/>
      <point x="308" y="636" type="curve"/>
      <point x="419" y="636"/>
      <point x="487" y="577"/>
      <point x="487" y="468" type="curve"/>
      <point x="487" y="237"/>
      <point x="319" y="133"/>
      <point x="81" y="72" type="curve"/>
      <point x="112" y="-12"/>
      <point x="81" y="72"/>
      <point x="112" y="-12" type="curve"/>
      <point x="384" y="50"/>
      <point x="589" y="190"/>
      <point x="589" y="472" type="curve"/>
      <point x="589" y="638"/>
      <point x="482" y="732"/>
      <point x="312" y="732" type="curve"/>
      <point x="158" y="732"/>
      <point x="59" y="652"/>
      <point x="59" y="504" type="curve"/>
      <point x="59" y="359"/>
      <point x="158" y="285"/>
      <point x="308" y="285" type="curve"/>
      <point x="437" y="285"/>
      <point x="514" y="357"/>
      <point x="558" y="464" type="curve"/>
      <point x="506" y="489"/>
      <point x="558" y="464"/>
    </contour>
  </outline>
</glyph>
<glyph name="colon" format="1">
  <advance width="277"/>
  <unicode hex="003A"/>
  <outline>
    <contour>
      <point x="200" y="309" type="curve"/>
      <point x="200" y="345"/>
      <point x="174" y="363"/>
      <point x="138" y="363" type="curve"/>
      <point x="102" y="363"/>
      <point x="78" y="343"/>
      <point x="78" y="309" type="curve"/>
      <point x="195" y="309"/>
      <point x="82" y="309"/>
      <point x="200" y="309" type="curve"/>
      <point x="200" y="272"/>
      <point x="174" y="255"/>
      <point x="137" y="255" type="curve"/>
      <point x="101" y="255"/>
      <point x="78" y="273"/>
      <point x="78" y="309" type="curve"/>
      <point x="195" y="309"/>
      <point x="82" y="309"/>
    </contour>
    <contour>
      <point x="200" y="125" type="curve"/>
      <point x="200" y="161"/>
      <point x="173" y="179"/>
      <point x="137" y="179" type="curve"/>
      <point x="101" y="179"/>
      <point x="77" y="160"/>
      <point x="77" y="125" type="curve"/>
      <point x="195" y="125"/>
      <point x="82" y="125"/>
      <point x="200" y="125" type="curve"/>
      <point x="200" y="88"/>
      <point x="174" y="72"/>
      <point x="137" y="72" type="curve"/>
      <point x="101" y="72"/>
      <point x="77" y="90"/>
      <point x="77" y="125" type="curve"/>
      <point x="195" y="125"/>
      <point x="82" y="125"/>
    </contour>
  </outline>
</glyph>
<glyph name="semicolon" format="1">
  <advance width="303"/>
  <unicode hex="003B"/>
  <outline>
    <contour>
      <point x="79" y="-155" type="line"/>
      <point x="164" y="-146"/>
      <point x="223" y="-88"/>
      <point x="223" y="0" type="curve"/>
      <point x="223" y="62"/>
      <point x="195" y="105"/>
      <point x="150" y="105" type="curve"/>
      <point x="113" y="105"/>
      <point x="87" y="86"/>
      <point x="87" y="51" type="curve"/>
      <point x="87" y="18"/>
      <point x="109" y="-2"/>
      <point x="146" y="-4" type="curve"/>
      <point x="145" y="-37"/>
      <point x="134" y="-81"/>
      <point x="74" y="-97" type="curve"/>
    </contour>
    <contour>
      <point x="209" y="394" type="curve"/>
      <point x="209" y="430"/>
      <point x="183" y="448"/>
      <point x="147" y="448" type="curve"/>
      <point x="111" y="448"/>
      <point x="87" y="429"/>
      <point x="87" y="394" type="curve"/>
      <point x="205" y="394"/>
      <point x="92" y="394"/>
      <point x="209" y="394" type="curve"/>
      <point x="209" y="357"/>
      <point x="183" y="341"/>
      <point x="147" y="341" type="curve"/>
      <point x="111" y="341"/>
      <point x="87" y="359"/>
      <point x="87" y="394" type="curve"/>
      <point x="205" y="394"/>
      <point x="92" y="394"/>
    </contour>
  </outline>
</glyph>
<glyph name="less" format="1">
  <advance width="749"/>
  <unicode hex="003C"/>
  <outline>
    <contour>
      <point x="675" y="615" type="curve"/>
      <point x="463" y="525"/>
      <point x="252" y="435"/>
      <point x="40" y="345" type="curve"/>
      <point x="40" y="255"/>
      <point x="40" y="345"/>
      <point x="40" y="255" type="curve"/>
      <point x="252" y="345"/>
      <point x="463" y="435"/>
      <point x="675" y="525" type="curve"/>
      <point x="675" y="615"/>
      <point x="675" y="525"/>
    </contour>
    <contour>
      <point x="685" y="81" type="curve"/>
      <point x="470" y="169"/>
      <point x="255" y="257"/>
      <point x="40" y="345" type="curve"/>
      <point x="40" y="255"/>
      <point x="40" y="345"/>
      <point x="40" y="255" type="curve"/>
      <point x="255" y="167"/>
      <point x="470" y="79"/>
      <point x="685" y="-9" type="curve"/>
      <point x="685" y="81"/>
      <point x="685" y="-9"/>
    </contour>
  </outline>
</glyph>
<glyph name="equal" format="1">
  <advance width="818"/>
  <unicode hex="003D"/>
  <outline>
    <contour>
      <point x="81" y="175" type="curve"/>
      <point x="300" y="175"/>
      <point x="518" y="175"/>
      <point x="737" y="175" type="curve"/>
      <point x="737" y="260"/>
      <point x="737" y="175"/>
      <point x="737" y="260" type="curve"/>
      <point x="518" y="260"/>
      <point x="300" y="260"/>
      <point x="81" y="260" type="curve"/>
      <point x="81" y="175"/>
      <point x="81" y="260"/>
    </contour>
    <contour>
      <point x="81" y="397" type="curve"/>
      <point x="300" y="397"/>
      <point x="518" y="397"/>
      <point x="737" y="397" type="curve"/>
      <point x="737" y="482"/>
      <point x="737" y="397"/>
      <point x="737" y="482" type="curve"/>
      <point x="518" y="482"/>
      <point x="300" y="482"/>
      <point x="81" y="482" type="curve"/>
      <point x="81" y="397"/>
      <point x="81" y="482"/>
    </contour>
  </outline>
</glyph>
<glyph name="greater" format="1">
  <advance width="749"/>
  <unicode hex="003E"/>
  <outline>
    <contour>
      <point x="74" y="-9" type="curve"/>
      <point x="286" y="81"/>
      <point x="498" y="171"/>
      <point x="709" y="261" type="curve"/>
      <point x="709" y="351"/>
      <point x="709" y="261"/>
      <point x="709" y="351" type="curve"/>
      <point x="498" y="261"/>
      <point x="286" y="171"/>
      <point x="74" y="81" type="curve"/>
      <point x="74" y="-9"/>
      <point x="74" y="81"/>
    </contour>
    <contour>
      <point x="64" y="525" type="curve"/>
      <point x="279" y="437"/>
      <point x="494" y="349"/>
      <point x="709" y="261" type="curve"/>
      <point x="709" y="351"/>
      <point x="709" y="261"/>
      <point x="709" y="351" type="curve"/>
      <point x="494" y="439"/>
      <point x="279" y="527"/>
      <point x="64" y="615" type="curve"/>
      <point x="64" y="525"/>
      <point x="64" y="615"/>
    </contour>
  </outline>
</glyph>
<glyph name="question" format="1">
  <advance width="554"/>
  <unicode hex="003F"/>
  <outline>
    <contour>
      <point x="196" y="365" type="curve"/>
      <point x="196" y="328"/>
      <point x="196" y="258"/>
      <point x="196" y="221" type="curve"/>
      <point x="299" y="221"/>
      <point x="196" y="221"/>
      <point x="299" y="221" type="curve"/>
      <point x="299" y="258"/>
      <point x="299" y="328"/>
      <point x="299" y="365" type="curve"/>
      <point x="196" y="365"/>
      <point x="299" y="365"/>
    </contour>
    <contour>
      <point x="102" y="589" type="line"/>
      <point x="137" y="625"/>
      <point x="187" y="654"/>
      <point x="248" y="654" type="curve"/>
      <point x="337" y="654"/>
      <point x="398" y="606"/>
      <point x="398" y="519" type="curve"/>
      <point x="398" y="420"/>
      <point x="319" y="365"/>
      <point x="208" y="365" type="curve"/>
      <point x="208" y="333"/>
      <point x="207" y="317"/>
      <point x="207" y="285" type="curve"/>
      <point x="378" y="285"/>
      <point x="500" y="368"/>
      <point x="500" y="519" type="curve"/>
      <point x="500" y="660"/>
      <point x="397" y="739"/>
      <point x="253" y="739" type="curve"/>
      <point x="166" y="739"/>
      <point x="99" y="708"/>
      <point x="46" y="653" type="curve"/>
    </contour>
    <contour>
      <point x="309" y="29" type="curve"/>
      <point x="309" y="65"/>
      <point x="283" y="82"/>
      <point x="248" y="82" type="curve"/>
      <point x="212" y="82"/>
      <point x="189" y="63"/>
      <point x="189" y="29" type="curve"/>
      <point x="309" y="29"/>
      <point x="189" y="29"/>
      <point x="309" y="29" type="curve"/>
      <point x="309" y="-7"/>
      <point x="284" y="-23"/>
      <point x="248" y="-23" type="curve"/>
      <point x="212" y="-23"/>
      <point x="189" y="-6"/>
      <point x="189" y="29" type="curve"/>
      <point x="309" y="29"/>
      <point x="189" y="29"/>
    </contour>
  </outline>
</glyph>
<glyph name="at" format="1">
  <advance width="900"/>
  <unicode hex="0040"/>
  <outline>
    <contour>
      <point x="615" y="-30" type="curve"/>
      <point x="561" y="-54"/>
      <point x="522" y="-62"/>
      <point x="465" y="-62" type="curve"/>
      <point x="277" y="-62"/>
      <point x="153" y="30"/>
      <point x="153" y="211" type="curve"/>
      <point x="153" y="388"/>
      <point x="275" y="475"/>
      <point x="458" y="475" type="curve"/>
      <point x="632" y="475"/>
      <point x="745" y="384"/>
      <point x="745" y="215" type="curve"/>
      <point x="745" y="155"/>
      <point x="737" y="105"/>
      <point x="695" y="105" type="curve"/>
      <point x="650" y="105"/>
      <point x="638" y="153"/>
      <point x="638" y="216" type="curve"/>
      <point x="638" y="333"/>
      <point x="567" y="403"/>
      <point x="449" y="403" type="curve"/>
      <point x="321" y="403"/>
      <point x="246" y="337"/>
      <point x="246" y="213" type="curve"/>
      <point x="246" y="89"/>
      <point x="314" y="16"/>
      <point x="438" y="16" type="curve"/>
      <point x="547" y="16"/>
      <point x="603" y="86"/>
      <point x="622" y="199" type="curve"/>
      <point x="555" y="215"/>
      <point x="622" y="199"/>
      <point x="555" y="215" type="curve"/>
      <point x="537" y="148"/>
      <point x="516" y="97"/>
      <point x="451" y="97" type="curve"/>
      <point x="381" y="97"/>
      <point x="345" y="143"/>
      <point x="345" y="217" type="curve"/>
      <point x="345" y="283"/>
      <point x="378" y="321"/>
      <point x="441" y="321" type="curve"/>
      <point x="509" y="321"/>
      <point x="541" y="280"/>
      <point x="541" y="212" type="curve"/>
      <point x="541" y="104"/>
      <point x="584" y="28"/>
      <point x="686" y="28" type="curve"/>
      <point x="794" y="28"/>
      <point x="841" y="105"/>
      <point x="841" y="219" type="curve"/>
      <point x="841" y="442"/>
      <point x="693" y="560"/>
      <point x="463" y="560" type="curve"/>
      <point x="216" y="560"/>
      <point x="55" y="443"/>
      <point x="55" y="207" type="curve"/>
      <point x="55" y="-27"/>
      <point x="216" y="-143"/>
      <point x="460" y="-143" type="curve"/>
      <point x="538" y="-143"/>
      <point x="593" y="-130"/>
      <point x="653" y="-99" type="curve"/>
      <point x="615" y="-30"/>
      <point x="653" y="-99"/>
    </contour>
  </outline>
</glyph>
<glyph name="A" format="1">
  <advance width="839"/>
  <unicode hex="0041"/>
  <outline>
    <contour>
      <point x="122" y="81" type="curve"/>
      <point x="-17" y="81"/>
      <point x="129" y="81"/>
      <point x="-11" y="81" type="curve"/>
      <point x="-11" y="0"/>
      <point x="-11" y="81"/>
      <point x="-11" y="0" type="curve"/>
      <point x="36" y="0"/>
      <point x="76" y="0"/>
      <point x="122" y="0" type="curve"/>
      <point x="122" y="81"/>
      <point x="122" y="0"/>
    </contour>
    <contour>
      <point x="122" y="0" type="curve"/>
      <point x="180" y="0"/>
      <point x="119" y="0"/>
      <point x="293" y="0" type="curve"/>
      <point x="293" y="81"/>
      <point x="293" y="0"/>
      <point x="293" y="81" type="curve"/>
      <point x="119" y="81"/>
      <point x="296" y="81"/>
      <point x="122" y="81" type="curve"/>
      <point x="122" y="0"/>
      <point x="122" y="81"/>
    </contour>
    <contour>
      <point x="693" y="0" type="curve"/>
      <point x="739" y="0"/>
      <point x="779" y="0"/>
      <point x="826" y="0" type="curve"/>
      <point x="826" y="81"/>
      <point x="826" y="0"/>
      <point x="826" y="81" type="curve"/>
      <point x="686" y="81"/>
      <point x="832" y="81"/>
      <point x="693" y="81" type="curve"/>
      <point x="693" y="0"/>
      <point x="693" y="81"/>
    </contour>
    <contour>
      <point x="693" y="81" type="curve"/>
      <point x="519" y="81"/>
      <point x="696" y="81"/>
      <point x="522" y="81" type="curve"/>
      <point x="522" y="0"/>
      <point x="522" y="81"/>
      <point x="522" y="0" type="curve"/>
      <point x="580" y="0"/>
      <point x="635" y="0"/>
      <point x="693" y="0" type="curve"/>
      <point x="693" y="81"/>
      <point x="693" y="0"/>
    </contour>
    <contour>
      <point x="585" y="296" type="curve"/>
      <point x="474" y="296"/>
      <point x="362" y="296"/>
      <point x="250" y="296" type="curve"/>
      <point x="206" y="210"/>
      <point x="250" y="296"/>
      <point x="206" y="210" type="curve"/>
      <point x="344" y="210"/>
      <point x="482" y="210"/>
      <point x="619" y="210" type="curve"/>
      <point x="585" y="296"/>
      <point x="619" y="210"/>
    </contour>
    <contour>
      <point x="760" y="0" type="curve"/>
      <point x="666" y="241"/>
      <point x="568" y="481"/>
      <point x="473" y="722" type="curve"/>
      <point x="376" y="722"/>
      <point x="473" y="722"/>
      <point x="376" y="722" type="curve"/>
      <point x="469" y="482"/>
      <point x="556" y="240"/>
      <point x="649" y="0" type="curve"/>
      <point x="760" y="0"/>
      <point x="649" y="0"/>
    </contour>
    <contour>
      <point x="168" y="0" type="curve"/>
      <point x="271" y="240"/>
      <point x="368" y="482"/>
      <point x="471" y="722" type="curve"/>
      <point x="374" y="722"/>
      <point x="471" y="722"/>
      <point x="374" y="722" type="curve"/>
      <point x="269" y="480"/>
      <point x="157" y="242"/>
      <point x="52" y="0" type="curve"/>
      <point x="168" y="0"/>
      <point x="52" y="0"/>
    </contour>
    <contour>
      <point x="422" y="796" type="move" name="top"/>
    </contour>
    <contour>
      <point x="735" y="4" type="move" name="bottom"/>
    </contour>
  </outline>
</glyph>
<glyph name="B" format="1">
  <advance width="731"/>
  <unicode hex="0042"/>
  <outline>
    <contour>
      <point x="208" y="722" type="curve"/>
      <point x="157" y="722"/>
      <point x="111" y="722"/>
      <point x="61" y="722" type="curve"/>
      <point x="61" y="641"/>
      <point x="61" y="722"/>
      <point x="61" y="641" type="curve"/>
      <point x="211" y="641"/>
      <point x="57" y="641"/>
      <point x="208" y="641" type="curve"/>
      <point x="208" y="722"/>
      <point x="208" y="641"/>
    </contour>
    <contour>
      <point x="207" y="81" type="curve"/>
      <point x="56" y="81"/>
      <point x="210" y="81"/>
      <point x="60" y="81" type="curve"/>
      <point x="60" y="0"/>
      <point x="60" y="81"/>
      <point x="60" y="0" type="curve"/>
      <point x="110" y="0"/>
      <point x="157" y="0"/>
      <point x="207" y="0" type="curve"/>
      <point x="207" y="81"/>
      <point x="207" y="0"/>
    </contour>
    <contour>
      <point x="196" y="641" type="curve"/>
      <point x="269" y="641"/>
      <point x="334" y="641"/>
      <point x="407" y="641" type="curve"/>
      <point x="476" y="641"/>
      <point x="521" y="606"/>
      <point x="521" y="540" type="curve"/>
      <point x="521" y="473"/>
      <point x="462" y="446"/>
      <point x="391" y="446" type="curve"/>
      <point x="324" y="446"/>
      <point x="264" y="446"/>
      <point x="196" y="446" type="curve"/>
      <point x="196" y="388"/>
      <point x="196" y="423"/>
      <point x="196" y="365" type="curve"/>
      <point x="248" y="365"/>
      <point x="294" y="365"/>
      <point x="346" y="365" type="curve"/>
      <point x="470" y="365"/>
      <point x="627" y="403"/>
      <point x="627" y="538" type="curve"/>
      <point x="627" y="661"/>
      <point x="540" y="722"/>
      <point x="410" y="722" type="curve"/>
      <point x="336" y="722"/>
      <point x="270" y="722"/>
      <point x="196" y="722" type="curve"/>
      <point x="196" y="664"/>
      <point x="196" y="699"/>
    </contour>
    <contour>
      <point x="263" y="0" type="curve"/>
      <point x="263" y="241"/>
      <point x="263" y="481"/>
      <point x="263" y="722" type="curve"/>
      <point x="151" y="722"/>
      <point x="263" y="722"/>
      <point x="151" y="722" type="curve"/>
      <point x="151" y="481"/>
      <point x="152" y="241"/>
      <point x="151" y="0" type="curve"/>
      <point x="263" y="0"/>
      <point x="151" y="0"/>
    </contour>
    <contour>
      <point x="196" y="365" type="curve"/>
      <point x="264" y="365"/>
      <point x="324" y="365"/>
      <point x="391" y="365" type="curve"/>
      <point x="497" y="365"/>
      <point x="570" y="319"/>
      <point x="570" y="219" type="curve"/>
      <point x="570" y="126"/>
      <point x="506" y="81"/>
      <point x="407" y="81" type="curve"/>
      <point x="334" y="81"/>
      <point x="269" y="81"/>
      <point x="196" y="81" type="curve"/>
      <point x="196" y="23"/>
      <point x="196" y="58"/>
      <point x="196" y="0" type="curve"/>
      <point x="270" y="0"/>
      <point x="336" y="0"/>
      <point x="410" y="0" type="curve"/>
      <point x="569" y="0"/>
      <point x="677" y="69"/>
      <point x="677" y="218" type="curve"/>
      <point x="677" y="388"/>
      <point x="507" y="446"/>
      <point x="346" y="446" type="curve"/>
      <point x="294" y="446"/>
      <point x="248" y="446"/>
      <point x="196" y="446" type="curve"/>
      <point x="196" y="388"/>
      <point x="196" y="423"/>
    </contour>
  </outline>
</glyph>
<glyph name="C" format="1">
  <advance width="753"/>
  <unicode hex="0043"/>
  <outline>
    <contour>
      <point x="609" y="654" type="curve"/>
      <point x="609" y="534"/>
      <point x="609" y="637"/>
      <point x="609" y="517" type="curve"/>
      <point x="693" y="517"/>
      <point x="609" y="517"/>
      <point x="693" y="517" type="curve"/>
      <point x="693" y="637"/>
      <point x="693" y="534"/>
      <point x="693" y="654" type="curve"/>
      <point x="609" y="654"/>
      <point x="693" y="654"/>
    </contour>
    <contour>
      <point x="693" y="654" type="curve"/>
      <point x="616" y="696"/>
      <point x="531" y="727"/>
      <point x="435" y="727" type="curve"/>
      <point x="198" y="727"/>
      <point x="59" y="586"/>
      <point x="59" y="344" type="curve"/>
      <point x="59" y="122"/>
      <point x="189" y="-5"/>
      <point x="412" y="-5" type="curve"/>
      <point x="537" y="-5"/>
      <point x="616" y="27"/>
      <point x="704" y="94" type="curve"/>
      <point x="653" y="160"/>
      <point x="703" y="94"/>
      <point x="652" y="160" type="curve"/>
      <point x="574" y="105"/>
      <point x="510" y="81"/>
      <point x="416" y="81" type="curve"/>
      <point x="253" y="81"/>
      <point x="166" y="182"/>
      <point x="166" y="348" type="curve"/>
      <point x="166" y="529"/>
      <point x="257" y="642"/>
      <point x="431" y="642" type="curve"/>
      <point x="506" y="642"/>
      <point x="575" y="623"/>
      <point x="635" y="590" type="curve"/>
      <point x="693" y="654"/>
      <point x="635" y="590"/>
    </contour>
    <contour>
      <point x="426" y="796" type="move" name="top"/>
    </contour>
    <contour>
      <point x="437" y="5" type="move" name="bottom"/>
    </contour>
  </outline>
</glyph>
<glyph name="D" format="1">
  <advance width="845"/>
  <unicode hex="0044"/>
  <outline>
    <contour>
      <point x="209" y="81" type="curve"/>
      <point x="58" y="81"/>
      <point x="212" y="81"/>
      <point x="61" y="81" type="curve"/>
      <point x="61" y="0"/>
      <point x="61" y="81"/>
      <point x="61" y="0" type="curve"/>
      <point x="111" y="0"/>
      <point x="159" y="0"/>
      <point x="209" y="0" type="curve"/>
      <point x="209" y="81"/>
      <point x="209" y="0"/>
    </contour>
    <contour>
      <point x="209" y="722" type="curve"/>
      <point x="159" y="722"/>
      <point x="111" y="722"/>
      <point x="61" y="722" type="curve"/>
      <point x="61" y="641"/>
      <point x="61" y="722"/>
      <point x="61" y="641" type="curve"/>
      <point x="212" y="641"/>
      <point x="58" y="641"/>
      <point x="209" y="641" type="curve"/>
      <point x="209" y="722"/>
      <point x="209" y="641"/>
    </contour>
    <contour>
      <point x="154" y="722" type="curve"/>
      <point x="154" y="481"/>
      <point x="154" y="241"/>
      <point x="154" y="0" type="curve"/>
      <point x="260" y="0"/>
      <point x="154" y="0"/>
      <point x="260" y="0" type="curve"/>
      <point x="260" y="241"/>
      <point x="260" y="481"/>
      <point x="260" y="722" type="curve"/>
      <point x="154" y="722"/>
      <point x="260" y="722"/>
    </contour>
    <contour>
      <point x="209" y="0" type="curve"/>
      <point x="277" y="0"/>
      <point x="342" y="0"/>
      <point x="410" y="0" type="curve"/>
      <point x="651" y="0"/>
      <point x="787" y="118"/>
      <point x="787" y="354" type="curve"/>
      <point x="787" y="598"/>
      <point x="650" y="722"/>
      <point x="402" y="722" type="curve"/>
      <point x="337" y="722"/>
      <point x="274" y="722"/>
      <point x="209" y="722" type="curve"/>
      <point x="209" y="643"/>
      <point x="209" y="720"/>
      <point x="209" y="641" type="curve"/>
      <point x="273" y="641"/>
      <point x="334" y="641"/>
      <point x="397" y="641" type="curve"/>
      <point x="586" y="641"/>
      <point x="681" y="539"/>
      <point x="681" y="351" type="curve"/>
      <point x="681" y="176"/>
      <point x="593" y="81"/>
      <point x="419" y="81" type="curve"/>
      <point x="348" y="81"/>
      <point x="280" y="81"/>
      <point x="209" y="81" type="curve"/>
      <point x="209" y="2"/>
      <point x="209" y="79"/>
    </contour>
    <contour>
      <point x="386" y="796" type="move" name="top"/>
    </contour>
  </outline>
</glyph>
<glyph name="F" format="1">
  <advance width="660"/>
  <unicode hex="0046"/>
  <outline>
    <contour>
      <point x="208" y="0" type="curve"/>
      <point x="258" y="0"/>
      <point x="208" y="0"/>
      <point x="359" y="0" type="curve"/>
      <point x="359" y="81"/>
      <point x="359" y="0"/>
      <point x="359" y="81" type="curve"/>
      <point x="208" y="81"/>
      <point x="359" y="81"/>
      <point x="208" y="81" type="curve"/>
      <point x="208" y="0"/>
      <point x="208" y="81"/>
    </contour>
    <contour>
      <point x="208" y="722" type="curve"/>
      <point x="158" y="722"/>
      <point x="110" y="722"/>
      <point x="60" y="722" type="curve"/>
      <point x="60" y="641"/>
      <point x="60" y="722"/>
      <point x="60" y="641" type="curve"/>
      <point x="211" y="641"/>
      <point x="56" y="641"/>
      <point x="208" y="641" type="curve"/>
      <point x="208" y="722"/>
      <point x="208" y="641"/>
    </contour>
    <contour>
      <point x="208" y="81" type="curve"/>
      <point x="56" y="81"/>
      <point x="211" y="81"/>
      <point x="60" y="81" type="curve"/>
      <point x="60" y="0"/>
      <point x="60" y="81"/>
      <point x="60" y="0" type="curve"/>
      <point x="110" y="0"/>
      <point x="158" y="0"/>
      <point x="208" y="0" type="curve"/>
      <point x="208" y="81"/>
      <point x="208" y="0"/>
    </contour>
    <contour>
      <point x="540" y="682" type="curve"/>
      <point x="540" y="562"/>
      <point x="540" y="683"/>
      <point x="540" y="563" type="curve"/>
      <point x="624" y="563"/>
      <point x="540" y="563"/>
      <point x="624" y="563" type="curve"/>
      <point x="624" y="683"/>
      <point x="624" y="562"/>
      <point x="624" y="682" type="curve"/>
      <point x="540" y="682"/>
      <point x="624" y="682"/>
    </contour>
    <contour>
      <point x="212" y="332" type="curve"/>
      <point x="324" y="332"/>
      <point x="436" y="332"/>
      <point x="548" y="332" type="curve"/>
      <point x="548" y="414"/>
      <point x="548" y="332"/>
      <point x="548" y="414" type="curve"/>
      <point x="436" y="414"/>
      <point x="324" y="414"/>
      <point x="212" y="414" type="curve"/>
      <point x="212" y="332"/>
      <point x="212" y="414"/>
    </contour>
    <contour>
      <point x="261" y="0" type="curve"/>
      <point x="261" y="722" type="line"/>
      <point x="155" y="722"/>
      <point x="261" y="722"/>
      <point x="155" y="722" type="curve"/>
      <point x="155" y="481"/>
      <point x="155" y="241"/>
      <point x="155" y="0" type="curve"/>
      <point x="261" y="0"/>
      <point x="155" y="0"/>
    </contour>
    <contour>
      <point x="196" y="641" type="curve"/>
      <point x="339" y="641"/>
      <point x="481" y="641"/>
      <point x="624" y="641" type="curve"/>
      <point x="624" y="722"/>
      <point x="624" y="641"/>
      <point x="624" y="722" type="curve"/>
      <point x="481" y="722"/>
      <point x="339" y="722"/>
      <point x="196" y="722" type="curve"/>
      <point x="196" y="641"/>
      <point x="196" y="722"/>
    </contour>
  </outline>
</glyph>
<glyph name="G" format="1">
  <advance width="837"/>
  <unicode hex="0047"/>
  <outline>
    <contour>
      <point x="667" y="644" type="curve"/>
      <point x="667" y="518"/>
      <point x="667" y="632"/>
      <point x="667" y="506" type="curve"/>
      <point x="750" y="506"/>
      <point x="667" y="506"/>
      <point x="750" y="506" type="curve"/>
      <point x="750" y="632"/>
      <point x="750" y="518"/>
      <point x="750" y="644" type="curve"/>
      <point x="667" y="644"/>
      <point x="750" y="644"/>
    </contour>
    <contour>
      <point x="739" y="353" type="curve"/>
      <point x="663" y="353"/>
      <point x="586" y="353"/>
      <point x="510" y="353" type="curve"/>
      <point x="510" y="272"/>
      <point x="510" y="353"/>
      <point x="510" y="272" type="curve"/>
      <point x="586" y="272"/>
      <point x="663" y="272"/>
      <point x="739" y="272" type="curve"/>
      <point x="739" y="353"/>
      <point x="739" y="272"/>
    </contour>
    <contour>
      <point x="768" y="78" type="curve"/>
      <point x="768" y="170"/>
      <point x="768" y="261"/>
      <point x="768" y="353" type="curve"/>
      <point x="671" y="353"/>
      <point x="768" y="353"/>
      <point x="671" y="353" type="curve"/>
      <point x="671" y="261"/>
      <point x="671" y="170"/>
      <point x="671" y="78" type="curve"/>
      <point x="768" y="78"/>
      <point x="671" y="78"/>
    </contour>
    <contour>
      <point x="750" y="644" type="curve"/>
      <point x="650" y="702"/>
      <point x="558" y="727"/>
      <point x="442" y="727" type="curve"/>
      <point x="203" y="727"/>
      <point x="58" y="598"/>
      <point x="58" y="361" type="curve"/>
      <point x="58" y="121"/>
      <point x="210" y="-5"/>
      <point x="453" y="-5" type="curve"/>
      <point x="578" y="-5"/>
      <point x="658" y="23"/>
      <point x="768" y="78" type="curve"/>
      <point x="714" y="139"/>
      <point x="768" y="78"/>
      <point x="714" y="139" type="curve"/>
      <point x="627" y="96"/>
      <point x="555" y="80"/>
      <point x="453" y="80" type="curve"/>
      <point x="269" y="80"/>
      <point x="165" y="184"/>
      <point x="165" y="370" type="curve"/>
      <point x="165" y="544"/>
      <point x="267" y="642"/>
      <point x="442" y="642" type="curve"/>
      <point x="538" y="642"/>
      <point x="613" y="622"/>
      <point x="697" y="575" type="curve"/>
      <point x="750" y="644"/>
      <point x="697" y="575"/>
    </contour>
    <contour>
      <point x="441" y="796" type="move" name="top"/>
    </contour>
    <contour>
      <point x="485" y="-7" type="move" name="bottom"/>
    </contour>
  </outline>
</glyph>
<glyph name="H" format="1">
  <advance width="904"/>
  <unicode hex="0048"/>
  <outline>
    <contour>
      <point x="715" y="641" type="curve"/>
      <point x="877" y="641"/>
      <point x="701" y="641"/>
      <point x="863" y="641" type="curve"/>
      <point x="863" y="722"/>
      <point x="863" y="641"/>
      <point x="863" y="722" type="curve"/>
      <point x="809" y="722"/>
      <point x="769" y="722"/>
      <point x="715" y="722" type="curve"/>
      <point x="715" y="641"/>
      <point x="715" y="722"/>
    </contour>
    <contour>
      <point x="715" y="0" type="curve"/>
      <point x="769" y="0"/>
      <point x="809" y="0"/>
      <point x="863" y="0" type="curve"/>
      <point x="863" y="81"/>
      <point x="863" y="0"/>
      <point x="863" y="81" type="curve"/>
      <point x="701" y="81"/>
      <point x="877" y="81"/>
      <point x="715" y="81" type="curve"/>
      <point x="715" y="0"/>
      <point x="715" y="81"/>
    </contour>
    <contour>
      <point x="715" y="81" type="curve"/>
      <point x="553" y="81"/>
      <point x="728" y="81"/>
      <point x="567" y="81" type="curve"/>
      <point x="567" y="0"/>
      <point x="567" y="81"/>
      <point x="567" y="0" type="curve"/>
      <point x="621" y="0"/>
      <point x="661" y="0"/>
      <point x="715" y="0" type="curve"/>
      <point x="715" y="81"/>
      <point x="715" y="0"/>
    </contour>
    <contour>
      <point x="715" y="722" type="curve"/>
      <point x="661" y="722"/>
      <point x="621" y="722"/>
      <point x="567" y="722" type="curve"/>
      <point x="567" y="641"/>
      <point x="567" y="722"/>
      <point x="567" y="641" type="curve"/>
      <point x="728" y="641"/>
      <point x="553" y="641"/>
      <point x="715" y="641" type="curve"/>
      <point x="715" y="722"/>
      <point x="715" y="641"/>
    </contour>
    <contour>
      <point x="190" y="641" type="curve"/>
      <point x="352" y="641"/>
      <point x="177" y="641"/>
      <point x="339" y="641" type="curve"/>
      <point x="339" y="722"/>
      <point x="339" y="641"/>
      <point x="339" y="722" type="curve"/>
      <point x="285" y="722"/>
      <point x="244" y="722"/>
      <point x="190" y="722" type="curve"/>
      <point x="190" y="641"/>
      <point x="190" y="722"/>
    </contour>
    <contour>
      <point x="190" y="722" type="curve"/>
      <point x="137" y="722"/>
      <point x="96" y="722"/>
      <point x="42" y="722" type="curve"/>
      <point x="42" y="641"/>
      <point x="42" y="722"/>
      <point x="42" y="641" type="curve"/>
      <point x="204" y="641"/>
      <point x="29" y="641"/>
      <point x="190" y="641" type="curve"/>
      <point x="190" y="722"/>
      <point x="190" y="641"/>
    </contour>
    <contour>
      <point x="190" y="0" type="curve"/>
      <point x="244" y="0"/>
      <point x="177" y="0"/>
      <point x="339" y="0" type="curve"/>
      <point x="339" y="81"/>
      <point x="339" y="0"/>
      <point x="339" y="81" type="curve"/>
      <point x="177" y="81"/>
      <point x="352" y="81"/>
      <point x="190" y="81" type="curve"/>
      <point x="190" y="0"/>
      <point x="190" y="81"/>
    </contour>
    <contour>
      <point x="190" y="81" type="curve"/>
      <point x="29" y="81"/>
      <point x="204" y="81"/>
      <point x="42" y="81" type="curve"/>
      <point x="42" y="0"/>
      <point x="42" y="81"/>
      <point x="42" y="0" type="curve"/>
      <point x="96" y="0"/>
      <point x="137" y="0"/>
      <point x="190" y="0" type="curve"/>
      <point x="190" y="81"/>
      <point x="190" y="0"/>
    </contour>
    <contour>
      <point x="244" y="0" type="curve"/>
      <point x="244" y="722" type="line"/>
      <point x="137" y="722"/>
      <point x="244" y="722"/>
      <point x="137" y="722" type="curve"/>
      <point x="137" y="481"/>
      <point x="137" y="241"/>
      <point x="137" y="0" type="curve"/>
      <point x="244" y="0"/>
      <point x="137" y="0"/>
    </contour>
    <contour>
      <point x="712" y="403" type="curve"/>
      <point x="538" y="403"/>
      <point x="364" y="403"/>
      <point x="190" y="403" type="curve"/>
      <point x="190" y="322"/>
      <point x="190" y="403"/>
      <point x="190" y="322" type="curve"/>
      <point x="364" y="322"/>
      <point x="538" y="322"/>
      <point x="712" y="322" type="curve"/>
      <point x="712" y="403"/>
      <point x="712" y="322"/>
    </contour>
    <contour>
      <point x="767" y="32" type="curve"/>
      <point x="767" y="251"/>
      <point x="767" y="471"/>
      <point x="767" y="690" type="curve"/>
      <point x="661" y="690"/>
      <point x="767" y="690"/>
      <point x="661" y="690" type="curve"/>
      <point x="661" y="32" type="line"/>
      <point x="767" y="32"/>
      <point x="661" y="32"/>
    </contour>
  </outline>
</glyph>
<glyph name="J" format="1">
  <advance width="500"/>
  <unicode hex="004A"/>
  <outline>
    <contour>
      <point x="331" y="722" type="curve"/>
      <point x="279" y="722"/>
      <point x="239" y="722"/>
      <point x="186" y="722" type="curve"/>
      <point x="186" y="641"/>
      <point x="186" y="722"/>
      <point x="186" y="641" type="curve"/>
      <point x="345" y="641"/>
      <point x="173" y="641"/>
      <point x="331" y="641" type="curve"/>
      <point x="331" y="722"/>
      <point x="331" y="641"/>
    </contour>
    <contour>
      <point x="331" y="641" type="curve"/>
      <point x="488" y="641"/>
      <point x="318" y="641"/>
      <point x="475" y="641" type="curve"/>
      <point x="475" y="722"/>
      <point x="475" y="641"/>
      <point x="475" y="722" type="curve"/>
      <point x="423" y="722"/>
      <point x="383" y="722"/>
      <point x="331" y="722" type="curve"/>
      <point x="331" y="641"/>
      <point x="331" y="722"/>
    </contour>
    <contour>
      <point x="8" y="43" type="curve"/>
      <point x="43" y="21"/>
      <point x="91" y="-4"/>
      <point x="151" y="-4" type="curve"/>
      <point x="301" y="-4"/>
      <point x="384" y="78"/>
      <point x="384" y="236" type="curve"/>
      <point x="384" y="401"/>
      <point x="384" y="557"/>
      <point x="384" y="722" type="curve"/>
      <point x="279" y="722"/>
      <point x="381" y="722"/>
      <point x="277" y="722" type="curve"/>
      <point x="277" y="557"/>
      <point x="277" y="401"/>
      <point x="277" y="236" type="curve"/>
      <point x="277" y="141"/>
      <point x="240" y="78"/>
      <point x="151" y="78" type="curve"/>
      <point x="113" y="78"/>
      <point x="88" y="92"/>
      <point x="57" y="108" type="curve"/>
      <point x="10" y="45"/>
      <point x="56" y="106"/>
    </contour>
  </outline>
</glyph>
<glyph name="L" format="1">
  <advance width="656"/>
  <unicode hex="004C"/>
  <outline>
    <contour>
      <point x="630" y="40" type="curve"/>
      <point x="630" y="160"/>
      <point x="630" y="39"/>
      <point x="630" y="159" type="curve"/>
      <point x="546" y="159"/>
      <point x="630" y="159"/>
      <point x="546" y="159" type="curve"/>
      <point x="546" y="39"/>
      <point x="546" y="160"/>
      <point x="546" y="40" type="curve"/>
      <point x="630" y="40"/>
      <point x="546" y="40"/>
    </contour>
    <contour>
      <point x="190" y="81" type="curve"/>
      <point x="28" y="81"/>
      <point x="204" y="81"/>
      <point x="42" y="81" type="curve"/>
      <point x="42" y="0"/>
      <point x="42" y="81"/>
      <point x="42" y="0" type="curve"/>
      <point x="95" y="0"/>
      <point x="136" y="0"/>
      <point x="190" y="0" type="curve"/>
      <point x="190" y="81"/>
      <point x="190" y="0"/>
    </contour>
    <contour>
      <point x="190" y="722" type="curve"/>
      <point x="136" y="722"/>
      <point x="95" y="722"/>
      <point x="42" y="722" type="curve"/>
      <point x="42" y="641"/>
      <point x="42" y="722"/>
      <point x="42" y="641" type="curve"/>
      <point x="204" y="641"/>
      <point x="28" y="641"/>
      <point x="190" y="641" type="curve"/>
      <point x="190" y="722"/>
      <point x="190" y="641"/>
    </contour>
    <contour>
      <point x="190" y="641" type="curve"/>
      <point x="352" y="641"/>
      <point x="176" y="641"/>
      <point x="338" y="641" type="curve"/>
      <point x="338" y="722"/>
      <point x="338" y="641"/>
      <point x="338" y="722" type="curve"/>
      <point x="284" y="722"/>
      <point x="243" y="722"/>
      <point x="190" y="722" type="curve"/>
      <point x="190" y="641"/>
      <point x="190" y="722"/>
    </contour>
    <contour>
      <point x="244" y="0" type="curve"/>
      <point x="244" y="241"/>
      <point x="244" y="481"/>
      <point x="244" y="722" type="curve"/>
      <point x="138" y="722"/>
      <point x="244" y="722"/>
      <point x="138" y="722" type="curve"/>
      <point x="138" y="481"/>
      <point x="138" y="241"/>
      <point x="138" y="0" type="curve"/>
      <point x="244" y="0"/>
      <point x="138" y="0"/>
    </contour>
    <contour>
      <point x="190" y="0" type="curve"/>
      <point x="337" y="0"/>
      <point x="483" y="0"/>
      <point x="630" y="0" type="curve"/>
      <point x="630" y="81"/>
      <point x="630" y="0"/>
      <point x="630" y="81" type="curve"/>
      <point x="483" y="81"/>
      <point x="337" y="81"/>
      <point x="190" y="81" type="curve"/>
      <point x="190" y="0"/>
      <point x="190" y="81"/>
    </contour>
    <contour>
      <point x="191" y="796" type="move" name="top"/>
    </contour>
    <contour>
      <point x="380" y="-9" type="move" name="bottom"/>
    </contour>
  </outline>
</glyph>
<glyph name="M" format="1">
  <advance width="1045"/>
  <unicode hex="004D"/>
  <outline>
    <contour>
      <point x="879" y="0" type="curve"/>
      <point x="932" y="0"/>
      <point x="971" y="0"/>
      <point x="1024" y="0" type="curve"/>
      <point x="1024" y="81"/>
      <point x="1024" y="0"/>
      <point x="1024" y="81" type="curve"/>
      <point x="866" y="81"/>
      <point x="1038" y="81"/>
      <point x="879" y="81" type="curve"/>
      <point x="879" y="0"/>
      <point x="879" y="81"/>
    </contour>
    <contour>
      <point x="879" y="81" type="curve"/>
      <point x="723" y="81"/>
      <point x="893" y="81"/>
      <point x="737" y="81" type="curve"/>
      <point x="737" y="0"/>
      <point x="737" y="81"/>
      <point x="737" y="0" type="curve"/>
      <point x="789" y="0"/>
      <point x="827" y="0"/>
      <point x="879" y="0" type="curve"/>
      <point x="879" y="81"/>
      <point x="879" y="0"/>
    </contour>
    <contour>
      <point x="168" y="81" type="curve"/>
      <point x="9" y="81"/>
      <point x="182" y="81"/>
      <point x="23" y="81" type="curve"/>
      <point x="23" y="0"/>
      <point x="23" y="81"/>
      <point x="23" y="0" type="curve"/>
      <point x="76" y="0"/>
      <point x="115" y="0"/>
      <point x="168" y="0" type="curve"/>
      <point x="168" y="81"/>
      <point x="168" y="0"/>
    </contour>
    <contour>
      <point x="226" y="722" type="curve"/>
      <point x="173" y="722"/>
      <point x="134" y="722"/>
      <point x="81" y="722" type="curve"/>
      <point x="81" y="641"/>
      <point x="81" y="722"/>
      <point x="81" y="641" type="curve"/>
      <point x="240" y="641"/>
      <point x="67" y="641"/>
      <point x="226" y="641" type="curve"/>
      <point x="226" y="722"/>
      <point x="226" y="641"/>
    </contour>
    <contour>
      <point x="819" y="641" type="curve"/>
      <point x="978" y="641"/>
      <point x="806" y="641"/>
      <point x="964" y="641" type="curve"/>
      <point x="964" y="722"/>
      <point x="964" y="641"/>
      <point x="964" y="722" type="curve"/>
      <point x="911" y="722"/>
      <point x="872" y="722"/>
      <point x="819" y="722" type="curve"/>
      <point x="819" y="641"/>
      <point x="819" y="722"/>
    </contour>
    <contour>
      <point x="168" y="0" type="curve"/>
      <point x="220" y="0"/>
      <point x="155" y="0"/>
      <point x="310" y="0" type="curve"/>
      <point x="310" y="81"/>
      <point x="310" y="0"/>
      <point x="310" y="81" type="curve"/>
      <point x="155" y="81"/>
      <point x="324" y="81"/>
      <point x="168" y="81" type="curve"/>
      <point x="168" y="0"/>
      <point x="168" y="81"/>
    </contour>
    <contour>
      <point x="938" y="0" type="curve"/>
      <point x="916" y="241"/>
      <point x="891" y="481"/>
      <point x="869" y="722" type="curve"/>
      <point x="772" y="722"/>
      <point x="869" y="722"/>
      <point x="772" y="722" type="curve"/>
      <point x="793" y="481"/>
      <point x="810" y="241"/>
      <point x="831" y="0" type="curve"/>
      <point x="938" y="0"/>
      <point x="831" y="0"/>
    </contour>
    <contour>
      <point x="214" y="0" type="curve"/>
      <point x="234" y="241"/>
      <point x="253" y="481"/>
      <point x="273" y="722" type="curve"/>
      <point x="175" y="722"/>
      <point x="273" y="722"/>
      <point x="175" y="722" type="curve"/>
      <point x="154" y="481"/>
      <point x="134" y="241"/>
      <point x="113" y="0" type="curve"/>
      <point x="214" y="0"/>
      <point x="113" y="0"/>
    </contour>
    <contour>
      <point x="569" y="0" type="curve"/>
      <point x="472" y="241"/>
      <point x="374" y="481"/>
      <point x="276" y="722" type="curve"/>
      <point x="177" y="722"/>
      <point x="275" y="722"/>
      <point x="177" y="722" type="curve"/>
      <point x="274" y="481"/>
      <point x="372" y="241"/>
      <point x="469" y="0" type="curve"/>
      <point x="569" y="0"/>
      <point x="469" y="0"/>
    </contour>
    <contour>
      <point x="578" y="0" type="curve"/>
      <point x="674" y="241"/>
      <point x="770" y="481"/>
      <point x="865" y="722" type="curve"/>
      <point x="767" y="722"/>
      <point x="865" y="722"/>
      <point x="766" y="722" type="curve"/>
      <point x="670" y="481"/>
      <point x="573" y="241"/>
      <point x="477" y="0" type="curve"/>
      <point x="578" y="0"/>
      <point x="477" y="0"/>
    </contour>
  </outline>
</glyph>
<glyph name="P" format="1">
  <advance width="682"/>
  <unicode hex="0050"/>
  <outline>
    <contour>
      <point x="209" y="722" type="curve"/>
      <point x="159" y="722"/>
      <point x="111" y="722"/>
      <point x="60" y="722" type="curve"/>
      <point x="60" y="641"/>
      <point x="60" y="722"/>
      <point x="60" y="641" type="curve"/>
      <point x="212" y="641"/>
      <point x="57" y="641"/>
      <point x="209" y="641" type="curve"/>
      <point x="209" y="722"/>
      <point x="209" y="641"/>
    </contour>
    <contour>
      <point x="209" y="81" type="curve"/>
      <point x="57" y="81"/>
      <point x="212" y="81"/>
      <point x="60" y="81" type="curve"/>
      <point x="60" y="0"/>
      <point x="60" y="81"/>
      <point x="60" y="0" type="curve"/>
      <point x="111" y="0"/>
      <point x="159" y="0"/>
      <point x="209" y="0" type="curve"/>
      <point x="209" y="81"/>
      <point x="209" y="0"/>
    </contour>
    <contour>
      <point x="209" y="0" type="curve"/>
      <point x="259" y="0"/>
      <point x="205" y="0"/>
      <point x="357" y="0" type="curve"/>
      <point x="357" y="81"/>
      <point x="357" y="0"/>
      <point x="357" y="81" type="curve"/>
      <point x="205" y="81"/>
      <point x="360" y="81"/>
      <point x="209" y="81" type="curve"/>
      <point x="209" y="0"/>
      <point x="209" y="81"/>
    </contour>
    <contour>
      <point x="193" y="304" type="curve"/>
      <point x="253" y="277"/>
      <point x="319" y="259"/>
      <point x="386" y="259" type="curve"/>
      <point x="538" y="261"/>
      <point x="639" y="334"/>
      <point x="639" y="484" type="curve"/>
      <point x="639" y="640"/>
      <point x="517" y="722"/>
      <point x="351" y="722" type="curve"/>
      <point x="304" y="722"/>
      <point x="258" y="722"/>
      <point x="212" y="722" type="curve"/>
      <point x="212" y="641"/>
      <point x="212" y="722"/>
      <point x="212" y="641" type="curve"/>
      <point x="253" y="641"/>
      <point x="295" y="641"/>
      <point x="337" y="641" type="curve"/>
      <point x="450" y="641"/>
      <point x="533" y="590"/>
      <point x="533" y="486" type="curve"/>
      <point x="533" y="391"/>
      <point x="469" y="338"/>
      <point x="376" y="338" type="curve"/>
      <point x="319" y="338"/>
      <point x="279" y="352"/>
      <point x="227" y="375" type="curve"/>
      <point x="194" y="305"/>
      <point x="227" y="375"/>
    </contour>
    <contour>
      <point x="261" y="0" type="curve"/>
      <point x="261" y="241"/>
      <point x="261" y="481"/>
      <point x="261" y="722" type="curve"/>
      <point x="154" y="722"/>
      <point x="261" y="722"/>
      <point x="154" y="722" type="curve"/>
      <point x="154" y="481"/>
      <point x="154" y="241"/>
      <point x="154" y="0" type="curve"/>
      <point x="261" y="0"/>
      <point x="154" y="0"/>
    </contour>
  </outline>
</glyph>
<glyph name="T" format="1">
  <advance width="712"/>
  <unicode hex="0054"/>
  <outline>
    <contour>
      <point x="33" y="681" type="curve"/>
      <point x="33" y="561"/>
      <point x="33" y="682"/>
      <point x="33" y="562" type="curve"/>
      <point x="116" y="562"/>
      <point x="33" y="562"/>
      <point x="116" y="562" type="curve"/>
      <point x="116" y="682"/>
      <point x="116" y="561"/>
      <point x="116" y="681" type="curve"/>
      <point x="33" y="681"/>
      <point x="116" y="681"/>
    </contour>
    <contour>
      <point x="595" y="681" type="curve"/>
      <point x="595" y="561"/>
      <point x="595" y="682"/>
      <point x="595" y="562" type="curve"/>
      <point x="679" y="562"/>
      <point x="595" y="562"/>
      <point x="679" y="562" type="curve"/>
      <point x="679" y="682"/>
      <point x="679" y="561"/>
      <point x="679" y="681" type="curve"/>
      <point x="595" y="681"/>
      <point x="679" y="681"/>
    </contour>
    <contour>
      <point x="355" y="0" type="curve"/>
      <point x="405" y="0"/>
      <point x="453" y="0"/>
      <point x="503" y="0" type="curve"/>
      <point x="503" y="81"/>
      <point x="503" y="0"/>
      <point x="503" y="81" type="curve"/>
      <point x="353" y="81"/>
      <point x="504" y="81"/>
      <point x="355" y="81" type="curve"/>
      <point x="355" y="0"/>
      <point x="355" y="81"/>
    </contour>
    <contour>
      <point x="355" y="81" type="curve"/>
      <point x="205" y="81"/>
      <point x="356" y="81"/>
      <point x="207" y="81" type="curve"/>
      <point x="207" y="0"/>
      <point x="207" y="81"/>
      <point x="207" y="0" type="curve"/>
      <point x="256" y="0"/>
      <point x="305" y="0"/>
      <point x="355" y="0" type="curve"/>
      <point x="355" y="81"/>
      <point x="355" y="0"/>
    </contour>
    <contour>
      <point x="409" y="0" type="curve"/>
      <point x="409" y="237"/>
      <point x="409" y="473"/>
      <point x="409" y="710" type="curve"/>
      <point x="303" y="710"/>
      <point x="409" y="710"/>
      <point x="303" y="710" type="curve"/>
      <point x="303" y="473"/>
      <point x="303" y="237"/>
      <point x="303" y="0" type="curve"/>
      <point x="409" y="0"/>
      <point x="303" y="0"/>
    </contour>
    <contour>
      <point x="33" y="636" type="curve"/>
      <point x="248" y="636"/>
      <point x="464" y="636"/>
      <point x="679" y="636" type="curve"/>
      <point x="679" y="725"/>
      <point x="679" y="632"/>
      <point x="679" y="722" type="curve"/>
      <point x="464" y="722"/>
      <point x="248" y="722"/>
      <point x="33" y="722" type="curve"/>
      <point x="33" y="632"/>
      <point x="33" y="725"/>
    </contour>
    <contour>
      <point x="354" y="796" type="move" name="top"/>
    </contour>
    <contour>
      <point x="391" y="-11" type="move" name="bottom"/>
    </contour>
  </outline>
</glyph>
<glyph name="V" format="1">
  <advance width="835"/>
  <unicode hex="0056"/>
  <outline>
    <contour>
      <point x="679" y="722" type="curve"/>
      <point x="627" y="722"/>
      <point x="575" y="722"/>
      <point x="523" y="722" type="curve"/>
      <point x="523" y="641"/>
      <point x="523" y="722"/>
      <point x="523" y="641" type="curve"/>
      <point x="681" y="641"/>
      <point x="521" y="641"/>
      <point x="679" y="641" type="curve"/>
      <point x="679" y="722"/>
      <point x="679" y="641"/>
    </contour>
    <contour>
      <point x="131" y="722" type="curve"/>
      <point x="85" y="722"/>
      <point x="41" y="722"/>
      <point x="-5" y="722" type="curve"/>
      <point x="-5" y="641"/>
      <point x="-5" y="722"/>
      <point x="-5" y="641" type="curve"/>
      <point x="133" y="641"/>
      <point x="-6" y="641"/>
      <point x="131" y="641" type="curve"/>
      <point x="131" y="722"/>
      <point x="131" y="641"/>
    </contour>
    <contour>
      <point x="689" y="641" type="curve"/>
      <point x="826" y="641"/>
      <point x="688" y="641"/>
      <point x="824" y="641" type="curve"/>
      <point x="824" y="722"/>
      <point x="824" y="641"/>
      <point x="824" y="722" type="curve"/>
      <point x="779" y="722"/>
      <point x="735" y="722"/>
      <point x="689" y="722" type="curve"/>
      <point x="689" y="641"/>
      <point x="689" y="722"/>
    </contour>
    <contour>
      <point x="141" y="641" type="curve"/>
      <point x="299" y="641"/>
      <point x="139" y="641"/>
      <point x="297" y="641" type="curve"/>
      <point x="297" y="722"/>
      <point x="297" y="641"/>
      <point x="297" y="722" type="curve"/>
      <point x="245" y="722"/>
      <point x="193" y="722"/>
      <point x="141" y="722" type="curve"/>
      <point x="141" y="641"/>
      <point x="141" y="722"/>
    </contour>
    <contour>
      <point x="651" y="722" type="curve"/>
      <point x="555" y="481"/>
      <point x="460" y="241"/>
      <point x="366" y="0" type="curve"/>
      <point x="475" y="0"/>
      <point x="361" y="0"/>
      <point x="470" y="0" type="curve"/>
      <point x="567" y="241"/>
      <point x="663" y="481"/>
      <point x="760" y="722" type="curve"/>
      <point x="651" y="722"/>
      <point x="760" y="722"/>
    </contour>
    <contour>
      <point x="60" y="722" type="curve"/>
      <point x="158" y="481"/>
      <point x="257" y="241"/>
      <point x="355" y="0" type="curve"/>
      <point x="464" y="0"/>
      <point x="351" y="0"/>
      <point x="460" y="0" type="curve"/>
      <point x="364" y="241"/>
      <point x="268" y="481"/>
      <point x="171" y="722" type="curve"/>
      <point x="61" y="722"/>
      <point x="171" y="722"/>
    </contour>
  </outline>
</glyph>
<glyph name="W" format="1">
  <advance width="1053"/>
  <unicode hex="0057"/>
  <outline>
    <contour>
      <point x="150" y="641" type="curve"/>
      <point x="288" y="641"/>
      <point x="149" y="641"/>
      <point x="286" y="641" type="curve"/>
      <point x="286" y="722"/>
      <point x="286" y="641"/>
      <point x="286" y="722" type="curve"/>
      <point x="240" y="722"/>
      <point x="196" y="722"/>
      <point x="150" y="722" type="curve"/>
      <point x="150" y="641"/>
      <point x="150" y="722"/>
    </contour>
    <contour>
      <point x="147" y="722" type="curve"/>
      <point x="99" y="722"/>
      <point x="53" y="722"/>
      <point x="5" y="722" type="curve"/>
      <point x="5" y="641"/>
      <point x="5" y="722"/>
      <point x="5" y="641" type="curve"/>
      <point x="149" y="641"/>
      <point x="4" y="641"/>
      <point x="147" y="641" type="curve"/>
      <point x="147" y="722"/>
      <point x="147" y="641"/>
    </contour>
    <contour>
      <point x="899" y="722" type="curve"/>
      <point x="854" y="722"/>
      <point x="809" y="722"/>
      <point x="764" y="722" type="curve"/>
      <point x="764" y="641"/>
      <point x="764" y="722"/>
      <point x="764" y="641" type="curve"/>
      <point x="901" y="641"/>
      <point x="763" y="641"/>
      <point x="899" y="641" type="curve"/>
      <point x="899" y="722"/>
      <point x="899" y="641"/>
    </contour>
    <contour>
      <point x="901" y="641" type="curve"/>
      <point x="1044" y="641"/>
      <point x="899" y="641"/>
      <point x="1043" y="641" type="curve"/>
      <point x="1043" y="722"/>
      <point x="1043" y="641"/>
      <point x="1043" y="722" type="curve"/>
      <point x="996" y="722"/>
      <point x="949" y="722"/>
      <point x="901" y="722" type="curve"/>
      <point x="901" y="641"/>
      <point x="901" y="722"/>
    </contour>
    <contour>
      <point x="367" y="0" type="curve"/>
      <point x="437" y="241"/>
      <point x="505" y="481"/>
      <point x="574" y="722" type="curve"/>
      <point x="475" y="722"/>
      <point x="576" y="722"/>
      <point x="477" y="722" type="curve"/>
      <point x="411" y="481"/>
      <point x="346" y="242"/>
      <point x="280" y="0" type="curve"/>
      <point x="374" y="0"/>
      <point x="273" y="0"/>
    </contour>
    <contour>
      <point x="488" y="722" type="curve"/>
      <point x="550" y="481"/>
      <point x="610" y="241"/>
      <point x="673" y="0" type="curve"/>
      <point x="767" y="0"/>
      <point x="665" y="0"/>
      <point x="759" y="0" type="curve"/>
      <point x="701" y="242"/>
      <point x="644" y="481"/>
      <point x="583" y="722" type="curve"/>
      <point x="485" y="722"/>
      <point x="587" y="722"/>
    </contour>
    <contour>
      <point x="77" y="722" type="curve"/>
      <point x="140" y="481"/>
      <point x="203" y="241"/>
      <point x="266" y="0" type="curve"/>
      <point x="361" y="0"/>
      <point x="265" y="0"/>
      <point x="359" y="0" type="curve"/>
      <point x="298" y="241"/>
      <point x="239" y="481"/>
      <point x="178" y="722" type="curve"/>
      <point x="77" y="722"/>
      <point x="178" y="722"/>
    </contour>
    <contour>
      <point x="870" y="722" type="curve"/>
      <point x="807" y="481"/>
      <point x="746" y="241"/>
      <point x="683" y="0" type="curve"/>
      <point x="778" y="0"/>
      <point x="679" y="0"/>
      <point x="774" y="0" type="curve"/>
      <point x="840" y="241"/>
      <point x="905" y="481"/>
      <point x="971" y="722" type="curve"/>
      <point x="870" y="722"/>
      <point x="971" y="722"/>
    </contour>
  </outline>
</glyph>
<glyph name="X" format="1">
  <advance width="779"/>
  <unicode hex="0058"/>
  <outline>
    <contour>
      <point x="162" y="0" type="curve"/>
      <point x="214" y="0"/>
      <point x="161" y="0"/>
      <point x="317" y="0" type="curve"/>
      <point x="317" y="81"/>
      <point x="317" y="0"/>
      <point x="317" y="81" type="curve"/>
      <point x="161" y="81"/>
      <point x="319" y="81"/>
      <point x="162" y="81" type="curve"/>
      <point x="162" y="0"/>
      <point x="162" y="81"/>
    </contour>
    <contour>
      <point x="156" y="81" type="curve"/>
      <point x="9" y="81"/>
      <point x="158" y="81"/>
      <point x="11" y="81" type="curve"/>
      <point x="10" y="0"/>
      <point x="11" y="81"/>
      <point x="10" y="0" type="curve"/>
      <point x="59" y="0"/>
      <point x="108" y="0"/>
      <point x="156" y="0" type="curve"/>
      <point x="156" y="81"/>
      <point x="156" y="0"/>
    </contour>
    <contour>
      <point x="620" y="0" type="curve"/>
      <point x="668" y="0"/>
      <point x="716" y="0"/>
      <point x="765" y="0" type="curve"/>
      <point x="765" y="81"/>
      <point x="765" y="0"/>
      <point x="765" y="81" type="curve"/>
      <point x="618" y="81"/>
      <point x="766" y="81"/>
      <point x="620" y="81" type="curve"/>
      <point x="620" y="0"/>
      <point x="620" y="81"/>
    </contour>
    <contour>
      <point x="613" y="81" type="curve"/>
      <point x="457" y="81"/>
      <point x="615" y="81"/>
      <point x="458" y="81" type="curve"/>
      <point x="458" y="0"/>
      <point x="458" y="81"/>
      <point x="458" y="0" type="curve"/>
      <point x="510" y="0"/>
      <point x="561" y="0"/>
      <point x="613" y="0" type="curve"/>
      <point x="613" y="81"/>
      <point x="613" y="0"/>
    </contour>
    <contour>
      <point x="593" y="641" type="curve"/>
      <point x="740" y="641"/>
      <point x="592" y="641"/>
      <point x="739" y="641" type="curve"/>
      <point x="739" y="722"/>
      <point x="739" y="641"/>
      <point x="739" y="722" type="curve"/>
      <point x="690" y="722"/>
      <point x="642" y="722"/>
      <point x="593" y="722" type="curve"/>
      <point x="593" y="641"/>
      <point x="593" y="722"/>
    </contour>
    <contour>
      <point x="598" y="722" type="curve"/>
      <point x="545" y="722"/>
      <point x="493" y="722"/>
      <point x="439" y="722" type="curve"/>
      <point x="439" y="641"/>
      <point x="439" y="722"/>
      <point x="439" y="641" type="curve"/>
      <point x="599" y="641"/>
      <point x="438" y="641"/>
      <point x="598" y="641" type="curve"/>
      <point x="598" y="722"/>
      <point x="598" y="641"/>
    </contour>
    <contour>
      <point x="189" y="722" type="curve"/>
      <point x="141" y="722"/>
      <point x="93" y="722"/>
      <point x="44" y="722" type="curve"/>
      <point x="44" y="641"/>
      <point x="44" y="722"/>
      <point x="44" y="641" type="curve"/>
      <point x="191" y="641"/>
      <point x="42" y="641"/>
      <point x="189" y="641" type="curve"/>
      <point x="189" y="722"/>
      <point x="189" y="641"/>
    </contour>
    <contour>
      <point x="185" y="641" type="curve"/>
      <point x="345" y="641"/>
      <point x="183" y="641"/>
      <point x="343" y="641" type="curve"/>
      <point x="343" y="722"/>
      <point x="343" y="641"/>
      <point x="343" y="722" type="curve"/>
      <point x="290" y="722"/>
      <point x="238" y="722"/>
      <point x="185" y="722" type="curve"/>
      <point x="185" y="641"/>
      <point x="185" y="722"/>
    </contour>
    <contour>
      <point x="581" y="722" type="curve"/>
      <point x="413" y="486"/>
      <point x="242" y="253"/>
      <point x="73" y="17" type="curve"/>
      <point x="180" y="17"/>
      <point x="73" y="0"/>
      <point x="180" y="0" type="curve"/>
      <point x="348" y="236"/>
      <point x="514" y="472"/>
      <point x="682" y="707" type="curve"/>
      <point x="581" y="707"/>
      <point x="682" y="722"/>
    </contour>
    <contour>
      <point x="102" y="707" type="curve"/>
      <point x="269" y="471"/>
      <point x="434" y="236"/>
      <point x="600" y="0" type="curve"/>
      <point x="707" y="0"/>
      <point x="600" y="12"/>
      <point x="707" y="12" type="curve"/>
      <point x="539" y="249"/>
      <point x="370" y="485"/>
      <point x="202" y="722" type="curve"/>
      <point x="102" y="722"/>
      <point x="202" y="707"/>
    </contour>
  </outline>
</glyph>
<glyph name="Y" format="1">
  <advance width="709"/>
  <unicode hex="0059"/>
  <outline>
    <contour>
      <point x="346" y="81" type="curve"/>
      <point x="196" y="81"/>
      <point x="347" y="81"/>
      <point x="198" y="81" type="curve"/>
      <point x="198" y="0"/>
      <point x="198" y="81"/>
      <point x="198" y="0" type="curve"/>
      <point x="247" y="0"/>
      <point x="296" y="0"/>
      <point x="346" y="0" type="curve"/>
      <point x="346" y="81"/>
      <point x="346" y="0"/>
    </contour>
    <contour>
      <point x="346" y="0" type="curve"/>
      <point x="396" y="0"/>
      <point x="444" y="0"/>
      <point x="494" y="0" type="curve"/>
      <point x="494" y="81"/>
      <point x="494" y="0"/>
      <point x="494" y="81" type="curve"/>
      <point x="344" y="81"/>
      <point x="495" y="81"/>
      <point x="346" y="81" type="curve"/>
      <point x="346" y="0"/>
      <point x="346" y="81"/>
    </contour>
    <contour>
      <point x="561" y="722" type="curve"/>
      <point x="512" y="722"/>
      <point x="464" y="722"/>
      <point x="415" y="722" type="curve"/>
      <point x="415" y="641"/>
      <point x="415" y="722"/>
      <point x="415" y="641" type="curve"/>
      <point x="562" y="641"/>
      <point x="414" y="641"/>
      <point x="561" y="641" type="curve"/>
      <point x="561" y="722"/>
      <point x="561" y="641"/>
    </contour>
    <contour>
      <point x="138" y="722" type="curve"/>
      <point x="94" y="722"/>
      <point x="51" y="722"/>
      <point x="7" y="722" type="curve"/>
      <point x="7" y="641"/>
      <point x="7" y="722"/>
      <point x="7" y="641" type="curve"/>
      <point x="139" y="641"/>
      <point x="6" y="641"/>
      <point x="138" y="641" type="curve"/>
      <point x="138" y="722"/>
      <point x="138" y="641"/>
    </contour>
    <contour>
      <point x="144" y="641" type="curve"/>
      <point x="290" y="641"/>
      <point x="142" y="641"/>
      <point x="289" y="641" type="curve"/>
      <point x="289" y="722"/>
      <point x="289" y="641"/>
      <point x="289" y="722" type="curve"/>
      <point x="240" y="722"/>
      <point x="192" y="722"/>
      <point x="144" y="722" type="curve"/>
      <point x="144" y="641"/>
      <point x="144" y="722"/>
    </contour>
    <contour>
      <point x="567" y="641" type="curve"/>
      <point x="700" y="641"/>
      <point x="565" y="641"/>
      <point x="699" y="641" type="curve"/>
      <point x="699" y="722"/>
      <point x="699" y="641"/>
      <point x="699" y="722" type="curve"/>
      <point x="654" y="722"/>
      <point x="611" y="722"/>
      <point x="567" y="722" type="curve"/>
      <point x="567" y="641"/>
      <point x="567" y="722"/>
    </contour>
    <contour>
      <point x="58" y="708" type="curve"/>
      <point x="136" y="584"/>
      <point x="212" y="461"/>
      <point x="290" y="337" type="curve"/>
      <point x="398" y="337"/>
      <point x="283" y="338"/>
      <point x="392" y="338" type="curve"/>
      <point x="313" y="467"/>
      <point x="235" y="593"/>
      <point x="156" y="722" type="curve"/>
      <point x="58" y="722"/>
      <point x="156" y="708"/>
    </contour>
    <contour>
      <point x="549" y="722" type="curve"/>
      <point x="465" y="593"/>
      <point x="382" y="467"/>
      <point x="297" y="338" type="curve"/>
      <point x="405" y="338"/>
      <point x="293" y="337"/>
      <point x="402" y="337" type="curve"/>
      <point x="484" y="461"/>
      <point x="565" y="585"/>
      <point x="648" y="709" type="curve"/>
      <point x="549" y="709"/>
      <point x="648" y="722"/>
    </contour>
    <contour>
      <point x="404" y="0" type="curve"/>
      <point x="404" y="115"/>
      <point x="404" y="228"/>
      <point x="404" y="343" type="curve"/>
      <point x="287" y="343"/>
      <point x="404" y="343"/>
      <point x="287" y="343" type="curve"/>
      <point x="287" y="228"/>
      <point x="287" y="115"/>
      <point x="287" y="0" type="curve"/>
      <point x="404" y="0"/>
      <point x="287" y="0"/>
    </contour>
    <contour>
      <point x="350" y="796" type="move" name="top"/>
    </contour>
  </outline>
</glyph>
<glyph name="bracketleft" format="1">
  <advance width="331"/>
  <unicode hex="005B"/>
  <outline>
    <contour>
      <point x="284" y="770" type="curve"/>
      <point x="231" y="770"/>
      <point x="178" y="770"/>
      <point x="125" y="770" type="curve"/>
      <point x="112" y="770"/>
      <point x="90" y="770"/>
      <point x="79" y="770" type="curve"/>
      <point x="79" y="758"/>
      <point x="79" y="742"/>
      <point x="79" y="731" type="curve"/>
      <point x="79" y="461"/>
      <point x="79" y="191"/>
      <point x="79" y="-79" type="curve"/>
      <point x="79" y="-91"/>
      <point x="79" y="-103"/>
      <point x="79" y="-117" type="curve"/>
      <point x="90" y="-117"/>
      <point x="111" y="-117"/>
      <point x="124" y="-117" type="curve"/>
      <point x="177" y="-117"/>
      <point x="231" y="-117"/>
      <point x="284" y="-117" type="curve"/>
      <point x="284" y="-27"/>
      <point x="284" y="-117"/>
      <point x="284" y="-27" type="curve"/>
      <point x="231" y="-27"/>
      <point x="177" y="-27"/>
      <point x="124" y="-27" type="curve"/>
      <point x="185" y="-27"/>
      <point x="124" y="-27"/>
      <point x="185" y="-27" type="curve"/>
      <point x="185" y="-79"/>
      <point x="185" y="-27"/>
      <point x="185" y="-79" type="curve"/>
      <point x="185" y="191"/>
      <point x="185" y="461"/>
      <point x="185" y="731" type="curve"/>
      <point x="185" y="681"/>
      <point x="185" y="731"/>
      <point x="185" y="681" type="curve"/>
      <point x="125" y="681"/>
      <point x="185" y="681"/>
      <point x="125" y="681" type="curve"/>
      <point x="178" y="681"/>
      <point x="231" y="681"/>
      <point x="284" y="681" type="curve"/>
      <point x="284" y="770"/>
      <point x="284" y="681"/>
    </contour>
  </outline>
</glyph>
<glyph name="backslash" format="1">
  <advance width="585"/>
  <unicode hex="005C"/>
  <outline>
    <contour>
      <point x="553" y="-68" type="curve"/>
      <point x="417" y="236"/>
      <point x="280" y="540"/>
      <point x="144" y="844" type="curve"/>
      <point x="32" y="844"/>
      <point x="144" y="844"/>
      <point x="32" y="844" type="curve"/>
      <point x="169" y="540"/>
      <point x="305" y="236"/>
      <point x="441" y="-68" type="curve"/>
      <point x="553" y="-68"/>
      <point x="441" y="-68"/>
    </contour>
  </outline>
</glyph>
<glyph name="bracketright" format="1">
  <advance width="331"/>
  <unicode hex="005D"/>
  <outline>
    <contour>
      <point x="47" y="681" type="curve"/>
      <point x="100" y="681"/>
      <point x="153" y="681"/>
      <point x="206" y="681" type="curve"/>
      <point x="196" y="689"/>
      <point x="182" y="693"/>
      <point x="172" y="701" type="curve"/>
      <point x="162" y="710"/>
      <point x="155" y="722"/>
      <point x="145" y="731" type="curve"/>
      <point x="145" y="461"/>
      <point x="145" y="191"/>
      <point x="145" y="-79" type="curve"/>
      <point x="155" y="-70"/>
      <point x="164" y="-59"/>
      <point x="175" y="-50" type="curve"/>
      <point x="185" y="-41"/>
      <point x="197" y="-36"/>
      <point x="207" y="-27" type="curve"/>
      <point x="153" y="-27"/>
      <point x="100" y="-27"/>
      <point x="47" y="-27" type="curve"/>
      <point x="46" y="-117"/>
      <point x="47" y="-27"/>
      <point x="46" y="-117" type="curve"/>
      <point x="100" y="-117"/>
      <point x="153" y="-117"/>
      <point x="207" y="-117" type="curve"/>
      <point x="252" y="-117"/>
      <point x="207" y="-117"/>
      <point x="252" y="-117" type="curve"/>
      <point x="252" y="-79"/>
      <point x="252" y="-117"/>
      <point x="252" y="-79" type="curve"/>
      <point x="252" y="191"/>
      <point x="252" y="461"/>
      <point x="252" y="731" type="curve"/>
      <point x="252" y="770"/>
      <point x="252" y="731"/>
      <point x="252" y="770" type="curve"/>
      <point x="206" y="770"/>
      <point x="252" y="770"/>
      <point x="206" y="770" type="curve"/>
      <point x="153" y="770"/>
      <point x="100" y="770"/>
      <point x="47" y="770" type="curve"/>
      <point x="47" y="681"/>
      <point x="47" y="770"/>
    </contour>
  </outline>
</glyph>
<glyph name="asciicircum" format="1">
  <advance width="585"/>
  <unicode hex="005E"/>
  <outline>
    <contour>
      <point x="163" y="457" type="curve"/>
      <point x="224" y="563"/>
      <point x="285" y="667"/>
      <point x="345" y="772" type="curve"/>
      <point x="239" y="772"/>
      <point x="345" y="772"/>
      <point x="238" y="772" type="curve"/>
      <point x="178" y="667"/>
      <point x="117" y="563"/>
      <point x="57" y="457" type="curve"/>
      <point x="163" y="457"/>
      <point x="57" y="457"/>
    </contour>
    <contour>
      <point x="529" y="457" type="curve"/>
      <point x="469" y="561"/>
      <point x="406" y="669"/>
      <point x="345" y="772" type="curve"/>
      <point x="239" y="772"/>
      <point x="345" y="772"/>
      <point x="239" y="772" type="curve"/>
      <point x="298" y="669"/>
      <point x="362" y="561"/>
      <point x="422" y="457" type="curve"/>
      <point x="528" y="457"/>
      <point x="422" y="457"/>
    </contour>
  </outline>
</glyph>
<glyph name="underscore" format="1">
  <advance width="711"/>
  <unicode hex="005F"/>
  <outline>
    <contour>
      <point x="0" y="-192" type="curve"/>
      <point x="238" y="-192"/>
      <point x="475" y="-192"/>
      <point x="711" y="-192" type="curve"/>
      <point x="711" y="-111"/>
      <point x="711" y="-192"/>
      <point x="711" y="-111" type="curve"/>
      <point x="475" y="-111"/>
      <point x="238" y="-111"/>
      <point x="0" y="-111" type="curve"/>
      <point x="0" y="-192"/>
      <point x="0" y="-111"/>
    </contour>
  </outline>
</glyph>
<glyph name="b" format="1">
  <advance width="712"/>
  <unicode hex="0062"/>
  <outline>
    <contour>
      <point x="174" y="800" type="curve"/>
      <point x="121" y="800"/>
      <point x="79" y="800"/>
      <point x="26" y="800" type="curve"/>
      <point x="26" y="744"/>
      <point x="26" y="775"/>
      <point x="26" y="719" type="curve"/>
      <point x="141" y="719"/>
      <point x="59" y="719"/>
      <point x="174" y="719" type="curve"/>
      <point x="174" y="775"/>
      <point x="174" y="743"/>
    </contour>
    <contour>
      <point x="197" y="354" type="curve"/>
      <point x="239" y="405"/>
      <point x="302" y="454"/>
      <point x="390" y="454" type="curve"/>
      <point x="496" y="454"/>
      <point x="554" y="376"/>
      <point x="554" y="263" type="curve"/>
      <point x="555" y="155"/>
      <point x="494" y="79"/>
      <point x="390" y="79" type="curve"/>
      <point x="312" y="79"/>
      <point x="252" y="113"/>
      <point x="205" y="165" type="curve"/>
      <point x="165" y="138"/>
      <point x="186" y="151"/>
      <point x="145" y="123" type="curve"/>
      <point x="215" y="46"/>
      <point x="290" y="-5"/>
      <point x="406" y="-5" type="curve"/>
      <point x="564" y="-5"/>
      <point x="662" y="100"/>
      <point x="661" y="266" type="curve"/>
      <point x="661" y="432"/>
      <point x="565" y="538"/>
      <point x="405" y="538" type="curve"/>
      <point x="289" y="538"/>
      <point x="211" y="479"/>
      <point x="150" y="405" type="curve"/>
      <point x="183" y="374"/>
      <point x="164" y="385"/>
    </contour>
    <contour>
      <point x="226" y="0" type="curve"/>
      <point x="226" y="281"/>
      <point x="226" y="519"/>
      <point x="226" y="800" type="curve"/>
      <point x="153" y="800"/>
      <point x="192" y="800"/>
      <point x="119" y="800" type="curve"/>
      <point x="119" y="519"/>
      <point x="119" y="281"/>
      <point x="119" y="0" type="curve"/>
      <point x="192" y="0"/>
      <point x="153" y="0"/>
    </contour>
    <contour>
      <point x="174" y="81" type="curve"/>
      <point x="59" y="81"/>
      <point x="141" y="81"/>
      <point x="26" y="81" type="curve"/>
      <point x="26" y="25"/>
      <point x="26" y="56"/>
      <point x="26" y="0" type="curve"/>
      <point x="79" y="0"/>
      <point x="122" y="0"/>
      <point x="174" y="0" type="curve"/>
      <point x="174" y="56"/>
      <point x="174" y="24"/>
    </contour>
  </outline>
</glyph>
<glyph name="f" format="1">
  <advance width="511"/>
  <unicode hex="0066"/>
  <outline>
    <contour>
      <point x="408" y="769" type="curve"/>
      <point x="408" y="642"/>
      <point x="408" y="771"/>
      <point x="408" y="644" type="curve"/>
      <point x="491" y="644"/>
      <point x="408" y="644"/>
      <point x="491" y="644" type="curve"/>
      <point x="491" y="771"/>
      <point x="491" y="642"/>
      <point x="491" y="769" type="curve"/>
      <point x="408" y="769"/>
      <point x="491" y="769"/>
    </contour>
    <contour>
      <point x="217" y="-1" type="curve"/>
      <point x="270" y="-1"/>
      <point x="311" y="0"/>
      <point x="364" y="0" type="curve"/>
      <point x="364" y="81"/>
      <point x="364" y="0"/>
      <point x="364" y="81" type="curve"/>
      <point x="205" y="81"/>
      <point x="376" y="81"/>
      <point x="217" y="81" type="curve"/>
      <point x="217" y="-1"/>
      <point x="217" y="81"/>
    </contour>
    <contour>
      <point x="217" y="81" type="curve"/>
      <point x="57" y="81"/>
      <point x="229" y="81"/>
      <point x="69" y="81" type="curve"/>
      <point x="69" y="0"/>
      <point x="69" y="81"/>
      <point x="69" y="0" type="curve"/>
      <point x="122" y="0"/>
      <point x="164" y="-1"/>
      <point x="217" y="-1" type="curve"/>
      <point x="217" y="81"/>
      <point x="217" y="-1"/>
    </contour>
    <contour>
      <point x="31" y="452" type="curve"/>
      <point x="453" y="452" type="line"/>
      <point x="453" y="533"/>
      <point x="453" y="452"/>
      <point x="453" y="533" type="curve"/>
      <point x="31" y="533" type="line"/>
      <point x="31" y="452"/>
      <point x="31" y="533"/>
    </contour>
    <contour>
      <point x="270" y="0" type="curve"/>
      <point x="270" y="616" type="line"/>
      <point x="270" y="681"/>
      <point x="300" y="725"/>
      <point x="362" y="725" type="curve"/>
      <point x="392" y="725"/>
      <point x="421" y="716"/>
      <point x="448" y="704" type="curve"/>
      <point x="491" y="769"/>
      <point x="448" y="704"/>
      <point x="491" y="769" type="curve"/>
      <point x="451" y="788"/>
      <point x="407" y="803"/>
      <point x="362" y="803" type="curve"/>
      <point x="242" y="803"/>
      <point x="162" y="734"/>
      <point x="163" y="616" type="curve"/>
      <point x="163" y="0" type="line"/>
      <point x="270" y="0"/>
      <point x="163" y="0"/>
    </contour>
  </outline>
</glyph>
<glyph name="h" format="1">
  <advance width="695"/>
  <unicode hex="0068"/>
  <outline>
    <contour>
      <point x="543" y="-1" type="curve"/>
      <point x="596" y="-1"/>
      <point x="638" y="0"/>
      <point x="691" y="0" type="curve"/>
      <point x="691" y="81"/>
      <point x="691" y="0"/>
      <point x="691" y="81" type="curve"/>
      <point x="531" y="81"/>
      <point x="703" y="81"/>
      <point x="543" y="81" type="curve"/>
      <point x="543" y="-1"/>
      <point x="543" y="81"/>
    </contour>
    <contour>
      <point x="156" y="-1" type="curve"/>
      <point x="204" y="-1"/>
      <point x="145" y="-1"/>
      <point x="288" y="0" type="curve"/>
      <point x="288" y="81"/>
      <point x="288" y="0"/>
      <point x="288" y="81" type="curve"/>
      <point x="145" y="81"/>
      <point x="300" y="81"/>
      <point x="156" y="81" type="curve"/>
      <point x="156" y="-1"/>
      <point x="156" y="81"/>
    </contour>
    <contour>
      <point x="156" y="799" type="curve"/>
      <point x="103" y="799"/>
      <point x="61" y="800"/>
      <point x="8" y="800" type="curve"/>
      <point x="8" y="719"/>
      <point x="8" y="800"/>
      <point x="8" y="719" type="curve"/>
      <point x="168" y="719"/>
      <point x="-4" y="719"/>
      <point x="156" y="719" type="curve"/>
      <point x="156" y="799"/>
      <point x="156" y="719"/>
    </contour>
    <contour>
      <point x="156" y="81" type="curve"/>
      <point x="-4" y="81"/>
      <point x="168" y="81"/>
      <point x="8" y="81" type="curve"/>
      <point x="8" y="0"/>
      <point x="8" y="81"/>
      <point x="8" y="0" type="curve"/>
      <point x="61" y="0"/>
      <point x="103" y="-1"/>
      <point x="156" y="-1" type="curve"/>
      <point x="156" y="81"/>
      <point x="156" y="-1"/>
    </contour>
    <contour>
      <point x="185" y="308" type="curve"/>
      <point x="216" y="392"/>
      <point x="285" y="455"/>
      <point x="368" y="455" type="curve"/>
      <point x="452" y="455"/>
      <point x="491" y="399"/>
      <point x="491" y="314" type="curve"/>
      <point x="491" y="208"/>
      <point x="491" y="107"/>
      <point x="491" y="0" type="curve"/>
      <point x="597" y="0"/>
      <point x="491" y="0"/>
      <point x="597" y="0" type="curve"/>
      <point x="597" y="109"/>
      <point x="597" y="218"/>
      <point x="597" y="327" type="curve"/>
      <point x="597" y="462"/>
      <point x="528" y="536"/>
      <point x="390" y="536" type="curve"/>
      <point x="278" y="536"/>
      <point x="183" y="462"/>
      <point x="143" y="348" type="curve"/>
      <point x="187" y="307"/>
      <point x="141" y="349"/>
    </contour>
    <contour>
      <point x="209" y="0" type="curve"/>
      <point x="209" y="267"/>
      <point x="209" y="533"/>
      <point x="209" y="800" type="curve"/>
      <point x="102" y="800"/>
      <point x="209" y="800"/>
      <point x="102" y="800" type="curve"/>
      <point x="102" y="533"/>
      <point x="102" y="267"/>
      <point x="102" y="0" type="curve"/>
      <point x="209" y="0"/>
      <point x="102" y="0"/>
    </contour>
  </outline>
</glyph>
<glyph name="i" format="1">
  <advance width="339"/>
  <unicode hex="0069"/>
  <outline>
    <contour>
      <point x="180" y="81" type="curve"/>
      <point x="20" y="81"/>
      <point x="191" y="81"/>
      <point x="32" y="81" type="curve"/>
      <point x="31" y="0"/>
      <point x="32" y="81"/>
      <point x="31" y="0" type="curve"/>
      <point x="85" y="0"/>
      <point x="127" y="0"/>
      <point x="180" y="0" type="curve"/>
      <point x="180" y="81"/>
      <point x="180" y="0"/>
    </contour>
    <contour>
      <point x="180" y="0" type="curve"/>
      <point x="229" y="0"/>
      <point x="271" y="0"/>
      <point x="321" y="0" type="curve"/>
      <point x="321" y="81"/>
      <point x="321" y="0"/>
      <point x="321" y="81" type="curve"/>
      <point x="171" y="81"/>
      <point x="329" y="81"/>
      <point x="180" y="81" type="curve"/>
      <point x="180" y="0"/>
      <point x="180" y="81"/>
    </contour>
    <contour>
      <point x="180" y="533" type="curve"/>
      <point x="127" y="533"/>
      <point x="85" y="533"/>
      <point x="32" y="533" type="curve"/>
      <point x="31" y="452"/>
      <point x="32" y="533"/>
      <point x="31" y="452" type="curve"/>
      <point x="191" y="452"/>
      <point x="20" y="452"/>
      <point x="180" y="452" type="curve"/>
      <point x="180" y="533"/>
      <point x="180" y="452"/>
    </contour>
    <contour>
      <point x="236" y="0" type="curve"/>
      <point x="236" y="178"/>
      <point x="236" y="355"/>
      <point x="236" y="533" type="curve"/>
      <point x="124" y="533"/>
      <point x="236" y="533"/>
      <point x="124" y="533" type="curve"/>
      <point x="124" y="355"/>
      <point x="124" y="178"/>
      <point x="124" y="0" type="curve"/>
      <point x="236" y="0"/>
      <point x="124" y="0"/>
    </contour>
    <contour>
      <point x="239" y="683" type="curve"/>
      <point x="239" y="719"/>
      <point x="213" y="737"/>
      <point x="177" y="737" type="curve"/>
      <point x="141" y="737"/>
      <point x="117" y="717"/>
      <point x="117" y="683" type="curve"/>
      <point x="235" y="683"/>
      <point x="121" y="683"/>
      <point x="239" y="683" type="curve"/>
      <point x="239" y="646"/>
      <point x="213" y="630"/>
      <point x="177" y="630" type="curve"/>
      <point x="140" y="630"/>
      <point x="117" y="648"/>
      <point x="117" y="683" type="curve"/>
      <point x="235" y="683"/>
      <point x="121" y="683"/>
    </contour>
    <contour>
      <point x="177" y="632" type="move" name="top"/>
    </contour>
    <contour>
      <point x="228" y="6" type="move" name="bottom"/>
    </contour>
  </outline>
</glyph>
<glyph name="j" format="1">
  <advance width="323"/>
  <unicode hex="006A"/>
  <outline>
    <contour>
      <point x="179" y="533" type="curve"/>
      <point x="126" y="533"/>
      <point x="74" y="533"/>
      <point x="20" y="533" type="curve"/>
      <point x="20" y="452"/>
      <point x="20" y="533"/>
      <point x="20" y="452" type="curve"/>
      <point x="180" y="452"/>
      <point x="19" y="452"/>
      <point x="179" y="452" type="curve"/>
      <point x="179" y="533"/>
      <point x="179" y="452"/>
    </contour>
    <contour>
      <point x="-10" y="-302" type="curve"/>
      <point x="0" y="-303"/>
      <point x="12" y="-305"/>
      <point x="25" y="-305" type="curve"/>
      <point x="144" y="-305"/>
      <point x="233" y="-241"/>
      <point x="233" y="-127" type="curve"/>
      <point x="233" y="93"/>
      <point x="233" y="313"/>
      <point x="233" y="534" type="curve"/>
      <point x="127" y="534"/>
      <point x="233" y="534"/>
      <point x="127" y="534" type="curve"/>
      <point x="127" y="313"/>
      <point x="127" y="93"/>
      <point x="127" y="-127" type="curve"/>
      <point x="127" y="-186"/>
      <point x="89" y="-226"/>
      <point x="29" y="-226" type="curve"/>
      <point x="21" y="-226"/>
      <point x="12" y="-225"/>
      <point x="5" y="-224" type="curve"/>
      <point x="-9" y="-302"/>
      <point x="5" y="-225"/>
    </contour>
    <contour>
      <point x="242" y="681" type="curve"/>
      <point x="242" y="717"/>
      <point x="215" y="735"/>
      <point x="180" y="735" type="curve"/>
      <point x="144" y="735"/>
      <point x="119" y="715"/>
      <point x="119" y="681" type="curve"/>
      <point x="237" y="681"/>
      <point x="124" y="681"/>
      <point x="242" y="681" type="curve"/>
      <point x="242" y="644"/>
      <point x="216" y="627"/>
      <point x="179" y="627" type="curve"/>
      <point x="143" y="627"/>
      <point x="119" y="645"/>
      <point x="119" y="681" type="curve"/>
      <point x="237" y="681"/>
      <point x="124" y="681"/>
    </contour>
  </outline>
</glyph>
<glyph name="k" format="1">
  <advance width="641"/>
  <unicode hex="006B"/>
  <outline>
    <contour>
      <point x="155" y="81" type="curve"/>
      <point x="-5" y="81"/>
      <point x="167" y="81"/>
      <point x="7" y="81" type="curve"/>
      <point x="7" y="0"/>
      <point x="7" y="81"/>
      <point x="7" y="0" type="curve"/>
      <point x="60" y="0"/>
      <point x="102" y="-1"/>
      <point x="155" y="-1" type="curve"/>
      <point x="155" y="81"/>
      <point x="155" y="-1"/>
    </contour>
    <contour>
      <point x="478" y="0" type="curve"/>
      <point x="533" y="0"/>
      <point x="570" y="0"/>
      <point x="624" y="0" type="curve"/>
      <point x="624" y="81"/>
      <point x="624" y="0"/>
      <point x="624" y="81" type="curve"/>
      <point x="461" y="81"/>
      <point x="642" y="81"/>
      <point x="479" y="81" type="curve"/>
      <point x="479" y="0"/>
      <point x="478" y="81"/>
    </contour>
    <contour>
      <point x="475" y="452" type="curve"/>
      <point x="612" y="452"/>
      <point x="456" y="452"/>
      <point x="594" y="452" type="curve"/>
      <point x="594" y="533"/>
      <point x="594" y="452"/>
      <point x="594" y="533" type="curve"/>
      <point x="548" y="533"/>
      <point x="520" y="533"/>
      <point x="475" y="533" type="curve"/>
      <point x="475" y="452"/>
      <point x="475" y="533"/>
    </contour>
    <contour>
      <point x="155" y="-1" type="curve"/>
      <point x="199" y="-1"/>
      <point x="153" y="-1"/>
      <point x="284" y="0" type="curve"/>
      <point x="284" y="81"/>
      <point x="284" y="0"/>
      <point x="284" y="81" type="curve"/>
      <point x="153" y="81"/>
      <point x="285" y="81"/>
      <point x="155" y="81" type="curve"/>
      <point x="155" y="-1"/>
      <point x="155" y="81"/>
    </contour>
    <contour>
      <point x="491" y="533" type="curve"/>
      <point x="424" y="533"/>
      <point x="362" y="533"/>
      <point x="296" y="533" type="curve"/>
      <point x="296" y="452"/>
      <point x="296" y="533"/>
      <point x="296" y="452" type="curve"/>
      <point x="496" y="452"/>
      <point x="291" y="452"/>
      <point x="491" y="452" type="curve"/>
      <point x="491" y="533"/>
      <point x="491" y="452"/>
    </contour>
    <contour>
      <point x="157" y="799" type="curve"/>
      <point x="104" y="799"/>
      <point x="62" y="800"/>
      <point x="9" y="800" type="curve"/>
      <point x="9" y="719"/>
      <point x="9" y="800"/>
      <point x="9" y="719" type="curve"/>
      <point x="169" y="719"/>
      <point x="-3" y="719"/>
      <point x="157" y="719" type="curve"/>
      <point x="157" y="799"/>
      <point x="157" y="719"/>
    </contour>
    <contour>
      <point x="209" y="0" type="curve"/>
      <point x="209" y="800" type="line"/>
      <point x="102" y="800"/>
      <point x="209" y="800"/>
      <point x="102" y="800" type="curve"/>
      <point x="102" y="533"/>
      <point x="102" y="267"/>
      <point x="102" y="0" type="curve"/>
      <point x="209" y="0"/>
      <point x="102" y="0"/>
    </contour>
    <contour>
      <point x="446" y="533" type="curve"/>
      <point x="182" y="275" type="line"/>
      <point x="305" y="275"/>
      <point x="182" y="275"/>
      <point x="304" y="275" type="curve"/>
      <point x="551" y="502" type="line"/>
      <point x="424" y="502"/>
      <point x="572" y="533"/>
    </contour>
    <contour>
      <point x="570" y="41" type="curve"/>
      <point x="304" y="275" type="line"/>
      <point x="182" y="275"/>
      <point x="304" y="275"/>
      <point x="182" y="275" type="curve"/>
      <point x="472" y="0" type="line"/>
      <point x="596" y="0"/>
      <point x="446" y="41"/>
    </contour>
    <contour>
      <point x="383" y="-14" type="move" name="bottom"/>
    </contour>
  </outline>
</glyph>
<glyph name="l" format="1">
  <advance width="353"/>
  <unicode hex="006C"/>
  <outline>
    <contour>
      <point x="177" y="81" type="curve"/>
      <point x="17" y="81"/>
      <point x="177" y="81"/>
      <point x="17" y="81" type="curve"/>
      <point x="17" y="0"/>
      <point x="17" y="81"/>
      <point x="17" y="0" type="curve"/>
      <point x="71" y="0"/>
      <point x="123" y="0"/>
      <point x="177" y="0" type="curve"/>
      <point x="177" y="81"/>
      <point x="177" y="-1"/>
    </contour>
    <contour>
      <point x="179" y="800" type="curve"/>
      <point x="126" y="800"/>
      <point x="72" y="800"/>
      <point x="19" y="800" type="curve"/>
      <point x="19" y="719"/>
      <point x="19" y="800"/>
      <point x="19" y="719" type="curve"/>
      <point x="179" y="719"/>
      <point x="19" y="719"/>
      <point x="179" y="719" type="curve"/>
      <point x="179" y="799"/>
      <point x="179" y="719"/>
    </contour>
    <contour>
      <point x="177" y="0" type="curve"/>
      <point x="231" y="0"/>
      <point x="284" y="0"/>
      <point x="337" y="0" type="curve"/>
      <point x="337" y="81"/>
      <point x="337" y="0"/>
      <point x="337" y="81" type="curve"/>
      <point x="177" y="81"/>
      <point x="337" y="81"/>
      <point x="177" y="81" type="curve"/>
      <point x="177" y="-1"/>
      <point x="177" y="81"/>
    </contour>
    <contour>
      <point x="229" y="0" type="curve"/>
      <point x="229" y="267"/>
      <point x="229" y="533"/>
      <point x="229" y="800" type="curve"/>
      <point x="123" y="800"/>
      <point x="229" y="800"/>
      <point x="123" y="800" type="curve"/>
      <point x="123" y="533"/>
      <point x="123" y="267"/>
      <point x="123" y="0" type="curve"/>
      <point x="229" y="0"/>
      <point x="123" y="0"/>
    </contour>
    <contour>
      <point x="177" y="887" type="move" name="top"/>
    </contour>
    <contour>
      <point x="217" y="-8" type="move" name="bottom"/>
    </contour>
  </outline>
</glyph>
<glyph name="p" format="1">
  <advance width="697"/>
  <unicode hex="0070"/>
  <outline>
    <contour>
      <point x="156" y="-219" type="curve"/>
      <point x="-5" y="-219"/>
      <point x="168" y="-219"/>
      <point x="6" y="-219" type="curve"/>
      <point x="6" y="-300"/>
      <point x="6" y="-219"/>
      <point x="6" y="-300" type="curve"/>
      <point x="60" y="-300"/>
      <point x="102" y="-300"/>
      <point x="156" y="-300" type="curve"/>
      <point x="156" y="-219"/>
      <point x="156" y="-300"/>
    </contour>
    <contour>
      <point x="156" y="-300" type="curve"/>
      <point x="207" y="-300"/>
      <point x="246" y="-300"/>
      <point x="296" y="-300" type="curve"/>
      <point x="296" y="-219"/>
      <point x="296" y="-300"/>
      <point x="296" y="-219" type="curve"/>
      <point x="144" y="-219"/>
      <point x="308" y="-219"/>
      <point x="156" y="-219" type="curve"/>
      <point x="156" y="-300"/>
      <point x="156" y="-219"/>
    </contour>
    <contour>
      <point x="157" y="533" type="curve"/>
      <point x="104" y="533"/>
      <point x="61" y="533"/>
      <point x="8" y="533" type="curve"/>
      <point x="7" y="452"/>
      <point x="8" y="533"/>
      <point x="7" y="452" type="curve"/>
      <point x="169" y="452"/>
      <point x="-4" y="452"/>
      <point x="157" y="452" type="curve"/>
      <point x="157" y="533"/>
      <point x="157" y="452"/>
    </contour>
    <contour>
      <point x="179" y="333" type="curve"/>
      <point x="222" y="402"/>
      <point x="289" y="458"/>
      <point x="377" y="458" type="curve"/>
      <point x="486" y="458"/>
      <point x="540" y="378"/>
      <point x="540" y="267" type="curve"/>
      <point x="542" y="154"/>
      <point x="485" y="75"/>
      <point x="376" y="76" type="curve"/>
      <point x="298" y="76"/>
      <point x="238" y="108"/>
      <point x="182" y="160" type="curve"/>
      <point x="150" y="130"/>
      <point x="168" y="140"/>
      <point x="136" y="110" type="curve"/>
      <point x="204" y="37"/>
      <point x="285" y="-5"/>
      <point x="391" y="-5" type="curve"/>
      <point x="556" y="-5"/>
      <point x="647" y="107"/>
      <point x="646" y="271" type="curve"/>
      <point x="646" y="429"/>
      <point x="558" y="539"/>
      <point x="397" y="539" type="curve"/>
      <point x="283" y="539"/>
      <point x="199" y="479"/>
      <point x="142" y="395" type="curve"/>
      <point x="168" y="351"/>
      <point x="153" y="377"/>
    </contour>
    <contour>
      <point x="210" y="-300" type="curve"/>
      <point x="210" y="-22"/>
      <point x="210" y="255"/>
      <point x="210" y="533" type="curve"/>
      <point x="103" y="533"/>
      <point x="210" y="533"/>
      <point x="103" y="533" type="curve"/>
      <point x="103" y="255"/>
      <point x="103" y="-22"/>
      <point x="103" y="-300" type="curve"/>
      <point x="210" y="-300"/>
      <point x="103" y="-300"/>
    </contour>
  </outline>
</glyph>
<glyph name="r" format="1">
  <advance width="479"/>
  <unicode hex="0072"/>
  <outline>
    <contour>
      <point x="196" y="0" type="curve"/>
      <point x="246" y="0"/>
      <point x="286" y="0"/>
      <point x="336" y="0" type="curve"/>
      <point x="336" y="56"/>
      <point x="336" y="25"/>
      <point x="336" y="81" type="curve"/>
      <point x="228" y="81"/>
      <point x="305" y="81"/>
      <point x="196" y="81" type="curve"/>
      <point x="196" y="25"/>
      <point x="196" y="56"/>
    </contour>
    <contour>
      <point x="196" y="81" type="curve"/>
      <point x="81" y="81"/>
      <point x="163" y="81"/>
      <point x="48" y="81" type="curve"/>
      <point x="48" y="25"/>
      <point x="48" y="56"/>
      <point x="48" y="0" type="curve"/>
      <point x="100" y="0"/>
      <point x="143" y="0"/>
      <point x="196" y="0" type="curve"/>
      <point x="196" y="56"/>
      <point x="196" y="25"/>
    </contour>
    <contour>
      <point x="195" y="533" type="curve"/>
      <point x="142" y="533"/>
      <point x="99" y="533"/>
      <point x="47" y="533" type="curve"/>
      <point x="47" y="477"/>
      <point x="47" y="508"/>
      <point x="47" y="452" type="curve"/>
      <point x="162" y="452"/>
      <point x="80" y="452"/>
      <point x="195" y="452" type="curve"/>
      <point x="195" y="508"/>
      <point x="195" y="477"/>
    </contour>
    <contour>
      <point x="249" y="0" type="curve"/>
      <point x="249" y="187"/>
      <point x="249" y="346"/>
      <point x="249" y="533" type="curve"/>
      <point x="176" y="533"/>
      <point x="215" y="533"/>
      <point x="142" y="533" type="curve"/>
      <point x="142" y="346"/>
      <point x="142" y="187"/>
      <point x="142" y="0" type="curve"/>
      <point x="215" y="0"/>
      <point x="176" y="0"/>
    </contour>
    <contour>
      <point x="223" y="302" type="curve"/>
      <point x="272" y="414"/>
      <point x="352" y="447"/>
      <point x="456" y="447" type="curve"/>
      <point x="456" y="509"/>
      <point x="456" y="476"/>
      <point x="456" y="538" type="curve"/>
      <point x="333" y="538"/>
      <point x="242" y="471"/>
      <point x="187" y="356" type="curve"/>
      <point x="214" y="321"/>
      <point x="198" y="336"/>
    </contour>
    <contour>
      <point x="228" y="632" type="move" name="top"/>
    </contour>
    <contour>
      <point x="224" y="0" type="move" name="bottom"/>
    </contour>
  </outline>
</glyph>
<glyph name="t" format="1">
  <advance width="436"/>
  <unicode hex="0074"/>
  <outline>
    <contour>
      <point x="16" y="452" type="curve"/>
      <point x="406" y="452" type="line"/>
      <point x="406" y="533"/>
      <point x="406" y="452"/>
      <point x="406" y="533" type="curve"/>
      <point x="16" y="533" type="line"/>
      <point x="16" y="452"/>
      <point x="16" y="533"/>
    </contour>
    <contour>
      <point x="382" y="99" type="curve"/>
      <point x="354" y="86"/>
      <point x="333" y="79"/>
      <point x="303" y="79" type="curve"/>
      <point x="251" y="79"/>
      <point x="230" y="110"/>
      <point x="230" y="165" type="curve"/>
      <point x="230" y="683" type="line"/>
      <point x="182" y="654"/>
      <point x="171" y="650"/>
      <point x="123" y="621" type="curve"/>
      <point x="123" y="161" type="line"/>
      <point x="123" y="51"/>
      <point x="184" y="-6"/>
      <point x="291" y="-6" type="curve"/>
      <point x="342" y="-6"/>
      <point x="378" y="8"/>
      <point x="416" y="28" type="curve"/>
      <point x="382" y="99"/>
      <point x="416" y="28"/>
    </contour>
    <contour>
      <point x="314" y="-8" type="move" name="bottom"/>
    </contour>
  </outline>
</glyph>
<glyph name="v" format="1">
  <advance width="699"/>
  <unicode hex="0076"/>
  <outline>
    <contour>
      <point x="143" y="533" type="curve"/>
      <point x="100" y="533"/>
      <point x="58" y="533"/>
      <point x="15" y="533" type="curve"/>
      <point x="15" y="452"/>
      <point x="15" y="533"/>
      <point x="15" y="452" type="curve"/>
      <point x="145" y="452"/>
      <point x="13" y="452"/>
      <point x="143" y="452" type="curve"/>
      <point x="143" y="533"/>
      <point x="143" y="452"/>
    </contour>
    <contour>
      <point x="143" y="452" type="curve"/>
      <point x="288" y="452"/>
      <point x="142" y="452"/>
      <point x="287" y="452" type="curve"/>
      <point x="287" y="533"/>
      <point x="287" y="452"/>
      <point x="287" y="533" type="curve"/>
      <point x="238" y="533"/>
      <point x="192" y="533"/>
      <point x="143" y="533" type="curve"/>
      <point x="143" y="452"/>
      <point x="143" y="533"/>
    </contour>
    <contour>
      <point x="562" y="533" type="curve"/>
      <point x="514" y="533"/>
      <point x="466" y="533"/>
      <point x="417" y="533" type="curve"/>
      <point x="417" y="452"/>
      <point x="417" y="533"/>
      <point x="417" y="452" type="curve"/>
      <point x="564" y="452"/>
      <point x="416" y="452"/>
      <point x="562" y="452" type="curve"/>
      <point x="562" y="533"/>
      <point x="562" y="452"/>
    </contour>
    <contour>
      <point x="562" y="452" type="curve"/>
      <point x="694" y="452"/>
      <point x="561" y="452"/>
      <point x="693" y="452" type="curve"/>
      <point x="693" y="533"/>
      <point x="693" y="452"/>
      <point x="693" y="533" type="curve"/>
      <point x="649" y="533"/>
      <point x="606" y="533"/>
      <point x="562" y="533" type="curve"/>
      <point x="562" y="452"/>
      <point x="562" y="533"/>
    </contour>
    <contour>
      <point x="72" y="533" type="curve"/>
      <point x="144" y="355"/>
      <point x="216" y="178"/>
      <point x="288" y="0" type="curve"/>
      <point x="392" y="0"/>
      <point x="288" y="0"/>
      <point x="392" y="0" type="curve"/>
      <point x="321" y="178"/>
      <point x="252" y="355"/>
      <point x="181" y="533" type="curve"/>
      <point x="72" y="533"/>
      <point x="181" y="533"/>
    </contour>
    <contour>
      <point x="526" y="533" type="curve"/>
      <point x="302" y="0" type="line"/>
      <point x="406" y="0"/>
      <point x="302" y="0"/>
      <point x="406" y="0" type="curve"/>
      <point x="482" y="178"/>
      <point x="558" y="355"/>
      <point x="634" y="533" type="curve"/>
      <point x="526" y="533"/>
      <point x="634" y="533"/>
    </contour>
  </outline>
</glyph>
<glyph name="w" format="1">
  <advance width="1039"/>
  <unicode hex="0077"/>
  <outline>
    <contour>
      <point x="891" y="452" type="curve"/>
      <point x="1031" y="452"/>
      <point x="889" y="452"/>
      <point x="1029" y="452" type="curve"/>
      <point x="1029" y="533"/>
      <point x="1029" y="452"/>
      <point x="1029" y="533" type="curve"/>
      <point x="982" y="533"/>
      <point x="937" y="533"/>
      <point x="891" y="533" type="curve"/>
      <point x="891" y="452"/>
      <point x="891" y="533"/>
    </contour>
    <contour>
      <point x="891" y="533" type="curve"/>
      <point x="843" y="533"/>
      <point x="800" y="533"/>
      <point x="754" y="533" type="curve"/>
      <point x="754" y="452"/>
      <point x="754" y="533"/>
      <point x="754" y="452" type="curve"/>
      <point x="895" y="452"/>
      <point x="749" y="452"/>
      <point x="891" y="452" type="curve"/>
      <point x="891" y="533"/>
      <point x="891" y="452"/>
    </contour>
    <contour>
      <point x="151" y="533" type="curve"/>
      <point x="104" y="533"/>
      <point x="59" y="533"/>
      <point x="12" y="533" type="curve"/>
      <point x="12" y="452"/>
      <point x="12" y="533"/>
      <point x="12" y="452" type="curve"/>
      <point x="152" y="452"/>
      <point x="11" y="452"/>
      <point x="151" y="452" type="curve"/>
      <point x="151" y="533"/>
      <point x="151" y="452"/>
    </contour>
    <contour>
      <point x="151" y="452" type="curve"/>
      <point x="291" y="452"/>
      <point x="148" y="452"/>
      <point x="288" y="452" type="curve"/>
      <point x="288" y="533"/>
      <point x="288" y="452"/>
      <point x="288" y="533" type="curve"/>
      <point x="241" y="533"/>
      <point x="197" y="533"/>
      <point x="151" y="533" type="curve"/>
      <point x="151" y="452"/>
      <point x="151" y="533"/>
    </contour>
    <contour>
      <point x="364" y="0" type="curve"/>
      <point x="435" y="178"/>
      <point x="505" y="355"/>
      <point x="575" y="533" type="curve"/>
      <point x="473" y="533"/>
      <point x="575" y="533"/>
      <point x="473" y="533" type="curve"/>
      <point x="404" y="355"/>
      <point x="334" y="178"/>
      <point x="265" y="0" type="curve"/>
      <point x="364" y="0"/>
      <point x="265" y="0"/>
    </contour>
    <contour>
      <point x="866" y="533" type="curve"/>
      <point x="801" y="355"/>
      <point x="736" y="178"/>
      <point x="671" y="0" type="curve"/>
      <point x="770" y="0"/>
      <point x="671" y="0"/>
      <point x="770" y="0" type="curve"/>
      <point x="837" y="178"/>
      <point x="903" y="355"/>
      <point x="969" y="533" type="curve"/>
      <point x="866" y="533"/>
      <point x="969" y="533"/>
    </contour>
    <contour>
      <point x="480" y="533" type="curve"/>
      <point x="543" y="355"/>
      <point x="606" y="178"/>
      <point x="670" y="0" type="curve"/>
      <point x="769" y="0"/>
      <point x="670" y="0"/>
      <point x="769" y="0" type="curve"/>
      <point x="707" y="178"/>
      <point x="643" y="355"/>
      <point x="581" y="533" type="curve"/>
      <point x="480" y="533"/>
      <point x="581" y="533"/>
    </contour>
    <contour>
      <point x="74" y="533" type="curve"/>
      <point x="137" y="355"/>
      <point x="201" y="178"/>
      <point x="264" y="0" type="curve"/>
      <point x="363" y="0"/>
      <point x="264" y="0"/>
      <point x="363" y="0" type="curve"/>
      <point x="300" y="178"/>
      <point x="238" y="355"/>
      <point x="175" y="533" type="curve"/>
      <point x="74" y="533"/>
      <point x="175" y="533"/>
    </contour>
  </outline>
</glyph>
<glyph name="x" format="1">
  <advance width="690"/>
  <unicode hex="0078"/>
  <outline>
    <contour>
      <point x="135" y="81" type="curve"/>
      <point x="3" y="81"/>
      <point x="147" y="81"/>
      <point x="15" y="81" type="curve"/>
      <point x="15" y="0"/>
      <point x="15" y="81"/>
      <point x="15" y="0" type="curve"/>
      <point x="59" y="0"/>
      <point x="91" y="0"/>
      <point x="135" y="0" type="curve"/>
      <point x="135" y="81"/>
      <point x="135" y="0"/>
    </contour>
    <contour>
      <point x="567" y="81" type="curve"/>
      <point x="392" y="81"/>
      <point x="572" y="81"/>
      <point x="397" y="81" type="curve"/>
      <point x="397" y="0"/>
      <point x="397" y="81"/>
      <point x="397" y="0" type="curve"/>
      <point x="455" y="0"/>
      <point x="509" y="0"/>
      <point x="567" y="0" type="curve"/>
      <point x="567" y="81"/>
      <point x="567" y="0"/>
    </contour>
    <contour>
      <point x="561" y="0" type="curve"/>
      <point x="605" y="0"/>
      <point x="639" y="0"/>
      <point x="681" y="0" type="curve"/>
      <point x="681" y="81"/>
      <point x="681" y="0"/>
      <point x="681" y="81" type="curve"/>
      <point x="552" y="81"/>
      <point x="690" y="81"/>
      <point x="561" y="81" type="curve"/>
      <point x="561" y="0"/>
      <point x="561" y="81"/>
    </contour>
    <contour>
      <point x="129" y="0" type="curve"/>
      <point x="188" y="0"/>
      <point x="123" y="0"/>
      <point x="300" y="0" type="curve"/>
      <point x="300" y="81"/>
      <point x="300" y="0"/>
      <point x="300" y="81" type="curve"/>
      <point x="123" y="81"/>
      <point x="305" y="81"/>
      <point x="129" y="81" type="curve"/>
      <point x="129" y="0"/>
      <point x="129" y="81"/>
    </contour>
    <contour>
      <point x="538" y="452" type="curve"/>
      <point x="672" y="452"/>
      <point x="530" y="452"/>
      <point x="665" y="452" type="curve"/>
      <point x="665" y="533"/>
      <point x="665" y="452"/>
      <point x="665" y="533" type="curve"/>
      <point x="620" y="533"/>
      <point x="582" y="533"/>
      <point x="538" y="533" type="curve"/>
      <point x="538" y="452"/>
      <point x="538" y="533"/>
    </contour>
    <contour>
      <point x="170" y="533" type="curve"/>
      <point x="123" y="533"/>
      <point x="88" y="533"/>
      <point x="42" y="533" type="curve"/>
      <point x="42" y="452"/>
      <point x="42" y="533"/>
      <point x="42" y="452" type="curve"/>
      <point x="180" y="452"/>
      <point x="31" y="452"/>
      <point x="170" y="452" type="curve"/>
      <point x="170" y="533"/>
      <point x="170" y="452"/>
    </contour>
    <contour>
      <point x="150" y="452" type="curve"/>
      <point x="318" y="452"/>
      <point x="137" y="452"/>
      <point x="305" y="452" type="curve"/>
      <point x="305" y="533"/>
      <point x="305" y="452"/>
      <point x="305" y="533" type="curve"/>
      <point x="249" y="533"/>
      <point x="206" y="533"/>
      <point x="150" y="533" type="curve"/>
      <point x="150" y="452"/>
      <point x="150" y="533"/>
    </contour>
    <contour>
      <point x="547" y="533" type="curve"/>
      <point x="493" y="533"/>
      <point x="452" y="533"/>
      <point x="399" y="533" type="curve"/>
      <point x="399" y="452"/>
      <point x="399" y="533"/>
      <point x="399" y="452" type="curve"/>
      <point x="560" y="452"/>
      <point x="386" y="452"/>
      <point x="547" y="452" type="curve"/>
      <point x="547" y="533"/>
      <point x="547" y="452"/>
    </contour>
    <contour>
      <point x="616" y="31" type="curve"/>
      <point x="564" y="95"/>
      <point x="226" y="470"/>
      <point x="174" y="533" type="curve"/>
      <point x="80" y="533"/>
      <point x="188" y="499"/>
      <point x="93" y="499" type="curve"/>
      <point x="145" y="436"/>
      <point x="476" y="63"/>
      <point x="527" y="0" type="curve"/>
      <point x="630" y="0"/>
      <point x="514" y="31"/>
    </contour>
    <contour>
      <point x="532" y="533" type="curve"/>
      <point x="479" y="470"/>
      <point x="130" y="97"/>
      <point x="78" y="33" type="curve"/>
      <point x="181" y="33"/>
      <point x="66" y="0"/>
      <point x="168" y="0" type="curve"/>
      <point x="220" y="63"/>
      <point x="557" y="435"/>
      <point x="610" y="498" type="curve"/>
      <point x="515" y="498"/>
      <point x="627" y="533"/>
    </contour>
  </outline>
</glyph>
<glyph name="y" format="1">
  <advance width="742"/>
  <unicode hex="0079"/>
  <outline>
    <contour>
      <point x="237" y="-218" type="curve"/>
      <point x="111" y="-219"/>
      <point x="239" y="-218"/>
      <point x="113" y="-219" type="curve"/>
      <point x="113" y="-300"/>
      <point x="113" y="-219"/>
      <point x="113" y="-300" type="curve"/>
      <point x="155" y="-300"/>
      <point x="195" y="-300"/>
      <point x="237" y="-300" type="curve"/>
      <point x="237" y="-218"/>
      <point x="237" y="-300"/>
    </contour>
    <contour>
      <point x="157" y="533" type="curve"/>
      <point x="110" y="533"/>
      <point x="63" y="533"/>
      <point x="15" y="533" type="curve"/>
      <point x="15" y="452"/>
      <point x="15" y="533"/>
      <point x="15" y="452" type="curve"/>
      <point x="159" y="452"/>
      <point x="14" y="452"/>
      <point x="157" y="452" type="curve"/>
      <point x="157" y="533"/>
      <point x="157" y="452"/>
    </contour>
    <contour>
      <point x="157" y="452" type="curve"/>
      <point x="308" y="452"/>
      <point x="156" y="452"/>
      <point x="307" y="452" type="curve"/>
      <point x="307" y="533"/>
      <point x="307" y="452"/>
      <point x="307" y="533" type="curve"/>
      <point x="256" y="533"/>
      <point x="208" y="533"/>
      <point x="157" y="533" type="curve"/>
      <point x="157" y="452"/>
      <point x="157" y="533"/>
    </contour>
    <contour>
      <point x="599" y="533" type="curve"/>
      <point x="547" y="533"/>
      <point x="496" y="533"/>
      <point x="444" y="533" type="curve"/>
      <point x="444" y="452"/>
      <point x="444" y="533"/>
      <point x="444" y="452" type="curve"/>
      <point x="601" y="452"/>
      <point x="442" y="452"/>
      <point x="599" y="452" type="curve"/>
      <point x="599" y="533"/>
      <point x="599" y="452"/>
    </contour>
    <contour>
      <point x="599" y="452" type="curve"/>
      <point x="735" y="452"/>
      <point x="598" y="452"/>
      <point x="733" y="452" type="curve"/>
      <point x="733" y="533"/>
      <point x="733" y="452"/>
      <point x="733" y="533" type="curve"/>
      <point x="688" y="533"/>
      <point x="644" y="533"/>
      <point x="599" y="533" type="curve"/>
      <point x="599" y="452"/>
      <point x="599" y="533"/>
    </contour>
    <contour>
      <point x="411" y="-7" type="curve"/>
      <point x="372" y="82"/>
      <point x="224" y="443"/>
      <point x="185" y="533" type="curve"/>
      <point x="75" y="533"/>
      <point x="185" y="533"/>
      <point x="75" y="533" type="curve"/>
      <point x="116" y="444"/>
      <point x="274" y="74"/>
      <point x="315" y="-15" type="curve"/>
      <point x="411" y="-15"/>
      <point x="315" y="-7"/>
    </contour>
    <contour>
      <point x="280" y="-300" type="curve"/>
      <point x="345" y="-163"/>
      <point x="611" y="396"/>
      <point x="676" y="533" type="curve"/>
      <point x="567" y="533"/>
      <point x="676" y="533"/>
      <point x="567" y="533" type="curve"/>
      <point x="502" y="396"/>
      <point x="235" y="-163"/>
      <point x="170" y="-300" type="curve"/>
      <point x="280" y="-300"/>
      <point x="170" y="-300"/>
    </contour>
    <contour>
      <point x="375" y="632" type="move" name="top"/>
    </contour>
  </outline>
</glyph>
<glyph name="braceleft" format="1">
  <advance width="330"/>
  <unicode hex="007B"/>
  <outline>
    <contour>
      <point x="280" y="-32" type="curve"/>
      <point x="229" y="-32"/>
      <point x="207" y="2"/>
      <point x="207" y="53" type="curve"/>
      <point x="207" y="106"/>
      <point x="207" y="160"/>
      <point x="207" y="214" type="curve"/>
      <point x="207" y="317"/>
      <point x="143" y="383"/>
      <point x="39" y="383" type="curve"/>
      <point x="39" y="298"/>
      <point x="39" y="383"/>
      <point x="39" y="298" type="curve"/>
      <point x="86" y="298"/>
      <point x="110" y="269"/>
      <point x="110" y="221" type="curve"/>
      <point x="110" y="167"/>
      <point x="110" y="111"/>
      <point x="110" y="57" type="curve"/>
      <point x="110" y="-49"/>
      <point x="174" y="-113"/>
      <point x="280" y="-113" type="curve"/>
      <point x="280" y="-32"/>
      <point x="280" y="-113"/>
    </contour>
    <contour>
      <point x="280" y="793" type="curve"/>
      <point x="174" y="793"/>
      <point x="110" y="731"/>
      <point x="110" y="626" type="curve"/>
      <point x="110" y="569"/>
      <point x="110" y="513"/>
      <point x="110" y="456" type="curve"/>
      <point x="110" y="409"/>
      <point x="85" y="383"/>
      <point x="39" y="383" type="curve"/>
      <point x="39" y="298"/>
      <point x="39" y="383"/>
      <point x="39" y="298" type="curve"/>
      <point x="143" y="298"/>
      <point x="207" y="362"/>
      <point x="207" y="468" type="curve"/>
      <point x="207" y="521"/>
      <point x="207" y="573"/>
      <point x="207" y="626" type="curve"/>
      <point x="207" y="677"/>
      <point x="229" y="712"/>
      <point x="280" y="712" type="curve"/>
      <point x="280" y="793"/>
      <point x="280" y="712"/>
    </contour>
  </outline>
</glyph>
<glyph name="bar" format="1">
  <advance width="265"/>
  <unicode hex="007C"/>
  <outline>
    <contour>
      <point x="186" y="-300" type="curve"/>
      <point x="186" y="67"/>
      <point x="186" y="433"/>
      <point x="186" y="800" type="curve"/>
      <point x="80" y="800"/>
      <point x="186" y="800"/>
      <point x="80" y="800" type="curve"/>
      <point x="80" y="433"/>
      <point x="80" y="67"/>
      <point x="80" y="-300" type="curve"/>
      <point x="186" y="-300"/>
      <point x="80" y="-300"/>
    </contour>
  </outline>
</glyph>
<glyph name="braceright" format="1">
  <advance width="331"/>
  <unicode hex="007D"/>
  <outline>
    <contour>
      <point x="51" y="-113" type="curve"/>
      <point x="156" y="-113"/>
      <point x="220" y="-49"/>
      <point x="220" y="57" type="curve"/>
      <point x="220" y="111"/>
      <point x="220" y="167"/>
      <point x="220" y="221" type="curve"/>
      <point x="220" y="269"/>
      <point x="245" y="298"/>
      <point x="292" y="298" type="curve"/>
      <point x="292" y="383"/>
      <point x="292" y="298"/>
      <point x="292" y="383" type="curve"/>
      <point x="188" y="383"/>
      <point x="123" y="317"/>
      <point x="123" y="214" type="curve"/>
      <point x="123" y="160"/>
      <point x="123" y="106"/>
      <point x="123" y="53" type="curve"/>
      <point x="123" y="2"/>
      <point x="101" y="-32"/>
      <point x="51" y="-32" type="curve"/>
      <point x="51" y="-113"/>
      <point x="51" y="-32"/>
    </contour>
    <contour>
      <point x="51" y="712" type="curve"/>
      <point x="102" y="712"/>
      <point x="123" y="677"/>
      <point x="123" y="626" type="curve"/>
      <point x="123" y="573"/>
      <point x="123" y="521"/>
      <point x="123" y="468" type="curve"/>
      <point x="123" y="362"/>
      <point x="187" y="298"/>
      <point x="292" y="298" type="curve"/>
      <point x="292" y="383"/>
      <point x="292" y="298"/>
      <point x="292" y="383" type="curve"/>
      <point x="245" y="383"/>
      <point x="220" y="409"/>
      <point x="220" y="456" type="curve"/>
      <point x="220" y="513"/>
      <point x="220" y="569"/>
      <point x="220" y="626" type="curve"/>
      <point x="220" y="731"/>
      <point x="156" y="793"/>
      <point x="51" y="793" type="curve"/>
      <point x="51" y="712"/>
      <point x="51" y="793"/>
    </contour>
  </outline>
</glyph>
<glyph name="asciitilde" format="1">
  <advance width="725"/>
  <unicode hex="007E"/>
  <outline>
    <contour>
      <point x="571" y="368" type="curve"/>
      <point x="554" y="324"/>
      <point x="535" y="284"/>
      <point x="491" y="284" type="curve"/>
      <point x="450" y="284"/>
      <point x="425" y="295"/>
      <point x="392" y="319" type="curve"/>
      <point x="342" y="357"/>
      <point x="306" y="377"/>
      <point x="243" y="377" type="curve"/>
      <point x="147" y="377"/>
      <point x="100" y="329"/>
      <point x="72" y="239" type="curve"/>
      <point x="107" y="225"/>
      <point x="116" y="221"/>
      <point x="151" y="207" type="curve"/>
      <point x="167" y="257"/>
      <point x="189" y="294"/>
      <point x="239" y="294" type="curve"/>
      <point x="275" y="294"/>
      <point x="296" y="284"/>
      <point x="325" y="262" type="curve"/>
      <point x="380" y="222"/>
      <point x="418" y="202"/>
      <point x="486" y="201" type="curve"/>
      <point x="578" y="201"/>
      <point x="621" y="251"/>
      <point x="654" y="336" type="curve"/>
      <point x="617" y="350"/>
      <point x="608" y="354"/>
    </contour>
  </outline>
</glyph>
<glyph name="exclamdown" format="1">
  <advance width="266"/>
  <unicode hex="00A1"/>
  <outline>
    <contour>
      <point x="87" y="304" type="line"/>
      <point x="75" y="-189" type="line"/>
      <point x="190" y="-189" type="line"/>
      <point x="180" y="304" type="line"/>
    </contour>
    <contour>
      <point x="72" y="488" type="curve"/>
      <point x="72" y="451"/>
      <point x="98" y="434"/>
      <point x="134" y="433" type="curve"/>
      <point x="170" y="433"/>
      <point x="194" y="453"/>
      <point x="194" y="487" type="curve"/>
      <point x="77" y="488"/>
      <point x="190" y="487"/>
      <point x="72" y="488" type="curve"/>
      <point x="72" y="524"/>
      <point x="98" y="541"/>
      <point x="135" y="541" type="curve"/>
      <point x="171" y="541"/>
      <point x="194" y="523"/>
      <point x="194" y="487" type="curve"/>
      <point x="77" y="488"/>
      <point x="190" y="487"/>
    </contour>
  </outline>
</glyph>
<glyph name="cent" format="1">
  <advance width="699"/>
  <unicode hex="00A2"/>
  <outline>
    <contour>
      <point x="422" y="-53" type="curve"/>
      <point x="422" y="-13"/>
      <point x="422" y="27"/>
      <point x="422" y="67" type="curve"/>
      <point x="316" y="67"/>
      <point x="422" y="67"/>
      <point x="316" y="67" type="curve"/>
      <point x="316" y="27"/>
      <point x="316" y="-13"/>
      <point x="316" y="-53" type="curve"/>
      <point x="422" y="-53"/>
      <point x="316" y="-53"/>
    </contour>
    <contour>
      <point x="338" y="778" type="curve"/>
      <point x="338" y="742"/>
      <point x="338" y="706"/>
      <point x="338" y="670" type="curve"/>
      <point x="444" y="670"/>
      <point x="338" y="670"/>
      <point x="444" y="670" type="curve"/>
      <point x="444" y="706"/>
      <point x="444" y="742"/>
      <point x="444" y="778" type="curve"/>
      <point x="338" y="778"/>
      <point x="444" y="778"/>
    </contour>
    <contour>
      <point x="641" y="612" type="curve"/>
      <point x="560" y="664"/>
      <point x="494" y="684"/>
      <point x="399" y="684" type="curve"/>
      <point x="190" y="684"/>
      <point x="54" y="568"/>
      <point x="54" y="364" type="curve"/>
      <point x="54" y="170"/>
      <point x="169" y="48"/>
      <point x="363" y="48" type="curve"/>
      <point x="474" y="48"/>
      <point x="552" y="75"/>
      <point x="640" y="142" type="curve"/>
      <point x="580" y="209"/>
      <point x="640" y="142"/>
      <point x="580" y="209" type="curve"/>
      <point x="509" y="159"/>
      <point x="455" y="133"/>
      <point x="373" y="133" type="curve"/>
      <point x="236" y="133"/>
      <point x="161" y="227"/>
      <point x="161" y="368" type="curve"/>
      <point x="161" y="512"/>
      <point x="249" y="599"/>
      <point x="389" y="599" type="curve"/>
      <point x="465" y="599"/>
      <point x="518" y="582"/>
      <point x="588" y="542" type="curve"/>
      <point x="641" y="612"/>
      <point x="588" y="542"/>
    </contour>
    <contour>
      <point x="558" y="612" type="curve"/>
      <point x="558" y="489"/>
      <point x="558" y="595"/>
      <point x="558" y="472" type="curve"/>
      <point x="641" y="472"/>
      <point x="558" y="472"/>
      <point x="641" y="472" type="curve"/>
      <point x="641" y="595"/>
      <point x="641" y="489"/>
      <point x="641" y="612" type="curve"/>
      <point x="558" y="612"/>
      <point x="641" y="612"/>
    </contour>
  </outline>
</glyph>
<glyph name="sterling" format="1">
  <advance width="546"/>
  <unicode hex="00A3"/>
  <outline>
    <contour>
      <point x="473" y="81" type="curve"/>
      <point x="333" y="81"/>
      <point x="191" y="81"/>
      <point x="51" y="81" type="curve"/>
      <point x="51" y="0"/>
      <point x="51" y="81"/>
      <point x="51" y="0" type="curve"/>
      <point x="191" y="0"/>
      <point x="333" y="0"/>
      <point x="473" y="0" type="curve"/>
      <point x="473" y="81"/>
      <point x="473" y="0"/>
    </contour>
    <contour>
      <point x="422" y="416" type="curve"/>
      <point x="310" y="416"/>
      <point x="195" y="416"/>
      <point x="84" y="416" type="curve"/>
      <point x="84" y="335"/>
      <point x="84" y="416"/>
      <point x="84" y="335" type="curve"/>
      <point x="195" y="335"/>
      <point x="310" y="335"/>
      <point x="422" y="335" type="curve"/>
      <point x="422" y="416"/>
      <point x="422" y="335"/>
    </contour>
    <contour>
      <point x="500" y="666" type="curve"/>
      <point x="449" y="707"/>
      <point x="406" y="721"/>
      <point x="343" y="721" type="curve"/>
      <point x="171" y="721"/>
      <point x="104" y="561"/>
      <point x="149" y="367" type="curve"/>
      <point x="184" y="217"/>
      <point x="162" y="81"/>
      <point x="51" y="81" type="curve"/>
      <point x="51" y="0"/>
      <point x="51" y="81"/>
      <point x="51" y="0" type="curve"/>
      <point x="237" y="0"/>
      <point x="298" y="176"/>
      <point x="251" y="384" type="curve"/>
      <point x="220" y="521"/>
      <point x="243" y="644"/>
      <point x="338" y="644" type="curve"/>
      <point x="383" y="644"/>
      <point x="411" y="630"/>
      <point x="448" y="606" type="curve"/>
      <point x="500" y="666"/>
      <point x="448" y="606"/>
    </contour>
  </outline>
</glyph>
<glyph name="currency" format="1">
  <advance width="693"/>
  <unicode hex="00A4"/>
  <outline>
    <contour>
      <point x="245" y="315" type="curve"/>
      <point x="245" y="378"/>
      <point x="281" y="419"/>
      <point x="345" y="419" type="curve"/>
      <point x="412" y="419"/>
      <point x="448" y="380"/>
      <point x="448" y="314" type="curve"/>
      <point x="448" y="249"/>
      <point x="415" y="204"/>
      <point x="352" y="204" type="curve"/>
      <point x="283" y="204"/>
      <point x="245" y="246"/>
      <point x="245" y="315" type="curve"/>
      <point x="138" y="315"/>
      <point x="247" y="315"/>
      <point x="140" y="315" type="curve"/>
      <point x="140" y="192"/>
      <point x="224" y="123"/>
      <point x="349" y="123" type="curve"/>
      <point x="473" y="123"/>
      <point x="553" y="196"/>
      <point x="553" y="317" type="curve"/>
      <point x="553" y="433"/>
      <point x="474" y="500"/>
      <point x="355" y="500" type="curve"/>
      <point x="227" y="500"/>
      <point x="140" y="435"/>
      <point x="140" y="315" type="curve"/>
      <point x="247" y="315"/>
      <point x="138" y="315"/>
    </contour>
    <contour>
      <point x="476" y="349" type="line"/>
      <point x="632" y="495" type="line"/>
      <point x="551" y="576" type="line"/>
      <point x="405" y="420" type="line"/>
    </contour>
    <contour>
      <point x="407" y="210" type="line"/>
      <point x="553" y="53" type="line"/>
      <point x="634" y="135" type="line"/>
      <point x="478" y="281" type="line"/>
    </contour>
    <contour>
      <point x="215" y="281" type="line"/>
      <point x="59" y="136" type="line"/>
      <point x="140" y="54" type="line"/>
      <point x="286" y="210" type="line"/>
    </contour>
    <contour>
      <point x="289" y="421" type="line"/>
      <point x="143" y="577" type="line"/>
      <point x="62" y="496" type="line"/>
      <point x="218" y="350" type="line"/>
    </contour>
  </outline>
</glyph>
<glyph name="yen" format="1">
  <advance width="786"/>
  <unicode hex="00A5"/>
  <outline>
    <contour>
      <point x="622" y="414" type="curve"/>
      <point x="549" y="414"/>
      <point x="476" y="414"/>
      <point x="402" y="414" type="curve"/>
      <point x="402" y="325"/>
      <point x="402" y="414"/>
      <point x="402" y="325" type="curve"/>
      <point x="476" y="325"/>
      <point x="549" y="325"/>
      <point x="622" y="325" type="curve"/>
      <point x="622" y="414"/>
      <point x="622" y="325"/>
    </contour>
    <contour>
      <point x="372" y="414" type="curve"/>
      <point x="300" y="414"/>
      <point x="228" y="414"/>
      <point x="156" y="414" type="curve"/>
      <point x="156" y="325"/>
      <point x="156" y="414"/>
      <point x="156" y="325" type="curve"/>
      <point x="228" y="325"/>
      <point x="300" y="325"/>
      <point x="372" y="325" type="curve"/>
      <point x="372" y="414"/>
      <point x="372" y="325"/>
    </contour>
    <contour>
      <point x="622" y="270" type="curve"/>
      <point x="467" y="270"/>
      <point x="311" y="270"/>
      <point x="156" y="270" type="curve"/>
      <point x="156" y="181"/>
      <point x="156" y="270"/>
      <point x="156" y="181" type="curve"/>
      <point x="311" y="181"/>
      <point x="467" y="181"/>
      <point x="622" y="181" type="curve"/>
      <point x="622" y="270"/>
      <point x="622" y="181"/>
    </contour>
    <contour>
      <point x="385" y="81" type="curve"/>
      <point x="230" y="81"/>
      <point x="387" y="81"/>
      <point x="232" y="81" type="curve"/>
      <point x="232" y="0"/>
      <point x="232" y="81"/>
      <point x="232" y="0" type="curve"/>
      <point x="283" y="0"/>
      <point x="334" y="0"/>
      <point x="385" y="0" type="curve"/>
      <point x="385" y="81"/>
      <point x="385" y="0"/>
    </contour>
    <contour>
      <point x="385" y="0" type="curve"/>
      <point x="437" y="0"/>
      <point x="488" y="0"/>
      <point x="539" y="0" type="curve"/>
      <point x="539" y="81"/>
      <point x="539" y="0"/>
      <point x="539" y="81" type="curve"/>
      <point x="384" y="81"/>
      <point x="541" y="81"/>
      <point x="385" y="81" type="curve"/>
      <point x="385" y="0"/>
      <point x="385" y="81"/>
    </contour>
    <contour>
      <point x="604" y="722" type="curve"/>
      <point x="553" y="722"/>
      <point x="504" y="722"/>
      <point x="453" y="722" type="curve"/>
      <point x="453" y="641"/>
      <point x="453" y="722"/>
      <point x="453" y="641" type="curve"/>
      <point x="606" y="641"/>
      <point x="452" y="641"/>
      <point x="604" y="641" type="curve"/>
      <point x="604" y="722"/>
      <point x="604" y="641"/>
    </contour>
    <contour>
      <point x="174" y="722" type="curve"/>
      <point x="128" y="722"/>
      <point x="83" y="722"/>
      <point x="38" y="722" type="curve"/>
      <point x="38" y="641"/>
      <point x="38" y="722"/>
      <point x="38" y="641" type="curve"/>
      <point x="175" y="641"/>
      <point x="36" y="641"/>
      <point x="174" y="641" type="curve"/>
      <point x="174" y="722"/>
      <point x="174" y="641"/>
    </contour>
    <contour>
      <point x="180" y="641" type="curve"/>
      <point x="332" y="641"/>
      <point x="178" y="641"/>
      <point x="330" y="641" type="curve"/>
      <point x="330" y="722"/>
      <point x="330" y="641"/>
      <point x="330" y="722" type="curve"/>
      <point x="279" y="722"/>
      <point x="230" y="722"/>
      <point x="180" y="722" type="curve"/>
      <point x="180" y="641"/>
      <point x="180" y="722"/>
    </contour>
    <contour>
      <point x="610" y="641" type="curve"/>
      <point x="749" y="641"/>
      <point x="609" y="641"/>
      <point x="748" y="641" type="curve"/>
      <point x="748" y="722"/>
      <point x="748" y="641"/>
      <point x="748" y="722" type="curve"/>
      <point x="702" y="722"/>
      <point x="657" y="722"/>
      <point x="610" y="722" type="curve"/>
      <point x="610" y="641"/>
      <point x="610" y="722"/>
    </contour>
    <contour>
      <point x="98" y="708" type="curve"/>
      <point x="176" y="584"/>
      <point x="252" y="461"/>
      <point x="330" y="337" type="curve"/>
      <point x="438" y="337"/>
      <point x="323" y="337"/>
      <point x="431" y="337" type="curve"/>
      <point x="352" y="466"/>
      <point x="274" y="593"/>
      <point x="195" y="722" type="curve"/>
      <point x="98" y="722"/>
      <point x="195" y="708"/>
    </contour>
    <contour>
      <point x="590" y="722" type="curve"/>
      <point x="505" y="592"/>
      <point x="422" y="466"/>
      <point x="337" y="337" type="curve"/>
      <point x="445" y="337"/>
      <point x="333" y="337"/>
      <point x="441" y="337" type="curve"/>
      <point x="523" y="461"/>
      <point x="605" y="585"/>
      <point x="687" y="708" type="curve"/>
      <point x="590" y="708"/>
      <point x="687" y="722"/>
    </contour>
    <contour>
      <point x="443" y="0" type="curve"/>
      <point x="443" y="114"/>
      <point x="443" y="227"/>
      <point x="443" y="341" type="curve"/>
      <point x="327" y="341"/>
      <point x="443" y="341"/>
      <point x="327" y="341" type="curve"/>
      <point x="327" y="227"/>
      <point x="327" y="114"/>
      <point x="327" y="0" type="curve"/>
      <point x="443" y="0"/>
      <point x="327" y="0"/>
    </contour>
  </outline>
</glyph>
<glyph name="section" format="1">
  <advance width="563"/>
  <unicode hex="00A7"/>
  <outline>
    <contour>
      <point x="453" y="704" type="curve"/>
      <point x="394" y="734"/>
      <point x="350" y="749"/>
      <point x="285" y="749" type="curve"/>
      <point x="174" y="749"/>
      <point x="95" y="703"/>
      <point x="95" y="605" type="curve"/>
      <point x="95" y="517"/>
      <point x="156" y="473"/>
      <point x="244" y="445" type="curve"/>
      <point x="317" y="422"/>
      <point x="400" y="419"/>
      <point x="400" y="358" type="curve"/>
      <point x="400" y="300"/>
      <point x="353" y="275"/>
      <point x="288" y="264" type="curve"/>
      <point x="351" y="199"/>
      <point x="288" y="264"/>
      <point x="351" y="199" type="curve"/>
      <point x="445" y="220"/>
      <point x="507" y="269"/>
      <point x="507" y="361" type="curve"/>
      <point x="506" y="469"/>
      <point x="407" y="491"/>
      <point x="297" y="522" type="curve"/>
      <point x="245" y="538"/>
      <point x="198" y="555"/>
      <point x="198" y="605" type="curve"/>
      <point x="198" y="647"/>
      <point x="231" y="669"/>
      <point x="280" y="669" type="curve"/>
      <point x="330" y="669"/>
      <point x="361" y="658"/>
      <point x="409" y="636" type="curve"/>
      <point x="453" y="704"/>
      <point x="409" y="636"/>
    </contour>
    <contour>
      <point x="211" y="523" type="curve"/>
      <point x="122" y="498"/>
      <point x="59" y="455"/>
      <point x="59" y="366" type="curve"/>
      <point x="59" y="265"/>
      <point x="144" y="232"/>
      <point x="248" y="203" type="curve"/>
      <point x="308" y="184"/>
      <point x="372" y="172"/>
      <point x="372" y="120" type="curve"/>
      <point x="372" y="75"/>
      <point x="334" y="54"/>
      <point x="284" y="54" type="curve"/>
      <point x="228" y="54"/>
      <point x="193" y="68"/>
      <point x="140" y="96" type="curve"/>
      <point x="87" y="34"/>
      <point x="140" y="96"/>
      <point x="87" y="34" type="curve"/>
      <point x="151" y="-9"/>
      <point x="205" y="-27"/>
      <point x="281" y="-27" type="curve"/>
      <point x="392" y="-27"/>
      <point x="477" y="18"/>
      <point x="477" y="122" type="curve"/>
      <point x="475" y="213"/>
      <point x="407" y="253"/>
      <point x="315" y="279" type="curve"/>
      <point x="243" y="301"/>
      <point x="166" y="308"/>
      <point x="166" y="371" type="curve"/>
      <point x="166" y="424"/>
      <point x="207" y="446"/>
      <point x="263" y="463" type="curve"/>
      <point x="211" y="523"/>
      <point x="263" y="463"/>
    </contour>
    <contour>
      <point x="171" y="34" type="curve"/>
      <point x="171" y="154"/>
      <point x="171" y="36"/>
      <point x="171" y="156" type="curve"/>
      <point x="87" y="156"/>
      <point x="171" y="156"/>
      <point x="87" y="156" type="curve"/>
      <point x="87" y="36"/>
      <point x="87" y="154"/>
      <point x="87" y="34" type="curve"/>
      <point x="171" y="34"/>
      <point x="87" y="34"/>
    </contour>
    <contour>
      <point x="453" y="582" type="curve"/>
      <point x="453" y="702"/>
      <point x="453" y="584"/>
      <point x="453" y="704" type="curve"/>
      <point x="370" y="704"/>
      <point x="453" y="704"/>
      <point x="370" y="704" type="curve"/>
      <point x="370" y="584"/>
      <point x="370" y="702"/>
      <point x="370" y="582" type="curve"/>
      <point x="453" y="582"/>
      <point x="370" y="582"/>
    </contour>
  </outline>
</glyph>
<glyph name="dieresis" format="1">
  <advance width="407"/>
  <unicode hex="00A8"/>
  <outline>
    <contour>
      <point x="158" y="635" type="curve"/>
      <point x="158" y="671"/>
      <point x="132" y="689"/>
      <point x="96" y="689" type="curve"/>
      <point x="60" y="689"/>
      <point x="36" y="669"/>
      <point x="36" y="635" type="curve"/>
      <point x="153" y="635"/>
      <point x="40" y="635"/>
      <point x="158" y="635" type="curve"/>
      <point x="158" y="598"/>
      <point x="132" y="581"/>
      <point x="95" y="581" type="curve"/>
      <point x="59" y="581"/>
      <point x="36" y="600"/>
      <point x="36" y="635" type="curve"/>
      <point x="153" y="635"/>
      <point x="40" y="635"/>
    </contour>
    <contour>
      <point x="345" y="635" type="curve"/>
      <point x="345" y="671"/>
      <point x="319" y="689"/>
      <point x="283" y="689" type="curve"/>
      <point x="247" y="689"/>
      <point x="223" y="669"/>
      <point x="223" y="635" type="curve"/>
      <point x="341" y="635"/>
      <point x="228" y="635"/>
      <point x="345" y="635" type="curve"/>
      <point x="345" y="598"/>
      <point x="320" y="581"/>
      <point x="283" y="581" type="curve"/>
      <point x="247" y="581"/>
      <point x="223" y="600"/>
      <point x="223" y="635" type="curve"/>
      <point x="341" y="635"/>
      <point x="228" y="635"/>
    </contour>
    <contour>
      <point x="190" y="585" type="move" name="_top"/>
    </contour>
  </outline>
</glyph>
<glyph name="copyright" format="1">
  <advance width="837"/>
  <unicode hex="00A9"/>
  <outline>
    <contour>
      <point x="146" y="323" type="curve"/>
      <point x="146" y="482"/>
      <point x="260" y="579"/>
      <point x="422" y="579" type="curve"/>
      <point x="581" y="579"/>
      <point x="692" y="479"/>
      <point x="692" y="321" type="curve"/>
      <point x="692" y="167"/>
      <point x="585" y="69"/>
      <point x="430" y="69" type="curve"/>
      <point x="267" y="69"/>
      <point x="146" y="163"/>
      <point x="146" y="323" type="curve"/>
      <point x="59" y="323"/>
      <point x="147" y="323"/>
      <point x="60" y="323" type="curve"/>
      <point x="60" y="121"/>
      <point x="216" y="3"/>
      <point x="427" y="3" type="curve"/>
      <point x="630" y="3"/>
      <point x="777" y="125"/>
      <point x="777" y="324" type="curve"/>
      <point x="777" y="524"/>
      <point x="628" y="645"/>
      <point x="422" y="645" type="curve"/>
      <point x="214" y="645"/>
      <point x="60" y="525"/>
      <point x="60" y="323" type="curve"/>
      <point x="147" y="323"/>
      <point x="59" y="323"/>
    </contour>
    <contour>
      <point x="493" y="427" type="curve"/>
      <point x="493" y="412"/>
      <point x="493" y="394"/>
      <point x="493" y="376" type="curve"/>
      <point x="572" y="376"/>
      <point x="494" y="376"/>
      <point x="573" y="376" type="curve"/>
      <point x="573" y="406"/>
      <point x="573" y="439"/>
      <point x="573" y="466" type="curve"/>
      <point x="494" y="430"/>
      <point x="572" y="463"/>
    </contour>
    <contour>
      <point x="573" y="466" type="curve"/>
      <point x="530" y="495"/>
      <point x="485" y="508"/>
      <point x="428" y="508" type="curve"/>
      <point x="307" y="508"/>
      <point x="228" y="440"/>
      <point x="228" y="322" type="curve"/>
      <point x="228" y="208"/>
      <point x="298" y="141"/>
      <point x="413" y="141" type="curve"/>
      <point x="478" y="141"/>
      <point x="525" y="151"/>
      <point x="577" y="195" type="curve"/>
      <point x="530" y="241"/>
      <point x="577" y="195"/>
      <point x="530" y="241" type="curve"/>
      <point x="488" y="217"/>
      <point x="459" y="207"/>
      <point x="417" y="207" type="curve"/>
      <point x="348" y="207"/>
      <point x="312" y="254"/>
      <point x="312" y="325" type="curve"/>
      <point x="312" y="397"/>
      <point x="352" y="441"/>
      <point x="425" y="441" type="curve"/>
      <point x="453" y="441"/>
      <point x="474" y="436"/>
      <point x="493" y="428" type="curve"/>
      <point x="572" y="463"/>
      <point x="494" y="430"/>
    </contour>
  </outline>
</glyph>
<glyph name="ordfeminine" format="1">
  <advance width="481"/>
  <unicode hex="00AA"/>
  <outline>
    <contour>
      <point x="79" y="724" type="curve"/>
      <point x="79" y="667"/>
      <point x="79" y="709"/>
      <point x="79" y="651" type="curve"/>
      <point x="132" y="651"/>
      <point x="83" y="651"/>
      <point x="137" y="651" type="curve"/>
      <point x="137" y="709"/>
      <point x="137" y="667"/>
      <point x="137" y="724" type="curve"/>
      <point x="83" y="724"/>
      <point x="132" y="724"/>
    </contour>
    <contour>
      <point x="372" y="426" type="curve"/>
      <point x="372" y="512"/>
      <point x="372" y="586"/>
      <point x="372" y="671" type="curve"/>
      <point x="372" y="750"/>
      <point x="308" y="775"/>
      <point x="224" y="775" type="curve"/>
      <point x="162" y="775"/>
      <point x="115" y="754"/>
      <point x="79" y="724" type="curve"/>
      <point x="105" y="681"/>
      <point x="83" y="719"/>
      <point x="110" y="676" type="curve"/>
      <point x="133" y="697"/>
      <point x="168" y="717"/>
      <point x="214" y="717" type="curve"/>
      <point x="261" y="717"/>
      <point x="299" y="703"/>
      <point x="299" y="659" type="curve"/>
      <point x="299" y="578"/>
      <point x="299" y="507"/>
      <point x="299" y="426" type="curve"/>
      <point x="367" y="426"/>
      <point x="304" y="426"/>
    </contour>
    <contour>
      <point x="337" y="426" type="curve"/>
      <point x="365" y="426"/>
      <point x="391" y="426"/>
      <point x="420" y="426" type="curve"/>
      <point x="420" y="477"/>
      <point x="420" y="431"/>
      <point x="420" y="482" type="curve"/>
      <point x="352" y="482"/>
      <point x="405" y="482"/>
      <point x="337" y="482" type="curve"/>
      <point x="337" y="431"/>
      <point x="337" y="477"/>
    </contour>
    <contour>
      <point x="333" y="647" type="curve"/>
      <point x="281" y="641"/>
      <point x="248" y="639"/>
      <point x="195" y="633" type="curve"/>
      <point x="117" y="624"/>
      <point x="60" y="600"/>
      <point x="60" y="528" type="curve"/>
      <point x="60" y="456"/>
      <point x="111" y="422"/>
      <point x="188" y="422" type="curve"/>
      <point x="264" y="422"/>
      <point x="303" y="466"/>
      <point x="352" y="522" type="curve"/>
      <point x="320" y="549"/>
      <point x="349" y="525"/>
      <point x="316" y="552" type="curve"/>
      <point x="285" y="510"/>
      <point x="254" y="478"/>
      <point x="202" y="478" type="curve"/>
      <point x="160" y="478"/>
      <point x="132" y="493"/>
      <point x="132" y="529" type="curve"/>
      <point x="132" y="563"/>
      <point x="160" y="578"/>
      <point x="194" y="582" type="curve"/>
      <point x="249" y="589"/>
      <point x="282" y="592"/>
      <point x="336" y="599" type="curve"/>
      <point x="334" y="642"/>
      <point x="336" y="603"/>
    </contour>
  </outline>
</glyph>
<glyph name="guillemotleft" format="1">
  <advance width="612"/>
  <unicode hex="00AB"/>
  <outline>
    <contour>
      <point x="286" y="454" type="curve"/>
      <point x="248" y="432"/>
      <point x="97" y="353"/>
      <point x="58" y="331" type="curve"/>
      <point x="58" y="242"/>
      <point x="58" y="325"/>
      <point x="58" y="236" type="curve"/>
      <point x="97" y="258"/>
      <point x="248" y="340"/>
      <point x="286" y="363" type="curve"/>
      <point x="286" y="451"/>
      <point x="286" y="366"/>
    </contour>
    <contour>
      <point x="286" y="206" type="curve"/>
      <point x="248" y="228"/>
      <point x="97" y="308"/>
      <point x="58" y="331" type="curve"/>
      <point x="58" y="242"/>
      <point x="58" y="325"/>
      <point x="58" y="236" type="curve"/>
      <point x="97" y="213"/>
      <point x="248" y="136"/>
      <point x="286" y="114" type="curve"/>
      <point x="286" y="203"/>
      <point x="286" y="117"/>
    </contour>
    <contour>
      <point x="530" y="454" type="curve"/>
      <point x="492" y="432"/>
      <point x="341" y="353"/>
      <point x="302" y="331" type="curve"/>
      <point x="302" y="242"/>
      <point x="302" y="325"/>
      <point x="302" y="236" type="curve"/>
      <point x="341" y="258"/>
      <point x="492" y="340"/>
      <point x="530" y="363" type="curve"/>
      <point x="530" y="451"/>
      <point x="530" y="366"/>
    </contour>
    <contour>
      <point x="530" y="206" type="curve"/>
      <point x="492" y="228"/>
      <point x="341" y="308"/>
      <point x="302" y="331" type="curve"/>
      <point x="302" y="242"/>
      <point x="302" y="325"/>
      <point x="302" y="236" type="curve"/>
      <point x="341" y="213"/>
      <point x="492" y="136"/>
      <point x="530" y="114" type="curve"/>
      <point x="530" y="203"/>
      <point x="530" y="117"/>
    </contour>
  </outline>
</glyph>
<glyph name="logicalnot" format="1">
  <advance width="694"/>
  <unicode hex="00AC"/>
  <outline>
    <contour>
      <point x="89" y="268" type="curve"/>
      <point x="615" y="268" type="line"/>
      <point x="615" y="357"/>
      <point x="615" y="268"/>
      <point x="615" y="357" type="curve"/>
      <point x="89" y="357" type="line"/>
      <point x="89" y="268"/>
      <point x="89" y="357"/>
    </contour>
    <contour>
      <point x="615" y="144" type="curve"/>
      <point x="615" y="357" type="line"/>
      <point x="509" y="357"/>
      <point x="619" y="357"/>
      <point x="513" y="357" type="curve"/>
      <point x="513" y="144" type="line"/>
      <point x="619" y="144"/>
      <point x="509" y="144"/>
    </contour>
  </outline>
</glyph>
<glyph name="registered" format="1">
  <advance width="845"/>
  <unicode hex="00AE"/>
  <outline>
    <contour>
      <point x="138" y="322" type="curve"/>
      <point x="138" y="490"/>
      <point x="254" y="585"/>
      <point x="426" y="585" type="curve"/>
      <point x="595" y="585"/>
      <point x="707" y="487"/>
      <point x="707" y="320" type="curve"/>
      <point x="707" y="158"/>
      <point x="599" y="62"/>
      <point x="434" y="62" type="curve"/>
      <point x="259" y="62"/>
      <point x="138" y="153"/>
      <point x="138" y="322" type="curve"/>
      <point x="104" y="322"/>
      <point x="94" y="322"/>
      <point x="60" y="322" type="curve"/>
      <point x="60" y="114"/>
      <point x="213" y="2"/>
      <point x="430" y="2" type="curve"/>
      <point x="641" y="2"/>
      <point x="784" y="119"/>
      <point x="784" y="323" type="curve"/>
      <point x="784" y="529"/>
      <point x="639" y="645"/>
      <point x="426" y="645" type="curve"/>
      <point x="210" y="645"/>
      <point x="60" y="530"/>
      <point x="60" y="322" type="curve"/>
      <point x="94" y="322"/>
      <point x="104" y="322"/>
    </contour>
    <contour>
      <point x="512" y="144" type="curve"/>
      <point x="547" y="144"/>
      <point x="567" y="144"/>
      <point x="602" y="144" type="curve"/>
      <point x="602" y="210"/>
      <point x="602" y="144"/>
      <point x="602" y="210" type="curve"/>
      <point x="588" y="210"/>
      <point x="582" y="210"/>
      <point x="568" y="210" type="curve"/>
      <point x="516" y="178"/>
      <point x="550" y="217"/>
    </contour>
    <contour>
      <point x="390" y="503" type="curve"/>
      <point x="345" y="503"/>
      <point x="306" y="503"/>
      <point x="261" y="503" type="curve"/>
      <point x="261" y="437"/>
      <point x="261" y="503"/>
      <point x="261" y="437" type="curve"/>
      <point x="277" y="437"/>
      <point x="288" y="437"/>
      <point x="303" y="437" type="curve"/>
      <point x="390" y="503"/>
      <point x="303" y="437"/>
    </contour>
    <contour>
      <point x="390" y="210" type="curve"/>
      <point x="345" y="210"/>
      <point x="306" y="210"/>
      <point x="261" y="210" type="curve"/>
      <point x="261" y="144"/>
      <point x="261" y="210"/>
      <point x="261" y="144" type="curve"/>
      <point x="277" y="144"/>
      <point x="288" y="144"/>
      <point x="303" y="144" type="curve"/>
      <point x="390" y="210"/>
      <point x="303" y="144"/>
    </contour>
    <contour>
      <point x="303" y="144" type="curve"/>
      <point x="344" y="144"/>
      <point x="379" y="144"/>
      <point x="421" y="144" type="curve"/>
      <point x="421" y="210"/>
      <point x="421" y="144"/>
      <point x="421" y="210" type="curve"/>
      <point x="409" y="210"/>
      <point x="402" y="210"/>
      <point x="390" y="210" type="curve"/>
      <point x="303" y="144"/>
      <point x="390" y="210"/>
    </contour>
    <contour>
      <point x="404" y="315" type="curve"/>
      <point x="431" y="277"/>
      <point x="485" y="182"/>
      <point x="512" y="144" type="curve"/>
      <point x="570" y="192"/>
      <point x="528" y="153"/>
      <point x="568" y="210" type="curve"/>
      <point x="499" y="313" type="line"/>
      <point x="392" y="313"/>
      <point x="510" y="315"/>
    </contour>
    <contour>
      <point x="386" y="210" type="curve"/>
      <point x="386" y="307"/>
      <point x="386" y="405"/>
      <point x="386" y="503" type="curve"/>
      <point x="299" y="437"/>
      <point x="390" y="503"/>
      <point x="303" y="437" type="curve"/>
      <point x="303" y="339"/>
      <point x="303" y="241"/>
      <point x="303" y="144" type="curve"/>
      <point x="390" y="210"/>
      <point x="299" y="144"/>
    </contour>
    <contour>
      <point x="349" y="278" type="curve"/>
      <point x="369" y="278"/>
      <point x="389" y="278"/>
      <point x="410" y="278" type="curve"/>
      <point x="500" y="278"/>
      <point x="565" y="306"/>
      <point x="565" y="392" type="curve"/>
      <point x="565" y="467"/>
      <point x="507" y="503"/>
      <point x="428" y="503" type="curve"/>
      <point x="416" y="503"/>
      <point x="403" y="503"/>
      <point x="390" y="503" type="curve"/>
      <point x="303" y="437"/>
      <point x="390" y="503"/>
      <point x="303" y="437" type="curve"/>
      <point x="340" y="437"/>
      <point x="376" y="437"/>
      <point x="413" y="437" type="curve"/>
      <point x="452" y="437"/>
      <point x="483" y="425"/>
      <point x="483" y="388" type="curve"/>
      <point x="483" y="354"/>
      <point x="457" y="344"/>
      <point x="422" y="344" type="curve"/>
      <point x="397" y="344"/>
      <point x="373" y="344"/>
      <point x="349" y="344" type="curve"/>
      <point x="349" y="278"/>
      <point x="349" y="344"/>
    </contour>
  </outline>
</glyph>
<glyph name="macron" format="1">
  <advance width="333"/>
  <unicode hex="00AF"/>
  <outline>
    <contour>
      <point x="266" y="673" type="curve"/>
      <point x="188" y="673"/>
      <point x="110" y="673"/>
      <point x="31" y="673" type="curve"/>
      <point x="31" y="593"/>
      <point x="31" y="673"/>
      <point x="31" y="593" type="curve"/>
      <point x="110" y="593"/>
      <point x="188" y="593"/>
      <point x="266" y="593" type="curve"/>
      <point x="266" y="673"/>
      <point x="266" y="593"/>
    </contour>
    <contour>
      <point x="151" y="593" type="move" name="_top"/>
    </contour>
  </outline>
</glyph>
<glyph name="plusminus" format="1">
  <advance width="708"/>
  <unicode hex="00B1"/>
  <outline>
    <contour>
      <point x="66" y="30" type="line"/>
      <point x="643" y="30" type="line"/>
      <point x="643" y="118" type="line"/>
      <point x="66" y="118" type="line"/>
    </contour>
    <contour>
      <point x="66" y="268" type="curve"/>
      <point x="643" y="268" type="line"/>
      <point x="643" y="357"/>
      <point x="643" y="268"/>
      <point x="643" y="357" type="curve"/>
      <point x="66" y="357" type="line"/>
      <point x="66" y="268"/>
      <point x="66" y="357"/>
    </contour>
    <contour>
      <point x="405" y="30" type="curve"/>
      <point x="405" y="585" type="line"/>
      <point x="298" y="585"/>
      <point x="411" y="585"/>
      <point x="305" y="585" type="curve"/>
      <point x="305" y="30" type="line"/>
      <point x="411" y="30"/>
      <point x="298" y="30"/>
    </contour>
  </outline>
</glyph>
<glyph name="twosuperior" format="1">
  <advance width="514"/>
  <unicode hex="00B2"/>
  <outline>
    <contour>
      <point x="450" y="308" type="curve"/>
      <point x="450" y="352"/>
      <point x="450" y="391"/>
      <point x="450" y="436" type="curve"/>
      <point x="372" y="436"/>
      <point x="456" y="436"/>
      <point x="378" y="436" type="curve"/>
      <point x="378" y="416"/>
      <point x="378" y="402"/>
      <point x="378" y="383" type="curve"/>
      <point x="460" y="314"/>
      <point x="367" y="378"/>
    </contour>
    <contour>
      <point x="71" y="308" type="curve"/>
      <point x="214" y="308"/>
      <point x="337" y="308"/>
      <point x="450" y="308" type="curve"/>
      <point x="367" y="378"/>
      <point x="460" y="314"/>
      <point x="378" y="383" type="curve"/>
      <point x="277" y="383"/>
      <point x="171" y="383"/>
      <point x="71" y="383" type="curve"/>
      <point x="71" y="309"/>
      <point x="71" y="383"/>
    </contour>
    <contour>
      <point x="156" y="609" type="curve"/>
      <point x="182" y="646"/>
      <point x="209" y="668"/>
      <point x="252" y="668" type="curve"/>
      <point x="299" y="668"/>
      <point x="331" y="646"/>
      <point x="331" y="605" type="curve"/>
      <point x="331" y="563"/>
      <point x="300" y="544"/>
      <point x="268" y="517" type="curve"/>
      <point x="202" y="472"/>
      <point x="136" y="428"/>
      <point x="71" y="383" type="curve"/>
      <point x="74" y="310"/>
      <point x="72" y="383"/>
      <point x="76" y="310" type="curve"/>
      <point x="167" y="365"/>
      <point x="253" y="411"/>
      <point x="323" y="460" type="curve"/>
      <point x="380" y="505"/>
      <point x="427" y="538"/>
      <point x="427" y="608" type="curve"/>
      <point x="427" y="698"/>
      <point x="357" y="742"/>
      <point x="261" y="742" type="curve"/>
      <point x="182" y="742"/>
      <point x="124" y="715"/>
      <point x="88" y="647" type="curve"/>
      <point x="156" y="609"/>
      <point x="88" y="647"/>
    </contour>
    <contour>
      <point x="261" y="742" type="move" name="_top"/>
    </contour>
    <contour>
      <point x="258" y="308" type="move" name="_bottom"/>
    </contour>
  </outline>
</glyph>
<glyph name="threesuperior" format="1">
  <advance width="461"/>
  <unicode hex="00B3"/>
  <outline>
    <contour>
      <point x="115" y="631" type="curve"/>
      <point x="143" y="654"/>
      <point x="174" y="668"/>
      <point x="204" y="668" type="curve"/>
      <point x="250" y="668"/>
      <point x="283" y="653"/>
      <point x="283" y="613" type="curve"/>
      <point x="283" y="567"/>
      <point x="221" y="559"/>
      <point x="161" y="556" type="curve"/>
      <point x="161" y="494"/>
      <point x="161" y="556"/>
      <point x="161" y="494" type="curve"/>
      <point x="279" y="496"/>
      <point x="381" y="517"/>
      <point x="381" y="619" type="curve"/>
      <point x="381" y="707"/>
      <point x="310" y="740"/>
      <point x="214" y="740" type="curve" name=""/>
      <point x="157" y="740"/>
      <point x="105" y="718"/>
      <point x="67" y="682" type="curve"/>
      <point x="115" y="631"/>
      <point x="67" y="682"/>
    </contour>
    <contour>
      <point x="64" y="339" type="curve"/>
      <point x="106" y="316"/>
      <point x="148" y="302"/>
      <point x="196" y="302" type="curve"/>
      <point x="311" y="299"/>
      <point x="400" y="331"/>
      <point x="398" y="433" type="curve"/>
      <point x="398" y="541"/>
      <point x="284" y="545"/>
      <point x="161" y="547" type="curve"/>
      <point x="161" y="492"/>
      <point x="161" y="547"/>
      <point x="161" y="492" type="curve"/>
      <point x="233" y="490"/>
      <point x="299" y="482"/>
      <point x="299" y="432" type="curve"/>
      <point x="299" y="387"/>
      <point x="258" y="371"/>
      <point x="205" y="372" type="curve"/>
      <point x="173" y="372"/>
      <point x="142" y="379"/>
      <point x="106" y="396" type="curve"/>
      <point x="64" y="339"/>
      <point x="106" y="396"/>
    </contour>
    <contour>
      <point x="228" y="740" type="move" name="_top"/>
    </contour>
    <contour>
      <point x="218" y="301" type="move" name="_bottom"/>
    </contour>
  </outline>
</glyph>
<glyph name="acute" format="1">
  <advance width="435"/>
  <unicode hex="00B4"/>
  <outline>
    <contour>
      <point x="145" y="589" type="line"/>
      <point x="298" y="755" type="line"/>
      <point x="161" y="755" type="line"/>
      <point x="40" y="589" type="line"/>
    </contour>
    <contour>
      <point x="99" y="590" type="move" name="_top"/>
    </contour>
  </outline>
</glyph>
<glyph name="paragraph" format="1">
  <advance width="822"/>
  <unicode hex="00B6"/>
  <outline>
    <contour>
      <point x="472" y="641" type="curve"/>
      <point x="639" y="641"/>
      <point x="472" y="641"/>
      <point x="639" y="641" type="curve"/>
      <point x="639" y="722"/>
      <point x="639" y="641"/>
      <point x="639" y="722" type="curve"/>
      <point x="583" y="722"/>
      <point x="527" y="722"/>
      <point x="472" y="722" type="curve"/>
      <point x="472" y="641"/>
      <point x="472" y="722"/>
    </contour>
    <contour>
      <point x="472" y="0" type="curve"/>
      <point x="527" y="0"/>
      <point x="583" y="0"/>
      <point x="639" y="0" type="curve"/>
      <point x="639" y="81"/>
      <point x="639" y="0"/>
      <point x="639" y="81" type="curve"/>
      <point x="472" y="81"/>
      <point x="639" y="81"/>
      <point x="472" y="81" type="curve"/>
      <point x="472" y="0"/>
      <point x="472" y="81"/>
    </contour>
    <contour>
      <point x="472" y="81" type="curve"/>
      <point x="309" y="81"/>
      <point x="472" y="81"/>
      <point x="309" y="81" type="curve"/>
      <point x="309" y="0"/>
      <point x="309" y="81"/>
      <point x="309" y="0" type="curve"/>
      <point x="472" y="0"/>
      <point x="418" y="0"/>
      <point x="472" y="0" type="curve"/>
      <point x="472" y="81"/>
      <point x="472" y="0"/>
    </contour>
    <contour>
      <point x="453" y="375" type="curve"/>
      <point x="402" y="352"/>
      <point x="362" y="338"/>
      <point x="305" y="338" type="curve"/>
      <point x="211" y="338"/>
      <point x="148" y="389"/>
      <point x="148" y="480" type="curve"/>
      <point x="148" y="588"/>
      <point x="230" y="641"/>
      <point x="344" y="641" type="curve"/>
      <point x="386" y="641"/>
      <point x="427" y="641"/>
      <point x="469" y="641" type="curve"/>
      <point x="469" y="722"/>
      <point x="469" y="641"/>
      <point x="469" y="722" type="curve"/>
      <point x="423" y="722"/>
      <point x="376" y="722"/>
      <point x="330" y="722" type="curve"/>
      <point x="164" y="722"/>
      <point x="41" y="640"/>
      <point x="41" y="484" type="curve"/>
      <point x="41" y="334"/>
      <point x="156" y="261"/>
      <point x="314" y="259" type="curve"/>
      <point x="378" y="259"/>
      <point x="430" y="278"/>
      <point x="487" y="304" type="curve"/>
      <point x="453" y="375"/>
      <point x="487" y="305"/>
    </contour>
    <contour>
      <point x="526" y="0" type="curve"/>
      <point x="526" y="241"/>
      <point x="526" y="481"/>
      <point x="526" y="722" type="curve"/>
      <point x="420" y="722"/>
      <point x="526" y="722"/>
      <point x="420" y="722" type="curve"/>
      <point x="420" y="481"/>
      <point x="420" y="241"/>
      <point x="420" y="0" type="curve"/>
      <point x="526" y="0"/>
      <point x="420" y="0"/>
    </contour>
    <contour>
      <point x="737" y="0" type="curve"/>
      <point x="737" y="241"/>
      <point x="737" y="481"/>
      <point x="737" y="722" type="curve"/>
      <point x="630" y="722"/>
      <point x="737" y="722"/>
      <point x="630" y="722" type="curve"/>
      <point x="630" y="481"/>
      <point x="630" y="241"/>
      <point x="630" y="0" type="curve"/>
      <point x="737" y="0"/>
      <point x="630" y="0"/>
    </contour>
  </outline>
</glyph>
<glyph name="periodcentered" format="1">
  <advance width="259"/>
  <unicode hex="00B7"/>
  <outline>
    <contour>
      <point x="191" y="440" type="curve"/>
      <point x="191" y="476"/>
      <point x="164" y="494"/>
      <point x="128" y="494" type="curve"/>
      <point x="92" y="494"/>
      <point x="68" y="474"/>
      <point x="68" y="440" type="curve"/>
      <point x="186" y="440"/>
      <point x="73" y="440"/>
      <point x="191" y="440" type="curve"/>
      <point x="191" y="403"/>
      <point x="164" y="387"/>
      <point x="128" y="387" type="curve"/>
      <point x="92" y="387"/>
      <point x="68" y="405"/>
      <point x="68" y="440" type="curve"/>
      <point x="186" y="440"/>
      <point x="73" y="440"/>
    </contour>
  </outline>
</glyph>
<glyph name="cedilla" format="1">
  <advance width="391"/>
  <unicode hex="00B8"/>
  <outline>
    <contour>
      <point x="156" y="119" type="curve"/>
      <point x="141" y="96"/>
      <point x="95" y="21"/>
      <point x="81" y="-3" type="curve"/>
      <point x="153" y="-68"/>
      <point x="81" y="-3"/>
      <point x="153" y="-68" type="curve"/>
      <point x="170" y="-41"/>
      <point x="221" y="36"/>
      <point x="237" y="63" type="curve"/>
      <point x="156" y="119"/>
      <point x="237" y="63"/>
    </contour>
    <contour>
      <point x="153" y="-68" type="curve"/>
      <point x="162" y="-62"/>
      <point x="169" y="-59"/>
      <point x="179" y="-59" type="curve"/>
      <point x="197" y="-59"/>
      <point x="208" y="-68"/>
      <point x="208" y="-86" type="curve"/>
      <point x="208" y="-108"/>
      <point x="189" y="-116"/>
      <point x="166" y="-116" type="curve"/>
      <point x="141" y="-116"/>
      <point x="121" y="-111"/>
      <point x="94" y="-98" type="curve"/>
      <point x="60" y="-159"/>
      <point x="94" y="-98"/>
      <point x="60" y="-159" type="curve"/>
      <point x="94" y="-176"/>
      <point x="122" y="-184"/>
      <point x="161" y="-184" type="curve"/>
      <point x="237" y="-184"/>
      <point x="294" y="-155"/>
      <point x="294" y="-84" type="curve"/>
      <point x="294" y="-18"/>
      <point x="247" y="19"/>
      <point x="179" y="19" type="curve"/>
      <point x="142" y="19"/>
      <point x="115" y="12"/>
      <point x="81" y="-3" type="curve"/>
      <point x="153" y="-68"/>
      <point x="81" y="-3"/>
    </contour>
    <contour>
      <point x="225" y="63" type="move" name="_bottom"/>
    </contour>
  </outline>
</glyph>
<glyph name="onesuperior" format="1">
  <advance width="400"/>
  <unicode hex="00B9"/>
  <outline>
    <contour>
      <point x="179" y="309" type="curve"/>
      <point x="231" y="309"/>
      <point x="285" y="309"/>
      <point x="338" y="309" type="curve"/>
      <point x="338" y="383"/>
      <point x="338" y="305"/>
      <point x="338" y="380" type="curve"/>
      <point x="317" y="380"/>
      <point x="296" y="380"/>
      <point x="277" y="380" type="curve"/>
      <point x="179" y="305"/>
      <point x="277" y="383"/>
    </contour>
    <contour>
      <point x="277" y="380" type="curve"/>
      <point x="223" y="380"/>
      <point x="168" y="380"/>
      <point x="114" y="380" type="curve"/>
      <point x="114" y="305"/>
      <point x="114" y="383"/>
      <point x="114" y="309" type="curve"/>
      <point x="136" y="309"/>
      <point x="158" y="309"/>
      <point x="179" y="309" type="curve"/>
      <point x="277" y="383"/>
      <point x="179" y="305"/>
    </contour>
    <contour>
      <point x="102" y="575" type="line"/>
      <point x="276" y="730" type="line"/>
      <point x="179" y="733" type="line"/>
      <point x="54" y="630" type="line"/>
    </contour>
    <contour>
      <point x="277" y="380" type="curve"/>
      <point x="277" y="733" type="line"/>
      <point x="179" y="733" type="line"/>
      <point x="179" y="309" type="line"/>
      <point x="277" y="383"/>
      <point x="179" y="305"/>
    </contour>
    <contour>
      <point x="221" y="732" type="move" name="_top"/>
    </contour>
    <contour>
      <point x="229" y="309" type="move" name="_bottom"/>
    </contour>
  </outline>
</glyph>
<glyph name="ordmasculine" format="1">
  <advance width="475"/>
  <unicode hex="00BA"/>
  <outline>
    <contour>
      <point x="128" y="601" type="curve"/>
      <point x="128" y="671"/>
      <point x="164" y="719"/>
      <point x="235" y="719" type="curve"/>
      <point x="306" y="719"/>
      <point x="344" y="671"/>
      <point x="344" y="600" type="curve"/>
      <point x="344" y="526"/>
      <point x="308" y="478"/>
      <point x="241" y="478" type="curve"/>
      <point x="166" y="478"/>
      <point x="128" y="526"/>
      <point x="128" y="601" type="curve"/>
      <point x="85" y="601"/>
      <point x="99" y="601"/>
      <point x="56" y="601" type="curve"/>
      <point x="56" y="487"/>
      <point x="124" y="420"/>
      <point x="237" y="420" type="curve"/>
      <point x="349" y="420"/>
      <point x="418" y="486"/>
      <point x="418" y="600" type="curve"/>
      <point x="418" y="710"/>
      <point x="351" y="776"/>
      <point x="238" y="776" type="curve"/>
      <point x="124" y="776"/>
      <point x="56" y="710"/>
      <point x="56" y="601" type="curve"/>
      <point x="99" y="601"/>
      <point x="85" y="601"/>
    </contour>
  </outline>
</glyph>
<glyph name="guillemotright" format="1">
  <advance width="612"/>
  <unicode hex="00BB"/>
  <outline>
    <contour>
      <point x="326" y="454" type="curve"/>
      <point x="364" y="432"/>
      <point x="516" y="353"/>
      <point x="554" y="331" type="curve"/>
      <point x="554" y="242"/>
      <point x="554" y="325"/>
      <point x="554" y="236" type="curve"/>
      <point x="516" y="258"/>
      <point x="364" y="340"/>
      <point x="326" y="363" type="curve"/>
      <point x="326" y="451"/>
      <point x="326" y="366"/>
    </contour>
    <contour>
      <point x="326" y="206" type="curve"/>
      <point x="364" y="228"/>
      <point x="516" y="308"/>
      <point x="554" y="331" type="curve"/>
      <point x="554" y="242"/>
      <point x="554" y="325"/>
      <point x="554" y="236" type="curve"/>
      <point x="516" y="213"/>
      <point x="364" y="136"/>
      <point x="326" y="114" type="curve"/>
      <point x="326" y="203"/>
      <point x="326" y="117"/>
    </contour>
    <contour>
      <point x="82" y="454" type="curve"/>
      <point x="120" y="432"/>
      <point x="271" y="353"/>
      <point x="310" y="331" type="curve"/>
      <point x="310" y="242"/>
      <point x="310" y="325"/>
      <point x="310" y="236" type="curve"/>
      <point x="271" y="258"/>
      <point x="120" y="340"/>
      <point x="82" y="363" type="curve"/>
      <point x="82" y="451"/>
      <point x="82" y="366"/>
    </contour>
    <contour>
      <point x="82" y="206" type="curve"/>
      <point x="120" y="228"/>
      <point x="271" y="308"/>
      <point x="310" y="331" type="curve"/>
      <point x="310" y="242"/>
      <point x="310" y="325"/>
      <point x="310" y="236" type="curve"/>
      <point x="271" y="213"/>
      <point x="120" y="136"/>
      <point x="82" y="114" type="curve"/>
      <point x="82" y="203"/>
      <point x="82" y="117"/>
    </contour>
  </outline>
</glyph>
<glyph name="onequarter" format="1">
  <advance width="1027"/>
  <unicode hex="00BC"/>
  <outline>
    <contour>
      <point x="348" y="-54" type="line"/>
      <point x="793" y="723" type="line"/>
      <point x="694" y="723" type="line"/>
      <point x="250" y="-54" type="line"/>
    </contour>
    <contour>
      <point x="163" y="301" type="curve"/>
      <point x="215" y="301"/>
      <point x="269" y="301"/>
      <point x="321" y="301" type="curve"/>
      <point x="321" y="375"/>
      <point x="321" y="297"/>
      <point x="321" y="372" type="curve"/>
      <point x="301" y="372"/>
      <point x="280" y="372"/>
      <point x="260" y="372" type="curve"/>
      <point x="163" y="297"/>
      <point x="260" y="375"/>
    </contour>
    <contour>
      <point x="261" y="372" type="curve"/>
      <point x="207" y="372"/>
      <point x="152" y="372"/>
      <point x="98" y="372" type="curve"/>
      <point x="98" y="297"/>
      <point x="98" y="375"/>
      <point x="98" y="301" type="curve"/>
      <point x="119" y="301"/>
      <point x="141" y="301"/>
      <point x="163" y="301" type="curve"/>
      <point x="261" y="375"/>
      <point x="163" y="297"/>
    </contour>
    <contour>
      <point x="86" y="567" type="line"/>
      <point x="260" y="722" type="line"/>
      <point x="163" y="725" type="line"/>
      <point x="38" y="622" type="line"/>
    </contour>
    <contour>
      <point x="261" y="372" type="curve"/>
      <point x="261" y="725" type="line"/>
      <point x="163" y="725" type="line"/>
      <point x="163" y="301" type="line"/>
      <point x="261" y="375"/>
      <point x="163" y="297"/>
    </contour>
    <contour>
      <point x="990" y="138" type="line"/>
      <point x="595" y="138" type="line"/>
      <point x="595" y="66" type="line"/>
      <point x="990" y="66" type="line"/>
    </contour>
    <contour>
      <point x="624" y="74" type="line"/>
      <point x="881" y="373" type="line"/>
      <point x="806" y="387" type="line"/>
      <point x="595" y="138" type="line"/>
    </contour>
    <contour>
      <point x="904" y="-56" type="line"/>
      <point x="904" y="387" type="line"/>
      <point x="806" y="387" type="line"/>
      <point x="806" y="-56" type="line"/>
    </contour>
    <contour>
      <point x="855" y="11" type="line"/>
      <point x="741" y="11" type="line"/>
      <point x="741" y="-57" type="line"/>
      <point x="855" y="-57" type="line"/>
    </contour>
    <contour>
      <point x="855" y="-57" type="line"/>
      <point x="966" y="-57" type="line"/>
      <point x="966" y="11" type="line"/>
      <point x="855" y="11" type="line"/>
    </contour>
  </outline>
</glyph>
<glyph name="onehalf" format="1">
  <advance width="1089"/>
  <unicode hex="00BD"/>
  <outline>
    <contour>
      <point x="362" y="-54" type="line"/>
      <point x="807" y="723" type="line"/>
      <point x="708" y="723" type="line"/>
      <point x="263" y="-54" type="line"/>
    </contour>
    <contour>
      <point x="162" y="301" type="curve"/>
      <point x="214" y="301"/>
      <point x="268" y="301"/>
      <point x="320" y="301" type="curve"/>
      <point x="320" y="375"/>
      <point x="320" y="297"/>
      <point x="320" y="372" type="curve"/>
      <point x="300" y="372"/>
      <point x="279" y="372"/>
      <point x="259" y="372" type="curve"/>
      <point x="162" y="297"/>
      <point x="259" y="375"/>
    </contour>
    <contour>
      <point x="260" y="372" type="curve"/>
      <point x="206" y="372"/>
      <point x="151" y="372"/>
      <point x="97" y="372" type="curve"/>
      <point x="97" y="297"/>
      <point x="97" y="375"/>
      <point x="97" y="301" type="curve"/>
      <point x="118" y="301"/>
      <point x="140" y="301"/>
      <point x="162" y="301" type="curve"/>
      <point x="260" y="375"/>
      <point x="162" y="297"/>
    </contour>
    <contour>
      <point x="85" y="567" type="line"/>
      <point x="259" y="722" type="line"/>
      <point x="162" y="725" type="line"/>
      <point x="37" y="622" type="line"/>
    </contour>
    <contour>
      <point x="260" y="372" type="curve"/>
      <point x="260" y="725" type="line"/>
      <point x="162" y="725" type="line"/>
      <point x="162" y="301" type="line"/>
      <point x="260" y="375"/>
      <point x="162" y="297"/>
    </contour>
    <contour>
      <point x="1050" y="-56" type="curve"/>
      <point x="1050" y="-12"/>
      <point x="1050" y="27"/>
      <point x="1050" y="71" type="curve"/>
      <point x="972" y="71"/>
      <point x="1056" y="71"/>
      <point x="978" y="71" type="curve"/>
      <point x="978" y="52"/>
      <point x="978" y="37"/>
      <point x="978" y="18" type="curve"/>
      <point x="1060" y="-51"/>
      <point x="967" y="13"/>
    </contour>
    <contour>
      <point x="671" y="-56" type="curve"/>
      <point x="814" y="-56"/>
      <point x="938" y="-56"/>
      <point x="1050" y="-56" type="curve"/>
      <point x="967" y="13"/>
      <point x="1060" y="-51"/>
      <point x="978" y="18" type="curve"/>
      <point x="878" y="18"/>
      <point x="771" y="18"/>
      <point x="671" y="18" type="curve"/>
      <point x="671" y="-56"/>
      <point x="671" y="18"/>
    </contour>
    <contour>
      <point x="756" y="245" type="curve"/>
      <point x="782" y="281"/>
      <point x="809" y="304"/>
      <point x="853" y="304" type="curve"/>
      <point x="899" y="304"/>
      <point x="931" y="282"/>
      <point x="931" y="240" type="curve"/>
      <point x="931" y="199"/>
      <point x="901" y="180"/>
      <point x="868" y="153" type="curve"/>
      <point x="802" y="108"/>
      <point x="737" y="63"/>
      <point x="671" y="18" type="curve"/>
      <point x="675" y="-54"/>
      <point x="673" y="18"/>
      <point x="676" y="-54" type="curve"/>
      <point x="768" y="1"/>
      <point x="853" y="47"/>
      <point x="923" y="95" type="curve"/>
      <point x="980" y="140"/>
      <point x="1027" y="173"/>
      <point x="1027" y="244" type="curve"/>
      <point x="1027" y="334"/>
      <point x="957" y="378"/>
      <point x="861" y="378" type="curve"/>
      <point x="783" y="378"/>
      <point x="724" y="351"/>
      <point x="688" y="282" type="curve"/>
      <point x="756" y="245"/>
      <point x="688" y="282"/>
    </contour>
  </outline>
</glyph>
<glyph name="threequarters" format="1">
  <advance width="1036"/>
  <unicode hex="00BE"/>
  <outline>
    <contour>
      <point x="367" y="-54" type="line"/>
      <point x="811" y="723" type="line"/>
      <point x="712" y="723" type="line"/>
      <point x="268" y="-54" type="line"/>
    </contour>
    <contour>
      <point x="95" y="614" type="curve"/>
      <point x="123" y="638"/>
      <point x="155" y="651"/>
      <point x="185" y="651" type="curve"/>
      <point x="230" y="651"/>
      <point x="264" y="636"/>
      <point x="264" y="597" type="curve"/>
      <point x="264" y="550"/>
      <point x="202" y="542"/>
      <point x="141" y="539" type="curve"/>
      <point x="141" y="477"/>
      <point x="141" y="539"/>
      <point x="141" y="477" type="curve"/>
      <point x="259" y="479"/>
      <point x="362" y="500"/>
      <point x="362" y="602" type="curve"/>
      <point x="362" y="690"/>
      <point x="290" y="723"/>
      <point x="195" y="723" type="curve" name=""/>
      <point x="138" y="723"/>
      <point x="85" y="701"/>
      <point x="47" y="665" type="curve"/>
      <point x="95" y="614"/>
      <point x="47" y="665"/>
    </contour>
    <contour>
      <point x="44" y="322" type="curve"/>
      <point x="86" y="299"/>
      <point x="128" y="285"/>
      <point x="176" y="285" type="curve"/>
      <point x="291" y="282"/>
      <point x="380" y="315"/>
      <point x="378" y="416" type="curve"/>
      <point x="378" y="525"/>
      <point x="264" y="528"/>
      <point x="141" y="531" type="curve"/>
      <point x="141" y="475"/>
      <point x="141" y="531"/>
      <point x="141" y="475" type="curve"/>
      <point x="214" y="473"/>
      <point x="280" y="465"/>
      <point x="280" y="415" type="curve"/>
      <point x="280" y="370"/>
      <point x="238" y="354"/>
      <point x="185" y="356" type="curve"/>
      <point x="153" y="356"/>
      <point x="122" y="363"/>
      <point x="86" y="379" type="curve"/>
      <point x="44" y="322"/>
      <point x="86" y="379"/>
    </contour>
    <contour>
      <point x="1002" y="138" type="line"/>
      <point x="607" y="138" type="line"/>
      <point x="607" y="66" type="line"/>
      <point x="1002" y="66" type="line"/>
    </contour>
    <contour>
      <point x="635" y="74" type="line"/>
      <point x="893" y="373" type="line"/>
      <point x="818" y="387" type="line"/>
      <point x="607" y="138" type="line"/>
    </contour>
    <contour>
      <point x="916" y="-56" type="line"/>
      <point x="916" y="387" type="line"/>
      <point x="818" y="387" type="line"/>
      <point x="818" y="-56" type="line"/>
    </contour>
    <contour>
      <point x="867" y="11" type="line"/>
      <point x="753" y="11" type="line"/>
      <point x="753" y="-57" type="line"/>
      <point x="867" y="-57" type="line"/>
    </contour>
    <contour>
      <point x="867" y="-57" type="line"/>
      <point x="978" y="-57" type="line"/>
      <point x="978" y="11" type="line"/>
      <point x="867" y="11" type="line"/>
    </contour>
  </outline>
</glyph>
<glyph name="questiondown" format="1">
  <advance width="553"/>
  <unicode hex="00BF"/>
  <outline>
    <contour>
      <point x="357" y="351" type="curve"/>
      <point x="357" y="388"/>
      <point x="357" y="458"/>
      <point x="357" y="495" type="curve"/>
      <point x="254" y="495"/>
      <point x="357" y="495"/>
      <point x="254" y="495" type="curve"/>
      <point x="254" y="458"/>
      <point x="254" y="388"/>
      <point x="254" y="351" type="curve"/>
      <point x="357" y="351"/>
      <point x="254" y="351"/>
    </contour>
    <contour>
      <point x="452" y="127" type="line"/>
      <point x="416" y="91"/>
      <point x="367" y="62"/>
      <point x="305" y="62" type="curve"/>
      <point x="216" y="62"/>
      <point x="155" y="110"/>
      <point x="155" y="197" type="curve"/>
      <point x="155" y="296"/>
      <point x="234" y="351"/>
      <point x="346" y="351" type="curve"/>
      <point x="346" y="383"/>
      <point x="346" y="400"/>
      <point x="346" y="431" type="curve"/>
      <point x="175" y="431"/>
      <point x="54" y="348"/>
      <point x="54" y="197" type="curve"/>
      <point x="54" y="56"/>
      <point x="156" y="-23"/>
      <point x="300" y="-23" type="curve"/>
      <point x="387" y="-23"/>
      <point x="454" y="8"/>
      <point x="508" y="63" type="curve"/>
    </contour>
    <contour>
      <point x="244" y="687" type="curve"/>
      <point x="244" y="651"/>
      <point x="270" y="634"/>
      <point x="305" y="634" type="curve"/>
      <point x="341" y="634"/>
      <point x="365" y="653"/>
      <point x="365" y="687" type="curve"/>
      <point x="244" y="687"/>
      <point x="365" y="687"/>
      <point x="244" y="687" type="curve"/>
      <point x="244" y="724"/>
      <point x="270" y="740"/>
      <point x="306" y="740" type="curve"/>
      <point x="341" y="740"/>
      <point x="365" y="722"/>
      <point x="365" y="687" type="curve"/>
      <point x="244" y="687"/>
      <point x="365" y="687"/>
    </contour>
  </outline>
</glyph>
